<svg version="1.2" xmlns="http://www.w3.org/2000/svg" viewBox="0 0 3928 3900" width="3928" height="3900">
	<title>Flag_of_the_United_States-svg</title>
	<style>
		.s0 { fill: #b22234 } 
		.s1 { fill: #000000;stroke: #ffffff;stroke-width: 300 } 
		.s2 { fill: #3c3b6e } 
		.s3 { fill: #ffffff } 
	</style>
	<path id="Layer" class="s0" d="m-992 0h7410v3900h-7410z"/>
	<path id="Layer" class="s1" d="m-992 450h7410m0 600h-7410m0 600h7410m0 600h-7410m0 600h7410m0 600h-7410"/>
	<path id="Layer" class="s2" d="m-992 0h2964v2100h-2964z"/>
	<g id="Layer">
		<g id="s18">
			<g id="s9">
				<g id="s5">
					<g id="s4">
						<path id="s" class="s3" d="m-745 90l70.5 217.1-184.6-134.2h228.2l-184.6 134.2z"/>
						<path id="s" class="s3" d="m-745 510l70.5 217.1-184.6-134.2h228.2l-184.6 134.2z"/>
						<path id="s" class="s3" d="m-745 930l70.5 217.1-184.6-134.2h228.2l-184.6 134.2z"/>
						<path id="s" class="s3" d="m-745 1350l70.5 217.1-184.6-134.2h228.2l-184.6 134.2z"/>
					</g>
					<path id="s" class="s3" d="m-745 1770l70.5 217.1-184.6-134.2h228.2l-184.6 134.2z"/>
				</g>
				<g id="s4">
					<path id="s" class="s3" d="m-498 300l70.5 217.1-184.6-134.2h228.2l-184.6 134.2z"/>
					<path id="s" class="s3" d="m-498 720l70.5 217.1-184.6-134.2h228.2l-184.6 134.2z"/>
					<path id="s" class="s3" d="m-498 1140l70.5 217.1-184.6-134.2h228.2l-184.6 134.2z"/>
					<path id="s" class="s3" d="m-498 1560l70.5 217.1-184.6-134.2h228.2l-184.6 134.2z"/>
				</g>
			</g>
			<g id="s9">
				<g id="s5">
					<g id="s4">
						<path id="s" class="s3" d="m-251 90l70.5 217.1-184.6-134.2h228.2l-184.6 134.2z"/>
						<path id="s" class="s3" d="m-251 510l70.5 217.1-184.6-134.2h228.2l-184.6 134.2z"/>
						<path id="s" class="s3" d="m-251 930l70.5 217.1-184.6-134.2h228.2l-184.6 134.2z"/>
						<path id="s" class="s3" d="m-251 1350l70.5 217.1-184.6-134.2h228.2l-184.6 134.2z"/>
					</g>
					<path id="s" class="s3" d="m-251 1770l70.5 217.1-184.6-134.2h228.2l-184.6 134.2z"/>
				</g>
				<g id="s4">
					<path id="s" class="s3" d="m-4 300l70.5 217.1-184.6-134.2h228.2l-184.6 134.2z"/>
					<path id="s" class="s3" d="m-4 720l70.5 217.1-184.6-134.2h228.2l-184.6 134.2z"/>
					<path id="s" class="s3" d="m-4 1140l70.5 217.1-184.6-134.2h228.2l-184.6 134.2z"/>
					<path id="s" class="s3" d="m-4 1560l70.5 217.1-184.6-134.2h228.2l-184.6 134.2z"/>
				</g>
			</g>
		</g>
		<g id="s18">
			<g id="s9">
				<g id="s5">
					<g id="s4">
						<path id="s" class="s3" d="m243 90l70.5 217.1-184.6-134.2h228.2l-184.6 134.2z"/>
						<path id="s" class="s3" d="m243 510l70.5 217.1-184.6-134.2h228.2l-184.6 134.2z"/>
						<path id="s" class="s3" d="m243 930l70.5 217.1-184.6-134.2h228.2l-184.6 134.2z"/>
						<path id="s" class="s3" d="m243 1350l70.5 217.1-184.6-134.2h228.2l-184.6 134.2z"/>
					</g>
					<path id="s" class="s3" d="m243 1770l70.5 217.1-184.6-134.2h228.2l-184.6 134.2z"/>
				</g>
				<g id="s4">
					<path id="s" class="s3" d="m490 300l70.5 217.1-184.6-134.2h228.2l-184.6 134.2z"/>
					<path id="s" class="s3" d="m490 720l70.5 217.1-184.6-134.2h228.2l-184.6 134.2z"/>
					<path id="s" class="s3" d="m490 1140l70.5 217.1-184.6-134.2h228.2l-184.6 134.2z"/>
					<path id="s" class="s3" d="m490 1560l70.5 217.1-184.6-134.2h228.2l-184.6 134.2z"/>
				</g>
			</g>
			<g id="s9">
				<g id="s5">
					<g id="s4">
						<path id="s" class="s3" d="m737 90l70.5 217.1-184.6-134.2h228.2l-184.6 134.2z"/>
						<path id="s" class="s3" d="m737 510l70.5 217.1-184.6-134.2h228.2l-184.6 134.2z"/>
						<path id="s" class="s3" d="m737 930l70.5 217.1-184.6-134.2h228.2l-184.6 134.2z"/>
						<path id="s" class="s3" d="m737 1350l70.5 217.1-184.6-134.2h228.2l-184.6 134.2z"/>
					</g>
					<path id="s" class="s3" d="m737 1770l70.5 217.1-184.6-134.2h228.2l-184.6 134.2z"/>
				</g>
				<g id="s4">
					<path id="s" class="s3" d="m984 300l70.5 217.1-184.6-134.2h228.2l-184.6 134.2z"/>
					<path id="s" class="s3" d="m984 720l70.5 217.1-184.6-134.2h228.2l-184.6 134.2z"/>
					<path id="s" class="s3" d="m984 1140l70.5 217.1-184.6-134.2h228.2l-184.6 134.2z"/>
					<path id="s" class="s3" d="m984 1560l70.5 217.1-184.6-134.2h228.2l-184.6 134.2z"/>
				</g>
			</g>
		</g>
		<g id="s9">
			<g id="s5">
				<g id="s4">
					<path id="s" class="s3" d="m1231 90l70.5 217.1-184.6-134.2h228.2l-184.6 134.2z"/>
					<path id="s" class="s3" d="m1231 510l70.5 217.1-184.6-134.2h228.2l-184.6 134.2z"/>
					<path id="s" class="s3" d="m1231 930l70.5 217.1-184.6-134.2h228.2l-184.6 134.2z"/>
					<path id="s" class="s3" d="m1231 1350l70.5 217.1-184.6-134.2h228.2l-184.6 134.2z"/>
				</g>
				<path id="s" class="s3" d="m1231 1770l70.5 217.1-184.6-134.2h228.2l-184.6 134.2z"/>
			</g>
			<g id="s4">
				<path id="s" class="s3" d="m1478 300l70.5 217.1-184.6-134.2h228.2l-184.6 134.2z"/>
				<path id="s" class="s3" d="m1478 720l70.5 217.1-184.6-134.2h228.2l-184.6 134.2z"/>
				<path id="s" class="s3" d="m1478 1140l70.5 217.1-184.6-134.2h228.2l-184.6 134.2z"/>
				<path id="s" class="s3" d="m1478 1560l70.5 217.1-184.6-134.2h228.2l-184.6 134.2z"/>
			</g>
		</g>
		<g id="s5">
			<g id="s4">
				<path id="s" class="s3" d="m1725 90l70.5 217.1-184.6-134.2h228.2l-184.6 134.2z"/>
				<path id="s" class="s3" d="m1725 510l70.5 217.1-184.6-134.2h228.2l-184.6 134.2z"/>
				<path id="s" class="s3" d="m1725 930l70.5 217.1-184.6-134.2h228.2l-184.6 134.2z"/>
				<path id="s" class="s3" d="m1725 1350l70.5 217.1-184.6-134.2h228.2l-184.6 134.2z"/>
			</g>
			<path id="s" class="s3" d="m1725 1770l70.5 217.1-184.6-134.2h228.2l-184.6 134.2z"/>
		</g>
	</g>
</svg>