<svg version="1.2" xmlns="http://www.w3.org/2000/svg" viewBox="0 0 390 284" width="390" height="284">
	<title>hero-bg-svg</title>
	<style>
		.s0 { fill: #f5d7d8 } 
	</style>
	<path id="Path 0" class="s0" d="m4.6 1.6l-5 1.5c0.4 176.1 0.5 180.9 2.2 180.3 0.9-0.3 4.6-1.2 8.2-2.1 4.6-1 8.7-1.3 14-0.8 4.1 0.4 10.4 1.8 14 3.2 3.6 1.3 8.3 3.7 10.5 5.3 2.2 1.5 6.3 5.2 9.1 8.1 2.8 3 6.2 7.7 7.6 10.4 1.4 2.8 4 9.5 5.8 15 1.8 5.5 4.7 12.9 6.4 16.5 1.7 3.6 4.5 8.3 6.1 10.4 1.7 2.1 5.7 5.9 9 8.5 3.3 2.5 8.7 5.6 12 6.9 4.2 1.7 8.7 2.6 15 3 6.5 0.3 11 0 16-1.2 3.8-0.9 9.9-3.3 13.4-5.4 4.1-2.4 9.3-7 15-13.1 4.7-5.2 10.9-10.9 13.6-12.6 2.8-1.8 7.7-4.2 11-5.5 4.8-1.9 8-2.3 16-2.4 8.8 0 10.9 0.4 17 2.9 3.8 1.6 14.9 7.5 24.5 13.2 10.7 6.3 19.4 10.7 22.5 11.4 2.8 0.7 7.9 1 11.5 0.7 3.9-0.3 8.7-1.5 12-3 3-1.3 7.8-4.7 10.5-7.4 2.8-2.7 5.9-7 6.9-9.4 1-2.5 3-6.9 4.3-9.7 1.2-2.9 4.3-7.4 6.7-10 2.7-3 6.7-5.9 10.7-7.7 5.2-2.5 7.8-3 13.9-3 5.1-0.1 8.9 0.5 12 1.8 2.5 1 6.3 3.1 8.5 4.6 2.2 1.5 8.3 8 13.5 14.3 5.2 6.4 9.8 11.6 10.3 11.7 0.4 0 0.7-44.8 0.7-99.5v-99.5c-4.3 3.2-21.2 18.4-40.3 35.8-19.2 17.5-38.1 33.8-42 36.5-4 2.6-10.1 5.8-13.7 7.2-3.6 1.4-9 2.9-12 3.5-3 0.6-9.6 1.1-14.5 1.1-5 0-11.9-0.7-15.5-1.6-3.6-0.9-9-2.5-12-3.7-3-1.2-8.4-4-12-6.2-3.6-2.2-11.7-7.8-18-12.3-6.3-4.6-14-9.2-17-10.4-4.6-1.7-7.1-2-15-1.7-7.5 0.4-10.5 1-14.5 2.9-2.8 1.4-7 4-9.5 5.8-2.5 1.7-7.7 4.2-11.5 5.3-5.1 1.5-8.7 2-13.5 1.6-4.4-0.3-8.6-1.4-13-3.5-3.6-1.7-8.4-4.8-10.7-6.9-2.2-2.2-11.6-13.1-20.7-24.4-9.2-11.3-23.8-29.3-32.5-40-8.7-10.7-17.5-20.7-19.7-22.2-2.1-1.6-6.2-3.5-8.9-4.3-2.8-0.8-7-1.5-9.5-1.4-2.5 0-6.7 0.7-9.4 1.5z"/>
</svg>