<svg version="1.2" xmlns="http://www.w3.org/2000/svg" viewBox="0 0 34 62" width="34" height="62">
	<title>Layer</title>
	<style>
		.s0 { fill: #fffbf4 } 
	</style>
	<g id="Layer">
		<path id="Layer" fill-rule="evenodd" class="s0" d="m3.5 23.8c2.7-1.1 5.7-1.2 8.3-0.1 1.1 0.5 2.1 1.1 3 1.8 0.1-1.1 0.3-2.3 0.7-3.4 1.1-2.9 3.1-5.1 5.8-6.2 0 0 0.1 0 0.1-0.1 0.3-0.3 0.7-0.3 1 0 0.3 0.1 0.6 0.4 0.7 0.7 1.1 2.8 1.2 6 0.2 8.8-1 2.8-3.1 5.1-5.7 6.2 0 0-0.1 0-0.1 0.1-2.7 1.2-5.6 1.3-8.3 0.1-2.8-1.1-5-3.4-6.2-6.1-0.4-0.7-0.1-1.4 0.5-1.8zm14.1 4.7c1.5-1.1 2.5-2.4 3.3-4.1 0.6-1.7 0.7-3.6 0.3-5.4-1.6 1.1-2.6 2.4-3.3 4.1-0.6 1.8-0.8 3.6-0.3 5.4zm-7.7 0.9c1.5 0.6 3.4 0.7 5.1 0.3-0.9-1.6-2.3-2.8-4.1-3.5-1.5-0.6-3.4-0.7-5-0.3 0.9 1.6 2.4 2.9 4 3.5z"/>
		<path id="Layer" fill-rule="evenodd" class="s0" d="m8.5 35.7c2.5-1.3 5.4-1.3 8.3-0.2 1 0.4 2 1 2.9 1.8 0.3-4.2 2.8-7.9 6.6-9.7 0.3-0.1 0.7-0.1 1 0 0.3 0.1 0.5 0.3 0.7 0.7 1.2 2.9 1.3 6.1 0.2 8.9-1 2.8-3 5.1-5.7 6.2 0 0-0.1 0-0.1 0.1-2.8 1.2-5.6 1.3-8.3 0.2-2.8-1.1-5-3.4-6.2-6.1-0.1-0.3-0.2-0.7 0-1.1 0-0.4 0.2-0.6 0.6-0.8zm14 4.5c1.5-1.1 2.7-2.4 3.3-4.1 0.6-1.7 0.7-3.5 0.4-5.4-3.1 2.1-4.6 5.8-3.7 9.5zm-7.7 1c1.5 0.6 3.4 0.7 5.1 0.3-0.9-1.6-2.3-2.8-4.1-3.5-1.6-0.6-3.3-0.9-5.1-0.3 1.1 1.6 2.5 2.7 4.1 3.5z"/>
		<path id="Layer" fill-rule="evenodd" class="s0" d="m13.2 47.7c2.5-1.3 5.5-1.3 8.3-0.2 1 0.4 2 1 2.9 1.7 0.1-1.1 0.3-2.2 0.8-3.3 1-2.9 3.1-5.3 5.8-6.4 0.3-0.1 0.7-0.2 1 0 0.3 0.1 0.6 0.4 0.7 0.7 2.2 5.3 0.3 11.5-4.4 14.5 0.5 1 1.5 2.9 2.4 5.4 0.3 0.7 0 1.4-0.6 1.7-0.3 0.1-0.6 0.2-1 0-0.4-0.1-0.6-0.3-0.8-0.7-1-2.7-1.9-4.5-2.3-5.3-2.4 0.8-4.9 0.7-7.3-0.2-2.8-1.1-5-3.4-6.1-6.2-0.4-0.7 0-1.4 0.6-1.7zm14 4.4c3-1.9 4.4-5.7 3.6-9.4-1.5 1.1-2.7 2.4-3.3 4.1-0.6 1.7-0.7 3.6-0.3 5.3zm-7.6 0.9c1.6 0.6 3.4 0.7 5.1 0.3-0.9-1.5-2.3-2.7-4-3.5-1.6-0.6-3.4-0.7-5.2-0.3 1.1 1.7 2.5 2.9 4.1 3.5z"/>
		<path id="Layer" class="s0" d="m16.1 16.5c-0.3 0.2-0.7 0.1-1 0-0.3-0.1-0.5-0.3-0.7-0.7l-5.1-12.2c-0.3-0.8 0-1.5 0.6-1.8 0.3-0.2 0.7-0.2 1 0 0.3 0.1 0.5 0.3 0.6 0.7l5.3 12.2c0.3 0.6 0 1.5-0.7 1.8z"/>
		<path id="Layer" class="s0" d="m13.1 21.7c-0.3 0.2-0.8 0.1-1.1 0-0.2-0.1-0.5-0.3-0.7-0.7l-8-18.7c-0.3-0.7 0-1.4 0.6-1.7 0.5-0.1 0.8-0.1 1.1 0 0.3 0.1 0.6 0.4 0.7 0.7l8 18.7c0.3 0.7 0 1.4-0.6 1.7z"/>
		<path id="Layer" class="s0" d="m1 5.9c0.3-0.2 0.7-0.2 1 0 0.3 0.1 0.6 0.4 0.7 0.7l5.2 12.2c0.4 0.7 0 1.5-0.6 1.8-0.3 0.2-0.7 0.1-1 0-0.3-0.1-0.5-0.3-0.7-0.7l-5.2-12.2c-0.3-0.8 0-1.5 0.6-1.8z"/>
	</g>
</svg>