<svg version="1.2" xmlns="http://www.w3.org/2000/svg" viewBox="0 0 48 56" width="48" height="56">
	<title>Layer</title>
	<defs>
		<clipPath clipPathUnits="userSpaceOnUse" id="cp1">
			<path d="m-6 0.6h60v60h-60z"/>
		</clipPath>
	</defs>
	<style>
		.s0 { fill: #fffbf4 } 
	</style>
	<g id="Layer">
		<g id="Clip-Path" clip-path="url(#cp1)">
			<g id="Layer">
				<path id="Layer" fill-rule="evenodd" class="s0" d="m44.5 28.8v23.2c0 1.1-0.4 2-1.1 2.6-0.7 0.6-1.5 0.9-2.3 0.9q-0.1 0-0.2 0c0 0-0.1 0-0.2 0l-34.6-4.5c-1.6-0.3-2.8-1.7-2.8-3.4v-23.3c0-1 0.4-1.6 1.2-2.1 0.6-0.2 16.9-8 22.1-10.4 0.9-0.5 2-0.3 2.7 0.5l14.6 15.1c0.4 0.4 0.7 1 0.6 1.4zm-38.3-4.6l35.9 4.7-14.3-14.9c-6.8 3.2-18.9 8.8-21.6 10.2zm1.5 24.7v-6c0-0.8 0.8-1.5 1.6-1.4l33 4.2v-2.4h-0.1l-33.2-4.2c-0.8-0.1-1.3-0.7-1.3-1.5v-7c0-0.9 0.8-1.6 1.6-1.5l33 4.2v-2h-0.2l-36.4-4.8v21.2c0 0.5 0.4 1 0.8 1.1zm34.5 3.3v-4.2l-32.3-4.1v5.2l31.2 4.1c0 0 0 0 0.1 0 0.3 0 0.5-0.1 0.7-0.3 0.3-0.2 0.4-0.4 0.4-0.7 0 0-0.1 0-0.1 0zm0.1-11.2v-5.3l-2.5-0.4c-0.1 0.6-0.5 1.1-1.2 1.1-0.7 0-1.2-0.5-1.2-1.2q0-0.1 0-0.2l-5-0.6c0.2 0.1 0.3 0.5 0.3 0.8 0 0.7-0.5 1.2-1.2 1.2-0.6 0-1.2-0.5-1.2-1.2 0-0.4 0.3-0.8 0.6-1l-10.6-1.4c0.1 0.2 0.1 0.3 0.1 0.4 0 0.7-0.5 1.2-1.2 1.2-0.7 0-1.2-0.5-1.2-1.2 0-0.2 0-0.5 0.2-0.6l-8.2-1.1v5.4l3.5 0.4c-0.1-0.1-0.1-0.3-0.1-0.4 0-0.6 0.6-1.2 1.2-1.2 0.7 0 1.2 0.6 1.2 1.2 0 0.3-0.1 0.5-0.2 0.6l18.8 2.4c0.1-0.4 0.6-0.7 1.1-0.7 0.7 0 1.1 0.5 1.2 1.1l5.6 0.7c0 0 0 0 0 0z"/>
				<path id="Layer" class="s0" d="m3.6 9.5h1.8v1.8c0 0.7 0.5 1.2 1.2 1.2 0.7 0 1.2-0.5 1.2-1.2v-1.8h1.8c0.7 0 1.2-0.5 1.2-1.2 0-0.7-0.5-1.2-1.2-1.2h-1.9v-1.9c0-0.6-0.5-1.2-1.2-1.2-0.7 0-1.2 0.5-1.2 1.2v1.8h-1.8c-0.7 0-1.2 0.5-1.2 1.2 0.1 0.7 0.5 1.3 1.3 1.3z"/>
				<path id="Layer" class="s0" d="m40.4 8.3c0.7 0 1.2-0.5 1.2-1.2 0-0.7-0.5-1.2-1.2-1.2-0.6 0-1.2 0.5-1.2 1.2 0.1 0.6 0.6 1.2 1.2 1.2z"/>
				<path id="Layer" class="s0" d="m1.2 13.6c-0.6 0-1.2 0.5-1.2 1.2 0 0.6 0.5 1.2 1.2 1.2 0.7 0 1.2-0.6 1.2-1.2 0-0.7-0.5-1.2-1.2-1.2z"/>
				<path id="Layer" class="s0" d="m16.6 3c0.7 0 1.2-0.5 1.2-1.2 0-0.7-0.5-1.2-1.2-1.2-0.6 0-1.2 0.5-1.2 1.2 0 0.7 0.6 1.2 1.2 1.2z"/>
				<path id="Layer" class="s0" d="m21.9 6.9c0.7 0 1.2-0.5 1.2-1.2 0-0.6-0.5-1.2-1.2-1.2-0.6 0-1.2 0.6-1.2 1.2 0 0.7 0.6 1.2 1.2 1.2z"/>
				<path id="Layer" class="s0" d="m24.2 35.3c-0.6 0-1.2 0.5-1.2 1.2 0 0.7 0.5 1.2 1.2 1.2 0.7 0 1.2-0.5 1.2-1.2 0-0.7-0.6-1.2-1.2-1.2z"/>
				<path id="Layer" fill-rule="evenodd" class="s0" d="m41.7 13.3c0-1.8 1.4-3.3 3.1-3.3 1.7 0 3.2 1.5 3.2 3.3 0 1.8-1.4 3.3-3.2 3.3-1.8 0-3.1-1.5-3.1-3.3zm2 0c0 0.6 0.5 1.1 1.1 1.1 0.7 0 1.1-0.4 1.1-1.1 0-0.6-0.5-1.1-1.1-1.1-0.6 0-1.1 0.5-1.1 1.1z"/>
			</g>
		</g>
	</g>
</svg>