<svg version="1.2" xmlns="http://www.w3.org/2000/svg" viewBox="0 0 44 84" width="44" height="84">
	<title>Layer</title>
	<style>
		.s0 { fill: #fffbf4 } 
	</style>
	<path id="Layer" fill-rule="evenodd" class="s0" d="m17 12.1c2.2-0.3 3.9-0.6 5.6-0.7 3.3-0.1 5.8 1.4 7.2 4.3 0.9 1.6 1.5 3.3 2.1 5 2.9 8.4 5.7 16.7 8.5 25.1 0.1 0.4 0.2 0.9 0.4 1.8-0.8-0.4-1.4-0.5-1.9-0.8q-11.7-6.6-23.4-13.3c-1-0.6-2-1.2-2.9-1.8-4.2-3.1-5.2-6.7-3.2-11.5 0.3-0.7 0.7-1.4 1.2-2.3-0.8-0.3-1.5-0.5-2.2-0.7-1.6-0.4-3.2-0.7-4.8-1.1-2.3-0.7-2.9-1.7-2.4-4.1 0.4-1.4 1-2.8-0.3-4.1-0.3-0.3 0-1.5 0.3-2 1.5-2.4 3.6-4.2 6.2-5.1 0.7-0.2 2 0 2.4 0.5 0.7 0.8 1.4 0.9 2.3 0.8 3.8-0.4 4.6 0.3 4.9 4 0.1 2 0 4 0 6zm19.1 25.5c-1.6-4.7-3.3-9.4-5-14.1-0.7-2.3-1.5-4.5-2.5-6.6-1.6-3.2-4.5-4.4-7.9-3.3 1.5 1 3.1 2.2 2.2 4-1.5 2.7-4.1 1-6.3 0.9-0.1 1.2 0.1 2.5-0.2 3.6-0.3 0.9-1 2.1-1.7 2.2-0.7 0.2-1.8-0.5-2.5-1.2-0.6-0.4-0.7-1.3-1-2-1.9 3.5-1 7.1 1.9 8.9 3.4 2.2 6.9 4.2 10.4 6.3 2.8 1.7 5.6 3.3 8.3 4.9 1.5-1.2 2.8-2.4 4.3-3.6zm-24.4-33.6c0.2 0.6 0.4 1.2 0.6 1.9 0.3 1.3 0.7 2.5 0.9 3.9 0 0.4-0.4 0.9-0.6 1.3-0.5-0.2-1.3-0.4-1.6-0.8-0.5-0.8-0.7-1.8-1-2.7-0.5-1.6-1-3.2-1.7-5.4-2.1 1.7-3.9 3.2-6.1 4.9 2.5 1.4 4.5 2.4 6.4 3.6 0.7 0.5 1 1.4 1.6 2.1-0.9-0.1-1.9 0.1-2.6-0.2-1.5-0.5-2.8-1.4-4.2-2-1.5 2.8-1.1 3.8 1.8 4.5 1.8 0.5 3.5 1 5.3 1.4 0.4 0.1 1.1 0.1 1.4-0.2 4-3.2 4-3.2 3.9-8.3q0-0.6 0-1.1c-0.1-3-1-3.6-4.1-2.9zm24.7 36c-0.8 0.7-1.4 1.3-2.2 1.9 1.6 1.2 2.9 2.2 4.3 3.2q0.1-0.2 0.2-0.3c-0.7-1.5-1.5-3.1-2.3-4.8z"/>
	<g id="Layer">
		<path id="Layer" class="s0" d="m40.8 47.6q0 0 0.3 0.4c0.2 0.2 0.6 0.6 0.9 1.2q0.3 0.4 0.6 0.9c0.2 0.4 0.4 0.8 0.5 1.3 0.3 0.9 0.6 2.1 0.2 3.4-0.5 1.3-1.6 2.4-2.7 3.1-1.2 0.7-2.6 1.3-3.9 1.8-1.3 0.4-2.7 0.9-3.9 1.3-0.6 0.3-1.2 0.5-1.6 0.8-0.5 0.4-0.7 0.6-0.7 0.9q0 0 0 0c0 0.2 0-0.2 0-0.1v0.3 0.6c0 0.2 0 0.2 0 0.3q0.1 0.2 0.1 0.4c0.2 0.5 0.4 1.2 0.6 1.8 0.6 1.3 1.2 2.6 1.7 4 0.5 1.4 0.7 2.9 0.7 4.3q-0.1 0.5-0.1 1.1-0.1 0.5-0.3 1-0.1 0.4-0.3 0.9c-0.1 0.3-0.3 0.5-0.5 0.8q-0.2 0.4-0.4 0.8-0.3 0.3-0.6 0.6c-0.3 0.4-0.6 0.8-1 1.1-0.7 0.6-1.3 1.1-1.9 1.4-1.1 0.7-1.8 1.1-1.8 1.1 0 0 0.5-0.6 1.4-1.5q0.2-0.2 0.4-0.4 0.1-0.2 0.3-0.4 0.3-0.5 0.7-1c0.3-0.3 0.5-0.7 0.8-1.1q0.1-0.3 0.3-0.7 0.2-0.3 0.3-0.6c0.1-0.3 0.2-0.5 0.3-0.8q0-0.3 0.1-0.7c0.1-0.5 0-1.1 0.1-1.6q-0.2-1.6-1-3.4c-0.5-1.2-1.2-2.4-1.8-3.7-0.4-0.7-0.7-1.5-0.9-2.3l-0.1-0.8c-0.1-0.2-0.1-0.5-0.1-0.7v-0.5-0.3c0 0 0-0.4 0-0.2v-0.1l0.1-0.3q0.1-0.4 0.3-0.8c0.1-0.3 0.3-0.5 0.4-0.8 0.4-0.4 0.8-0.7 1.2-1 0.8-0.5 1.5-0.8 2.3-1.1 1.4-0.5 2.8-0.8 4.1-1.2 1.3-0.3 2.5-0.7 3.6-1.1 1-0.5 1.7-1.1 2.2-1.9 0.4-0.7 0.4-1.7 0.3-2.5q-0.1-0.6-0.2-1.1-0.1-0.6-0.3-1c-0.2-0.6-0.4-1.1-0.5-1.4q-0.2-0.5-0.2-0.5z"/>
	</g>
</svg>