<svg version="1.2" xmlns="http://www.w3.org/2000/svg" viewBox="0 0 24 24" width="24" height="24">
	<title>why-us-1-svg</title>
	<style>
		.s0 { fill: #fffbf3 } 
	</style>
	<path id="Layer" fill-rule="evenodd" class="s0" d="m4 9v-2h2v2h5v-4h2v4h5v-2h2v2h0.8c1.8 0.1 3.2 1.6 3.2 3.5 0 1-0.4 1.8-1 2.5v9h-22v-9c-0.4-0.5-0.7-1-0.9-1.6q-0.1-0.5-0.1-0.9c0-2 1.6-3.5 3.2-3.5zm17 11h-18v2h18zm-18-4v2h18v-2h-0.4c-0.7 0-1.5-0.3-2.1-0.8-0.6 0.5-1.4 0.8-2.2 0.8-0.8 0-1.5-0.3-2.1-0.8-0.6 0.5-1.4 0.8-2.2 0.8-0.8 0-1.5-0.3-2.1-0.8-0.6 0.5-1.3 0.8-2.1 0.8-0.8 0-1.6-0.3-2.2-0.8-0.6 0.5-1.3 0.8-2.2 0.8zm0.3-5c-0.6 0.1-1.2 0.7-1.3 1.4 0 0.9 0.7 1.6 1.5 1.6 1.2 0 1.9-0.8 2.1-2 0.2 0.9 1 2 2.2 2 1.1 0 2-0.9 2.1-1.9v-0.1c0.2 1.1 1 2 2.1 2 1.2 0 2-0.9 2.2-2 0.3 1.2 1.1 2 2.1 2 1.1 0 2-0.9 2.2-2 0.2 0.9 0.8 2 2.1 2 0.7 0 1.4-0.6 1.4-1.5 0-0.8-0.6-1.4-1.3-1.5zm0.9-4.4c-1.9-0.6-1.4-3.5 0.9-4.6 0.1 1.5 1.9 1.6 1.9 3.1 0 0.6-0.4 1.2-1 1.5 0.1-0.5-0.2-1.4-0.9-1.8-0.7 0.4-1.1 1.3-0.9 1.8zm14-0.1c-1.9-0.6-1.4-3.4 0.9-4.5 0.1 1.4 1.9 1.6 1.9 3 0 0.6-0.4 1.3-1 1.5 0.1-0.5-0.2-1.4-0.9-1.8-0.7 0.4-1.1 1.3-0.9 1.8zm-7-2c-1.9-0.6-1.4-3.4 0.9-4.5 0.1 1.4 1.9 1.6 1.9 3 0 0.6-0.4 1.3-1 1.5 0.1-0.5-0.2-1.4-0.9-1.8-0.7 0.4-1.1 1.3-0.9 1.8z"/>
</svg>