<svg version="1.2" xmlns="http://www.w3.org/2000/svg" viewBox="0 0 229 230" width="229" height="230">
	<title>finalize-svg</title>
	<style>
		tspan { white-space:pre } 
		.s0 { fill: #ffffff } 
	</style>
	<g id="Layer">
		<g id="Layer">
			<g id="Layer">
				<g id="Layer">
					<g id="Layer">
						<path id="Layer" class="s0" d="m162.9 73.5c-0.6-3.1-1.2-5.3-1.2-5.4v-0.9c-0.2 0.7-0.4 1.3-0.9 1.9q0 0.1-0.1 0.1c0.3 1.1 0.7 2.9 1.1 5.1 0.5 3 1 6.6 1 9.7 0 1.6-0.1 3-0.5 4q-0.2 0.8-0.6 1.3-0.3 0.4-0.8 0.5-0.1 0-0.1 0.1c-0.6 0.3-1.1 0.4-1.6 0.4q-1 0-2-0.5c-0.7-0.4-1.3-0.9-1.8-1.4-1.2-1.2-2-2.4-2.7-3.9-0.2-0.5-0.4-1.1-0.8-1.6q-0.2-0.5-0.6-0.9-0.4-0.4-0.9-0.6-0.5-0.2-0.9-0.2-0.6 0-1 0.2-0.7 0.3-1.2 0.7c-0.3 0.2-0.6 0.5-0.9 0.7-0.7 0.7-1.2 1.5-1.6 2.3-0.3 0.8-0.4 1.7-0.5 2.5 0 1 0 2-0.2 2.9q-0.1 0.6-0.4 1.2-0.2 0.6-0.7 1c-0.4 0.4-1 0.9-1.7 1.3-0.6 0.5-1.4 0.7-1.9 0.7q-0.5 0-0.9-0.2c-0.5-0.3-0.9-0.8-1.3-1.4-0.4-0.6-0.8-1.2-1.1-1.9-0.9-1.6-1.9-3.1-3.3-4.4-0.5-0.5-1-1-1.7-1.4-0.7-0.3-1.4-0.6-2.3-0.6q-0.1 0-0.2 0c-1.7 0-3.3 0.6-4.7 1.1-2 0.8-3.9 1.3-5.6 1.3-1.6 0-3.1-0.4-4.7-1.6-0.6-0.4-1.2-1-1.9-1.5-0.6-0.5-1.4-1-2.3-1.1q-0.6-0.2-1.1-0.2c-0.7 0-1.4 0.2-2.1 0.5-0.7 0.2-1.3 0.6-1.9 0.9-1.1 0.8-2 1.8-2.7 2.8-0.6 1.1-1.2 2.2-1.7 3.3-0.5 1-1.1 2.2-1.8 3.1-0.7 1-1.5 1.8-2.5 2.3-0.8 0.3-1.7 0.5-2.6 0.5q-0.9 0-1.8-0.2-1.2-0.2-2.1-0.6-0.9-0.4-1.6-1.2c-0.7-1-1.2-2.2-1.6-3.4-0.3-1.3-0.6-2.6-1-3.8-0.4-1-0.8-2.1-1.5-3-0.4-0.5-0.8-0.9-1.3-1.2q-0.8-0.4-1.8-0.6-0.5 0-0.9 0-1 0-1.9 0.2-1 0.3-1.8 0.9c-0.7 0.5-1.1 1.2-1.5 1.8-0.3 0.6-0.6 1.2-1 1.8-0.4 0.5-0.9 1-1.4 1.3q-0.9 0.6-2 0.6-0.1 0-0.3 0-0.3-0.1-0.6-0.2c-0.9-0.4-1.3-0.8-1.5-1.2-0.3-0.3-0.3-0.6-0.3-0.8q0-0.1 0-0.1v-0.1l2-17q-0.1-0.2-0.2-0.3c-0.4-0.6-0.7-1.2-0.8-1.9v0.9l-2.2 18.1c0 0.1 0 0.2 0 0.4 0 0.3 0.1 0.9 0.4 1.4 0.4 0.6 1 1.2 2.1 1.7h0.1q0.4 0.2 0.9 0.2 0.2 0 0.4 0c1 0 1.8-0.2 2.6-0.7 0.8-0.4 1.4-1 1.8-1.7 0.5-0.7 0.8-1.3 1.1-1.9 0.3-0.5 0.7-1 1.2-1.4 0.3-0.3 0.8-0.5 1.3-0.7 0.5-0.1 1.1-0.2 1.6-0.2q0.4 0 0.7 0.1 0.8 0.1 1.3 0.4c0.6 0.3 1.1 0.8 1.4 1.5 0.4 0.6 0.7 1.3 0.9 2 0.4 1.2 0.7 2.5 1.1 3.8 0.4 1.3 0.9 2.6 1.8 3.7 0.5 0.7 1.2 1.3 1.9 1.6 0.8 0.4 1.6 0.6 2.4 0.7q1 0.2 2.1 0.2c1 0 2.1-0.1 3.1-0.6 1.3-0.5 2.3-1.5 3-2.6 0.8-1.1 1.4-2.3 1.9-3.4 0.5-1 1-2.1 1.7-3.1 0.6-0.9 1.4-1.8 2.3-2.4 0.5-0.4 1.1-0.7 1.6-0.9q0.9-0.3 1.7-0.3 0.4 0 0.8 0.1c0.7 0.1 1.3 0.5 1.9 0.9 0.6 0.5 1.2 1 1.9 1.5 1.7 1.3 3.6 1.9 5.4 1.9 2 0 4-0.7 6.1-1.4 1.4-0.5 2.8-1.1 4.2-1.1q0.1 0 0.2 0c0.6 0 1.1 0.2 1.7 0.5 0.5 0.3 1 0.7 1.5 1.2 1.2 1.2 2.2 2.6 3 4.1 0.4 0.6 0.7 1.3 1.1 2 0.5 0.7 1 1.3 1.8 1.8 0.5 0.2 1 0.4 1.5 0.4 0.9 0 1.8-0.4 2.6-0.9 0.8-0.5 1.4-1 1.9-1.5q0.6-0.6 1-1.4c0.3-0.7 0.4-1.5 0.5-2.2 0.1-0.8 0.1-1.5 0.1-2.2 0.1-0.8 0.2-1.6 0.5-2.2 0.3-0.7 0.6-1.3 1.2-1.8 0.4-0.3 0.8-0.7 1.2-0.9q0.3-0.3 0.6-0.4 0.2-0.1 0.5-0.1 0.2 0 0.4 0.1 0.3 0.1 0.5 0.4c0.3 0.3 0.5 0.6 0.7 1 0.2 0.4 0.4 0.8 0.5 1.2 0.8 1.5 1.6 2.9 2.9 4.2 0.6 0.6 1.3 1.1 2.1 1.5 0.8 0.5 1.7 0.7 2.6 0.7 0.7 0 1.5-0.1 2.2-0.5v-0.1c0.5-0.1 0.9-0.4 1.3-0.8 0.5-0.7 0.8-1.6 1-2.6 0.3-1 0.3-2.2 0.3-3.4 0-3.4-0.6-7.4-1.1-10.5z"/>
						<path id="Layer" class="s0" d="m68.6 67.2h-0.7c0 1 0.4 2 1.1 2.9 1.2 1.7 3.2 3.1 6 4.4 4.2 1.9 9.9 3.5 16.8 4.6 6.8 1.1 14.7 1.7 23.2 1.7 12.8 0 24.5-1.4 32.9-3.8 4.3-1.2 7.7-2.6 10.2-4.3q1.8-1.2 2.8-2.6c0.7-0.9 1.1-1.9 1.1-2.9 0-1.1-0.4-2-1.1-3-1.2-1.6-3.2-3-6-4.3-4.1-1.9-9.9-3.5-16.7-4.6-6.9-1.1-14.8-1.7-23.2-1.7-12.9 0-24.6 1.4-33 3.8-4.3 1.2-7.7 2.6-10.1 4.2q-1.9 1.2-2.9 2.6c-0.7 1-1 1.9-1 3h1.2q0-1.2 0.8-2.3c1-1.4 2.9-2.7 5.5-4 4-1.8 9.7-3.4 16.5-4.5 6.7-1.1 14.6-1.7 23-1.7 12.7 0 24.3 1.5 32.6 3.8 4.2 1.2 7.5 2.6 9.8 4.1q1.7 1.1 2.5 2.3 0.9 1.1 0.9 2.3 0 1.1-0.9 2.3c-1 1.4-2.9 2.7-5.5 3.9-4 1.9-9.7 3.5-16.5 4.6-6.7 1-14.6 1.7-22.9 1.7-12.8 0-24.4-1.5-32.7-3.8-4.1-1.2-7.5-2.6-9.7-4.1q-1.7-1.1-2.6-2.3-0.8-1.2-0.8-2.3z"/>
					</g>
					<path id="Layer" class="s0" d="m160.8 91.1v8.4q0 1.1-0.9 2.3c-1 1.3-2.9 2.7-5.5 3.9-4 1.9-9.7 3.4-16.4 4.5-6.8 1.1-14.7 1.8-23 1.8-12.8 0-24.4-1.5-32.7-3.8-4.1-1.2-7.5-2.6-9.7-4.1q-1.8-1.2-2.6-2.3-0.8-1.2-0.8-2.3 0-0.7 0.3-1.5 0-0.1 0-0.2v-7.9l-1.2-0.2v8.1c-0.2 0.5-0.3 1.1-0.3 1.7 0 1 0.3 2 1 2.9 1.2 1.6 3.3 3.1 6 4.4 4.2 1.9 9.9 3.5 16.8 4.6 6.8 1.1 14.7 1.7 23.2 1.7 12.8 0 24.5-1.5 32.9-3.8 4.3-1.2 7.7-2.7 10.2-4.3q1.8-1.2 2.8-2.6c0.7-0.9 1.1-1.9 1.1-2.9v-8.9z"/>
				</g>
				<path id="Layer" class="s0" d="m191 151c-1.9-2.5-5.2-4.7-9.7-6.8v1.3c1.6 0.8 3.1 1.6 4.4 2.4q2.8 1.8 4.3 3.8 1.5 1.9 1.4 3.9 0.1 1.9-1.4 3.9c-1.7 2.2-4.9 4.5-9.4 6.4-6.7 3-16.1 5.6-27.4 7.3-11.2 1.8-24.3 2.8-38.2 2.8-21.3 0-40.5-2.3-54.4-6.1-6.9-1.9-12.5-4.2-16.3-6.6-1.9-1.3-3.4-2.5-4.4-3.8q-1.4-2-1.4-3.9 0-2 1.4-3.9c1.7-2.3 4.9-4.5 9.3-6.5v-1.2c-2.1 0.9-4 1.9-5.6 2.9-2 1.3-3.6 2.7-4.7 4.1-1 1.4-1.6 3-1.6 4.6 0 1.6 0.6 3.1 1.6 4.5 1.9 2.6 5.3 4.8 9.9 6.9 6.8 3.1 16.4 5.6 27.7 7.4 11.3 1.7 24.5 2.8 38.5 2.8 21.3 0 40.6-2.4 54.6-6.2 7.1-1.9 12.7-4.2 16.7-6.8q3-1.9 4.7-4.1c1.1-1.4 1.7-2.9 1.7-4.5 0-1.6-0.6-3.2-1.7-4.6z"/>
				<path id="Layer" class="s0" d="m180.6 148.2q0 1.7-1.2 3.4c-1.5 2-4.2 3.9-8 5.7-5.7 2.6-13.7 4.8-23.3 6.4-9.6 1.6-20.7 2.4-32.6 2.4-18.1 0-34.4-2-46.2-5.4-5.9-1.6-10.7-3.6-13.9-5.7q-2.5-1.7-3.7-3.4-1.2-1.7-1.2-3.4 0-1 0.4-2.1 0.1-0.1 0.1-0.2v-10.2l-1.2-0.3v10.4q-0.5 1.2-0.6 2.4c0 1.4 0.6 2.8 1.5 4.1 1.6 2.2 4.5 4.2 8.4 6 5.8 2.7 14 5 23.6 6.5 9.7 1.6 20.9 2.5 32.8 2.5 18.2 0 34.7-2.1 46.6-5.5 6-1.6 10.9-3.6 14.3-5.9 1.7-1.1 3-2.3 4-3.6 0.9-1.3 1.4-2.7 1.4-4.1v-12.4l-0.9 0.3c-0.2 6.9-0.3 12.1-0.3 12.1z"/>
				<path id="Layer" class="s0" d="m183.4 112.8c-0.8-4.2-1.5-7.3-1.6-7.6v-1.3c-0.2 0.8 0 6.4 0.6 10 0.8 4.2 1.5 9.4 1.5 13.7 0 2.3-0.2 4.4-0.7 5.9q-0.4 1.1-0.9 1.8-0.3 0.3-0.5 0.5-0.4 0.2-0.8 0.3 0 0.1-0.1 0.1c-0.8 0.5-1.6 0.6-2.4 0.6-1 0-2-0.3-3-0.8-0.9-0.5-1.8-1.2-2.6-2-1.6-1.6-2.8-3.4-3.8-5.5-0.3-0.7-0.6-1.5-1.1-2.3q-0.4-0.6-0.9-1.1-0.5-0.6-1.2-0.9-0.6-0.3-1.2-0.3-0.6 0.1-1.3 0.3c-0.6 0.2-1.1 0.6-1.6 0.9-0.5 0.4-0.9 0.8-1.2 1.1-1 0.9-1.7 2-2.2 3.1-0.4 1.1-0.6 2.3-0.7 3.6-0.1 1.3-0.1 2.7-0.3 4q-0.2 0.9-0.5 1.8-0.4 0.8-1.1 1.5c-0.6 0.6-1.5 1.3-2.5 1.9-0.9 0.6-2 1-2.9 1q-0.7 0-1.3-0.3c-0.8-0.5-1.4-1.2-2-2.1-0.6-0.8-1-1.8-1.5-2.7-1.3-2.2-2.7-4.3-4.6-6.2-0.7-0.7-1.5-1.3-2.4-1.9-0.9-0.5-1.9-0.8-3.1-0.9q-0.1 0-0.3 0c-2.3 0-4.5 0.9-6.5 1.6-2.9 1.1-5.5 1.9-8.1 1.9-2.3 0-4.5-0.6-6.8-2.4-0.8-0.6-1.7-1.4-2.6-2.1-1-0.7-2-1.3-3.3-1.6q-0.7-0.1-1.4-0.1c-1 0-2 0.2-2.9 0.6-1 0.3-1.8 0.8-2.6 1.3-1.6 1.1-2.8 2.4-3.7 3.9-1 1.5-1.8 3-2.5 4.6-0.8 1.5-1.5 3.1-2.5 4.5-1 1.4-2.2 2.6-3.7 3.3-1.2 0.5-2.5 0.7-3.8 0.7q-1.3 0-2.6-0.3c-1.1-0.2-2.1-0.4-3-0.9-0.9-0.4-1.7-1-2.3-1.8-1.1-1.4-1.8-3.1-2.3-4.9-0.5-1.7-0.9-3.6-1.5-5.3-0.5-1.4-1.1-2.9-2.1-4.2-0.5-0.6-1-1.1-1.8-1.6q-1-0.6-2.4-0.8-0.6-0.1-1.2-0.1c-0.9 0-1.8 0.2-2.7 0.4-0.9 0.3-1.7 0.7-2.4 1.2-0.9 0.7-1.5 1.6-2 2.4-0.5 0.9-1 1.8-1.5 2.6-0.5 0.8-1.2 1.5-2.1 2-0.9 0.5-1.8 0.8-2.9 0.8q-0.2 0-0.5 0-0.5-0.1-0.9-0.2c-1.2-0.6-1.9-1.3-2.3-1.8-0.3-0.6-0.4-1-0.4-1.3q0-0.2 0-0.3l0.1-0.1 2.8-24.7q-0.7-1.1-1-2.4v1.3l-3 25.7c-0.1 0.1-0.1 0.2-0.1 0.5 0 0.4 0.1 1.1 0.6 1.9 0.5 0.7 1.2 1.4 2.4 2.1q0.2 0.1 0.4 0.1l0.1 0.1q0.3 0.1 0.7 0.1 0.3 0.1 0.5 0.1 0.3 0 0.6 0c1.3 0 2.5-0.3 3.5-0.9 1.1-0.6 1.9-1.4 2.6-2.4 0.5-0.9 1-1.8 1.4-2.6 0.5-0.8 1.1-1.5 1.8-2.1 0.5-0.5 1.2-0.8 2-1 0.7-0.2 1.5-0.3 2.3-0.3q0.5 0 1 0.1 1.2 0.1 2 0.6c0.8 0.5 1.5 1.3 2 2.2 0.6 0.9 1 1.9 1.3 2.9 0.6 1.7 1 3.5 1.5 5.4 0.6 1.8 1.3 3.6 2.5 5.2 0.8 1 1.7 1.7 2.7 2.2 1.1 0.5 2.2 0.8 3.3 1q1.4 0.2 2.9 0.2c1.4 0 2.9-0.2 4.3-0.8 1.8-0.8 3.2-2.2 4.2-3.7 1.1-1.5 1.9-3.1 2.6-4.7 0.7-1.5 1.5-3 2.4-4.4 0.9-1.4 2-2.6 3.4-3.5 0.7-0.5 1.5-1 2.3-1.3q1.3-0.4 2.5-0.5 0.6 0 1.2 0.2c0.9 0.2 1.9 0.7 2.7 1.3 0.9 0.7 1.8 1.5 2.7 2.1 2.4 1.9 5 2.6 7.5 2.6 2.8 0 5.6-0.8 8.5-1.9 2.1-0.7 4.1-1.5 6.1-1.5q0.2 0 0.3 0c0.9 0 1.7 0.3 2.5 0.7 0.8 0.5 1.5 1.1 2.2 1.7 1.7 1.8 3.1 3.8 4.3 5.9 0.5 0.9 1 1.9 1.6 2.8 0.6 1 1.4 1.8 2.4 2.4 0.6 0.4 1.3 0.6 1.9 0.6 1.3-0.1 2.5-0.6 3.6-1.2 1.1-0.7 2-1.5 2.7-2.1 0.6-0.6 1-1.2 1.3-1.9 0.4-1 0.6-2.1 0.7-3.1 0.1-1.1 0.1-2.1 0.2-3.1 0.1-1.1 0.3-2.2 0.7-3.2 0.4-1 0.9-1.9 1.8-2.6v-0.1c0.5-0.4 1-0.9 1.6-1.3q0.5-0.3 0.9-0.4 0.5-0.2 0.8-0.2 0.4 0 0.7 0.1 0.5 0.3 0.9 0.7c0.3 0.3 0.7 0.8 1 1.4 0.2 0.5 0.5 1.1 0.7 1.7 1.1 2.1 2.3 4.1 4 5.8 0.9 0.9 1.9 1.7 3 2.2 1 0.6 2.2 1 3.5 1q1 0 2.1-0.4 0.5-0.2 0.9-0.4 1-0.4 1.7-1.2c0.8-0.9 1.2-2.1 1.5-3.5 0.3-1.4 0.4-3.1 0.4-4.9 0-4.7-0.8-10.3-1.7-14.8z"/>
				<path id="Layer" class="s0" d="m180.4 99.9c-1.7-2.3-4.6-4.3-8.5-6.1-2.8-1.3-6.1-2.5-9.9-3.5v1.1c5.8 1.7 10.5 3.7 13.7 5.8q2.4 1.6 3.7 3.3 1.2 1.7 1.2 3.4 0 1.7-1.2 3.4c-1.5 2-4.2 3.9-8 5.7-5.7 2.6-13.7 4.8-23.3 6.4-9.6 1.5-20.7 2.4-32.6 2.4-18.1 0-34.4-2-46.2-5.4-5.9-1.6-10.7-3.6-13.9-5.8q-2.5-1.6-3.7-3.3-1.2-1.7-1.2-3.4 0-1.7 1.2-3.4c1.4-2 4.1-3.9 7.9-5.7 2.5-1.1 5.5-2.1 8.7-3.1v-1.2c-5.7 1.6-10.3 3.6-13.6 5.7q-2.6 1.7-4 3.7c-0.9 1.2-1.5 2.6-1.5 4 0 1.4 0.6 2.8 1.5 4.1 1.6 2.2 4.5 4.2 8.4 6 5.8 2.7 14 4.9 23.6 6.5 9.7 1.6 20.9 2.5 32.8 2.5 18.2 0 34.7-2.1 46.6-5.5 6-1.7 10.9-3.7 14.3-5.9 1.7-1.2 3-2.4 4-3.6 0.9-1.3 1.4-2.7 1.4-4.1 0-1.4-0.5-2.8-1.4-4z"/>
			</g>
		</g>
	</g>
</svg>