<svg version="1.2" xmlns="http://www.w3.org/2000/svg" viewBox="0 0 229 228" width="229" height="228">
	<title>flavor-svg</title>
	<defs>
		<clipPath clipPathUnits="userSpaceOnUse" id="cp1">
			<path d="m30.52 44.02h164.12v136.21h-164.12z"/>
		</clipPath>
	</defs>
	<style>
		tspan { white-space:pre } 
		.s0 { fill: #ffffff } 
	</style>
	<g id="Layer">
		<g id="Layer">
			<g id="Clip-Path" clip-path="url(#cp1)">
				<g id="Layer">
					<path id="Layer" fill-rule="evenodd" class="s0" d="m193.9 90.4l-34.6 2.8q-0.4 0-0.8 0c-1 0-3.4-0.1-4.8-1.5l-0.2-0.2q0-0.1-0.2-0.1-0.1 0-0.2 0.1l-0.1 0.2-0.7 0.9-0.1 0.1q-0.1 0.1 0 0.3l0.1 0.1c2.5 4.1 3.1 7.7 1.6 10.5-0.8 1.4-2.3 2.4-3.7 2.4q-0.6 0-1.1-0.2l-0.3-0.1q0 0-0.1 0-0.1 0-0.2 0-0.1 0.1-0.1 0.3v0.2q0 2.8-0.6 5.4-0.7 2.5-2 4.8c-4.3 7.3-12.4 11.6-18.9 15l-60.1 31.9q0 0-0.1 0 0-0.1-0.1-0.1-0.1 0-0.2 0.1l-0.3 0.2-19.5 12.5c-2.1 1.4-4.7 3-7.6 3.4h-0.1q0 0-0.1 0.1-0.5 0.3-1 0.5-0.5 0.2-1.1 0.2c-2.2 0-4.1-2.1-4.8-2.9-0.5-0.5-1.1-1.3-1.2-2.2q-0.1-0.8 0.2-1.4 0.4-0.7 1.1-1 0.1-0.1 0.2-0.1h0.1q0.1 0 0.1-0.1c2.3-2.7 4.8-5.6 7.2-8.5q0 0 0 0v-0.1q0.7-0.9 1.4-1.8l6.6-7.8c1.8-2.3 3.4-4.4 4.9-6.4l0.3-0.4h0.1 0.1q0 0 0 0 0.2 0 0.3-0.1v-0.1l42.4-50.7c3.7-4.3 7.8-9.3 13.6-11.7q3.7-1.4 7.7-1.4c3.6 0 7.5 0.8 11.9 2.6l0.1 0.1q0.2 0 0.3 0 0.1-0.1 0.1-0.2l0.1-0.2q0.5-1.4 1.7-2.3c0.9-0.8 2-1.3 3-1.7v-0.1h0.1q0.1 0 0.1-0.1h0.1q0 0 0.1 0l0.1-0.1 0.3-0.1 0.4-0.2c1-0.5 2.2-1.1 3.4-1.1q0.3 0 0.6 0.1 0.9 0.1 1.7 0.6l0.2 0.1q0.1 0 0.1 0.1 0.1 0 0.2-0.1 0.1 0 0.1-0.2l0.1-0.2c2.6-9.3 5.8-20 11.4-29.5 1.6-2.8 3.9-6 7.4-6.8q0.6-0.2 1.2-0.2 1.3 0 2.6 0.6 1.2 0.5 2.1 1.5 0.7 0.8 1 1.7l0.1 0.2q0 0.1 0.1 0.2 0.1 0 0.2 0 0 0 0.1 0l0.2-0.1q0.8-0.3 1.7-0.3 0.1 0 0.2 0c2.1 0.1 4.1 1.3 5.1 3 1.1 2.1 1.2 4.8 0.2 7.6l-0.1 0.2q0 0.2 0 0.3 0.1 0.1 0.3 0.1h0.2c2.5 0.2 5 2.2 6.3 5 0.7 1.5 1.1 3.1 1.5 4.6 0.4 1.6 0.8 3.2 1.5 4.6 0.9 1.9 2.4 3.5 3.9 5.1v0.1q0.9 1 1.8 2.1c2.7 3.2 3.8 6.5 3.2 9.3zm-156.2 84.2c-0.9-0.7-2-0.9-2.7-0.9q-0.8 0-1.6 0.2-0.1 0-0.2 0.1v0.1h-0.1v0.1q-0.1 0.1-0.1 0.2v0.1c0.3 0.8 0.9 1.7 1.7 2.3q1.4 1 3.1 1h0.1q0.2 0 0.3-0.1v-0.2q0.1-0.2 0.2-0.4c0.2-0.9-0.1-1.9-0.7-2.5zm27.2-12.4v-0.1c-0.6-5.9-5.1-11.2-10.8-12.7h-0.1q-0.1-0.1-0.1-0.1-0.1 0-0.2 0.2h-0.1l-4.8 5.8c-2.3 2.9-4.9 6-7.9 9.6v0.1c-2.1 2.4-4 4.6-5.4 6.4l-0.3 0.2q-0.1 0.2 0 0.3 0.1 0.2 0.2 0.2h0.4c1.2 0.2 2.2 0.7 3 1.4 0.9 0.8 1.3 2.1 1.2 3.4v0.3q0 0.1 0.1 0.2 0.1 0.1 0.2 0.1 0 0 0.1 0l0.2-0.1c1.9-0.6 3.6-1.7 5.2-2.7l18.9-12.2h0.1q0.1-0.1 0.1-0.3zm81.1-60.9q0-0.1 0-0.1-0.8-1.9-2.1-3.7l-0.1-0.2q-0.1-0.1-0.3-0.1-0.1 0-0.2 0.1l-0.1 0.2c-6.1 8.9-9.5 13.5-20.4 19.6-11.8 6.7-23.3 14.8-34.3 22.6-7.2 5-14.5 10.2-21.9 14.9l-0.9-1.3c7.4-4.7 14.7-9.9 21.8-14.9 11.1-7.9 22.6-16 34.5-22.7 10.6-5.9 13.8-10.2 19.9-19.2l0.1-0.1 0.2-0.2q0 0 0.1-0.1l0.1-0.2q0.1-0.2 0-0.3-0.5-0.6-1-1.1-0.2-0.1-0.5-0.4 0 0 0 0-0.2-0.1-0.4-0.3c-2.3-1.3-5.8-3.4-9.4-5q0 0-0.1-0.1-0.5-0.1-1-0.2l-0.5-0.1-0.1-0.1v-0.1q0-0.2-0.1-0.2l-0.1-0.1c-4.6-1.9-8.6-2.8-12.2-2.8q-3.7 0-7.1 1.3c-5.4 2.2-9.4 7-13 11.3l-41.5 49.7-0.2 0.2q-0.1 0.1-0.1 0.3 0.1 0.1 0.2 0.2l0.3 0.1c5.5 1.9 9.8 7 10.8 12.8v0.2q0 0.2 0.1 0.3 0.2 0 0.3 0l0.2-0.2 59.2-31.3c6.3-3.3 14.2-7.5 18.2-14.4 2.5-4.2 3.1-9.6 1.6-14.3zm4.7-7.6q-3.7-6-9-10.5c-0.8-0.7-1.6-1.3-2.5-1.4q-0.2-0.1-0.4-0.1c-0.4 0-1 0.2-1.6 0.4l-0.4 0.2q-0.1 0.1-0.2 0.2 0 0.2 0.2 0.3l0.3 0.2q3.6 2.1 6.6 5.1 2.9 3 4.9 6.7l-1.4 0.8q-1.3-2.3-2.9-4.3v-0.1q0 0 0 0l-6-5.5q0 0 0 0v-0.1q-1.8-1.2-3.6-2.1h-0.1q-0.1-0.1-0.2-0.1 0 0-0.1 0.1h-0.1c-0.7 0.3-1.4 0.7-2 1.2q-0.9 0.7-1.3 1.8v0.2q-0.1 0.2 0.2 0.3l0.1 0.1 0.3 0.1h0.1v0.1q5.7 1.5 10.1 5.4 0 0 0 0c2.9 1.9 4.9 4.7 6 8.2v0.1q0.1 0.3 0.2 0.6l0.1 0.2c0.4 1 0.8 2 1.5 2.4q0.3 0.2 0.7 0.2c0.8 0 1.8-0.7 2.3-1.6 1.5-2.9-0.1-6.6-1.8-9.1zm38.9-12.2c-0.5-0.7-1.2-1.4-1.8-2.1-1.5-1.7-3.1-3.4-4.1-5.5-0.8-1.6-1.2-3.3-1.6-4.9-0.4-1.5-0.8-3-1.4-4.3q-0.8-1.7-2.3-2.9c-1-0.8-2-1.2-3-1.2q-0.7 0-1.3 0.3l-2.1 0.9 1.1-2.1c0.8-1.4 2.4-5.1 0.7-8.1-0.7-1.2-2.2-2.1-3.7-2.2q-0.1 0-0.2 0c-0.8 0-1.8 0.2-2.4 1.2l-3.5 5.1 2-5.8c0.5-1.2-0.2-2.2-0.6-2.7q-0.7-0.8-1.6-1.2-0.9-0.4-2-0.4-0.4 0-0.8 0.1c-2.9 0.7-4.9 3.6-6.4 6.1-5.6 9.6-8.9 20.6-11.5 30.1l-0.1 0.1q0 0.2 0.1 0.3l0.1 0.1q4.3 3.8 7.6 8.5l0.2 0.2q0.1 0.1 0.2 0.1 0.2 0 0.2-0.1l0.2-0.2 3.3-4.5-0.4 3.1q-0.1 0.6 0.3 1c0.7 0.7 2.1 1.1 3.8 1.1q0.3 0 0.6 0l33-2.7h0.1q0.3 0 0.3-0.3v-0.1c0.1-2.7-1.6-5.3-3-7z"/>
				</g>
			</g>
		</g>
	</g>
</svg>