<svg version="1.2" xmlns="http://www.w3.org/2000/svg" viewBox="0 0 250 251" width="250" height="251">
	<title>size-svg</title>
	<defs>
		<clipPath clipPathUnits="userSpaceOnUse" id="cp1">
			<path d="m37.85 39.54h174.77v174.41h-174.77z"/>
		</clipPath>
		<clipPath clipPathUnits="userSpaceOnUse" id="cp2">
			<path d="m131.03 16.43h59.25v89.96h-59.25z"/>
		</clipPath>
	</defs>
	<style>
		tspan { white-space:pre } 
		.s0 { fill: #ffffff } 
		.s1 { fill: #fdfeff } 
	</style>
	<g id="Layer">
		<g id="Layer">
			<g id="Clip-Path" clip-path="url(#cp1)">
				<g id="Layer">
					<path id="Layer" fill-rule="evenodd" class="s0" d="m211.9 138.3q0 0.5 0 0.9-0.1 0.1-0.2 0.1 0 0.5 0 0.9 0 0.1-0.1 0.2 0 0.3 0 0.7c-0.1 0.1-0.1 0.1-0.2 0.2 0 0.1 0 0.4 0 0.6q0 0-0.1 0.1c-0.1 0.1 0 0.3 0 0.4q0 0.2 0 0.4c-0.1 0-0.1 0.1-0.2 0.1q0 0.3 0 0.6c0 0.1-0.1 0.1-0.1 0.2q0 0.3 0 0.6-0.1 0.1-0.2 0.1 0 0.3 0 0.6 0 0.1-0.1 0.2 0 0.2 0 0.4-0.1 0.1-0.1 0.1c-0.1 0.2 0 0.4-0.1 0.5q0 0.1-0.1 0.2 0 0.3 0 0.6-0.1 0.1-0.2 0.1c-0.1 0.2 0.1 0.4-0.1 0.6-0.1 0.1 0 0.3 0 0.5q-0.1 0.1-0.2 0.1 0 0.2 0 0.3-0.1 0.1-0.1 0.2 0 0.2 0 0.4-0.1 0.1-0.2 0.2c0 0.1 0 0.3 0 0.4 0 0.1-0.1 0.2-0.1 0.2 0 0.2-0.1 0.3-0.2 0.5 0 0.1 0 0.3-0.1 0.4-0.1 0.1 0 0.3 0 0.4q-0.1 0.1-0.2 0.2 0 0.1 0 0.3-0.1 0.1-0.1 0.2 0 0.1 0 0.3-0.1 0-0.1 0.1c-0.2 0.1 0 0.3-0.2 0.4-0.1 0.1 0 0.4-0.1 0.5-0.2 0.1 0 0.3-0.2 0.4 0 0.2 0 0.4-0.2 0.5q0 0.1 0 0.3-0.1 0.1-0.1 0.2 0 0.1 0 0.3-0.1 0-0.2 0.1c0 0.1 0 0.2 0 0.2 0 0.1-0.1 0.2-0.1 0.3-0.1 0.1 0 0.2-0.1 0.3 0 0.1-0.1 0.1-0.1 0.2-0.2 0.2-0.1 0.4-0.2 0.5-0.1 0.2-0.1 0.4-0.2 0.5-0.1 0.1 0 0.2-0.1 0.4-0.2 0.1 0 0.4-0.2 0.5 0 0.2-0.3 0.3-0.2 0.5 0 0.1-0.1 0.2-0.1 0.3-0.1 0.1-0.1 0.3-0.2 0.4-0.2 0.1-0.1 0.3-0.2 0.4 0 0.2-0.2 0.3-0.2 0.4 0 0.3-0.2 0.5-0.3 0.8-0.1 0.2-0.2 0.4-0.3 0.6q-0.1 0.4-0.3 0.7-0.2 0.4-0.4 0.8c-0.1 0.3-0.2 0.5-0.4 0.7 0 0.4-0.2 0.7-0.3 0.9q-0.2 0.5-0.5 0.9c-0.1 0.3-0.3 0.6-0.4 0.9-0.1 0.2-0.2 0.3-0.3 0.5-0.2 0.4-0.4 0.8-0.6 1.1-0.1 0.2-0.2 0.5-0.4 0.7-0.1 0.1-0.2 0.4-0.3 0.6-0.2 0.3-0.3 0.5-0.5 0.8-0.1 0.1-0.1 0.4-0.3 0.6q-0.2 0.2-0.3 0.5c0 0.1-0.2 0.2-0.2 0.4 0 0-0.1 0.1-0.1 0.2-0.1 0.1-0.3 0.3-0.3 0.4 0 0.3-0.3 0.3-0.3 0.6 0 0.2-0.4 0.2-0.3 0.5-0.1 0-0.2 0.2-0.2 0.3-0.1 0.1-0.2 0.2-0.3 0.3 0 0.2-0.1 0.2-0.2 0.3-0.1 0.1-0.1 0.4-0.3 0.5-0.1 0.1-0.1 0.3-0.3 0.4-0.1 0.1-0.2 0.3-0.2 0.5-0.1 0.2-0.4 0.3-0.3 0.5-0.2 0.2-0.5 0.4-0.5 0.6-0.3 0.2-0.3 0.6-0.6 0.7 0 0.3-0.3 0.4-0.3 0.7-0.2 0.2-0.4 0.4-0.5 0.6-0.1 0.2-0.3 0.3-0.4 0.5 0 0.2-0.3 0.3-0.3 0.5 0 0.1-0.1 0.1-0.1 0.2-0.2 0.2-0.4 0.3-0.5 0.6-0.1 0.2-0.4 0.3-0.5 0.6q-0.2 0.2-0.5 0.5c0 0.1 0 0.1-0.1 0.2-0.1 0.2-0.4 0.4-0.5 0.7-0.2 0.3-0.5 0.4-0.6 0.6-0.1 0.3-0.3 0.5-0.6 0.7-0.2 0.2-0.3 0.6-0.5 0.8-0.3 0.1-0.5 0.4-0.7 0.6-0.2 0.5-0.7 0.8-1.1 1.3-0.2 0.2-0.6 0.4-0.6 0.7q-0.4 0.4-0.7 0.7-0.4 0.4-0.8 0.8-0.3 0.3-0.6 0.7-0.4 0.4-0.8 0.7c-0.2 0.2-0.4 0.5-0.7 0.7-0.3 0.1-0.5 0.4-0.8 0.7-0.2 0.2-0.4 0.4-0.7 0.6-0.1 0.1-0.3 0.2-0.4 0.3q-0.2 0.2-0.4 0.4-0.2 0.2-0.4 0.4c-0.1 0.2-0.4 0.2-0.5 0.4-0.1 0.1-0.3 0.3-0.4 0.4-0.4 0.1-0.5 0.5-0.8 0.6-0.4 0.2-0.6 0.5-0.8 0.7 0 0-0.1 0-0.2 0q-0.3 0.3-0.5 0.6c-0.3 0-0.4 0.3-0.6 0.4-0.3 0.1-0.4 0.4-0.7 0.4-0.2 0.1-0.3 0.3-0.5 0.5q-0.1 0-0.1 0c-0.2 0-0.3 0.3-0.5 0.3-0.1 0-0.2 0.1-0.3 0.2-0.1 0.1-0.2 0.3-0.4 0.3-0.1 0-0.2 0.2-0.4 0.3-0.1 0-0.2 0.2-0.4 0.3q-0.2 0-0.3 0.2c-0.1 0.1-0.2 0-0.3 0.1-0.1 0.3-0.4 0.2-0.5 0.4-0.1 0.2-0.4 0.2-0.5 0.3-0.1 0.2-0.4 0.2-0.5 0.4 0 0-0.1 0.1-0.2 0.1-0.1 0.1-0.3 0.1-0.4 0.2-0.1 0.2-0.3 0.2-0.4 0.3q-0.3 0.2-0.5 0.3c-0.2 0.1-0.3 0.1-0.4 0.3-0.1 0.1-0.3 0.1-0.4 0.2-0.1 0.1-0.3 0.1-0.4 0.2-0.1 0.2-0.3 0.2-0.4 0.3-0.3 0.1-0.5 0.2-0.7 0.4-0.1 0.1-0.3 0.1-0.4 0.2q-0.2 0.1-0.5 0.2c-0.2 0.1-0.4 0.3-0.5 0.4-0.2-0.1-0.3 0.2-0.5 0.1q-0.2 0.2-0.4 0.3c-1.4 0.6-2.7 1.4-4.1 2-0.1 0.2-0.3 0.1-0.5 0.2-0.1 0.1-0.3 0.1-0.4 0.2-0.2 0-0.3 0.2-0.4 0.2-0.2 0-0.3 0.2-0.5 0.3-0.1 0-0.2 0-0.3 0-0.1 0.2-0.3 0.1-0.4 0.2-0.1 0.1-0.2 0.1-0.3 0.2q-0.5 0.1-0.8 0.3c-0.3-0.1-0.4 0.2-0.6 0.2-0.1 0.2-0.4 0.1-0.6 0.2-0.1 0.2-0.3 0.3-0.5 0.3q-0.1 0-0.2 0c-0.3 0.3-0.8 0.2-1.1 0.5-0.2 0-0.4 0.2-0.6 0.2-0.1 0-0.1 0-0.2 0-0.1 0.3-0.4 0-0.5 0.3-0.2 0-0.3 0.2-0.6 0.2-0.1-0.1-0.2 0.2-0.4 0.1-0.2 0-0.2 0.2-0.4 0.2-0.1-0.1-0.2 0-0.3 0.1-0.2-0.1-0.4 0.2-0.6 0.1-0.2 0-0.3 0.2-0.5 0.2-0.2 0-0.3 0.3-0.5 0.2-0.2 0.1-0.3 0.2-0.5 0.1q-0.1 0.1-0.2 0.2-0.1 0-0.3 0-0.1 0-0.1 0.1-0.3 0-0.5 0c0 0.1-0.1 0.2-0.1 0.2-0.2-0.1-0.4 0-0.5 0.1-0.1 0.1-0.3 0-0.4 0.1-0.1 0.1-0.3 0.1-0.5 0.1q0 0-0.1 0.1-0.2 0-0.5 0-0.1 0.1-0.1 0.2-0.2 0-0.3 0-0.1 0-0.1 0.1c-0.2 0.1-0.4 0-0.5 0q-0.1 0.1-0.2 0.1-0.2 0.1-0.5 0.1c-0.1 0.2-0.4 0-0.5 0.3q-0.4 0-0.7 0 0 0.1-0.1 0.1-0.2 0-0.4 0-0.1 0.1-0.2 0.2-0.2 0-0.4 0-0.1 0-0.2 0.1-0.3 0-0.6 0-0.1 0.1-0.1 0.1-0.2 0-0.5 0c0 0.1-0.1 0.1-0.2 0.2-0.1 0-0.4 0-0.5 0-0.1 0.1-0.2 0.1-0.2 0.2q-0.3 0-0.6 0-0.1 0.1-0.2 0.1-0.3 0-0.7 0-0.1 0.1-0.1 0.1c-0.1 0-0.1 0.1-0.1 0.1q-0.3 0-0.6 0 0 0-0.1 0.1 0 0 0 0-0.4 0-0.8 0c0 0.1-0.1 0.1-0.1 0.2-0.3 0-0.5 0-0.8 0 0 0-0.1 0.1-0.1 0.1q-0.6 0-1.1 0-0.1 0.1-0.1 0.2-0.5 0-0.9 0-0.1 0-0.2 0.1-0.6 0-1.2 0-0.1 0.1-0.1 0.2-0.7 0-1.4 0 0 0-0.1 0.1 0 0-0.1 0-0.9 0-1.9 0-0.1 0.1-0.1 0.2-4.9 0-9.8 0-0.1-0.1-0.2-0.2c-0.6 0-1.2 0-1.8 0q-0.1-0.1-0.1-0.1-0.7 0-1.4 0-0.1-0.1-0.2-0.2-0.5 0-1.1 0-0.1-0.1-0.2-0.1-0.5 0-1.1 0 0-0.1-0.1-0.2c-0.3 0-0.6 0-0.9 0q-0.1 0-0.1-0.1-0.4 0-0.8 0c0-0.1-0.1-0.1-0.2-0.2q-0.3 0-0.7 0-0.1-0.1-0.2-0.1-0.3 0-0.7 0-0.1-0.1-0.2-0.2-0.3 0-0.6 0-0.1-0.1-0.1-0.1-0.3 0-0.6 0-0.1-0.1-0.2-0.2-0.3 0-0.6 0c0 0-0.1-0.1-0.1-0.1q-0.3 0-0.6 0-0.1-0.1-0.2-0.2c-0.1 0-0.3 0-0.4 0-0.1-0.1-0.1-0.1-0.2-0.1q-0.3 0-0.6 0-0.1-0.1-0.1-0.2-0.3 0-0.5 0 0 0-0.1-0.1c-0.2-0.1-0.3 0-0.5 0q-0.1-0.1-0.1-0.2c-0.1 0-0.3 0.1-0.4 0q-0.1 0-0.3-0.1-0.2 0-0.4-0.1c-0.1-0.2-0.5 0-0.6-0.2q-0.2 0-0.4 0-0.1-0.1-0.2-0.2-0.2 0-0.4 0-0.1-0.1-0.2-0.1-0.2 0-0.3 0-0.1-0.1-0.1-0.2c-0.1-0.1-0.3 0.1-0.4-0.1-0.1-0.1-0.3 0-0.4 0 0 0-0.2 0-0.2-0.1-0.1-0.2-0.4 0-0.5-0.2-0.1-0.1-0.2 0-0.4 0q0-0.1-0.1-0.2-0.2 0-0.3 0-0.1 0-0.2-0.1-0.1 0-0.3 0c0-0.1-0.1-0.2-0.1-0.2-0.2 0-0.4-0.1-0.5-0.1-0.1-0.1-0.3 0-0.4-0.2-0.1-0.1-0.4 0.1-0.4-0.1q-0.2 0-0.4 0 0-0.1-0.1-0.2-0.2 0-0.3 0-0.1 0-0.1-0.1c-0.2-0.1-0.4 0-0.5-0.2-0.1-0.1-0.3 0.1-0.4-0.1-0.1-0.1-0.3 0-0.5-0.1 0-0.1-0.2-0.2-0.4-0.2 0 0-0.1 0-0.2 0q-0.1-0.1-0.2-0.2-0.1 0-0.2 0c-0.2-0.1-0.4-0.1-0.4-0.2-0.2-0.2-0.5 0-0.6-0.2-0.2 0-0.3-0.2-0.5-0.2-0.1 0-0.2-0.1-0.3-0.1-0.2-0.1-0.2-0.3-0.4-0.2-0.2 0.1-0.3-0.2-0.5-0.2 0-0.1-0.2-0.1-0.3-0.1q-0.1 0-0.1 0c-0.1-0.2-0.3-0.1-0.4-0.2-0.1-0.1-0.2-0.1-0.4-0.2 0-0.1-0.2 0-0.4-0.1 0-0.1-0.2-0.1-0.3-0.2-0.2 0-0.2-0.2-0.4-0.2-0.1 0-0.2-0.2-0.4-0.2-0.2 0.1-0.2-0.1-0.4-0.1-0.1-0.2-0.3-0.1-0.4-0.2-0.1-0.1-0.3-0.2-0.4-0.2-0.1-0.1-0.3-0.1-0.4-0.2q-0.2-0.1-0.4-0.2c-0.1 0-0.3-0.1-0.4-0.1-0.1-0.2-0.3-0.1-0.4-0.3-0.2 0-0.3-0.2-0.5-0.2-0.1-0.1-0.2-0.1-0.3-0.2-0.2-0.1-0.3-0.1-0.5-0.2-0.1-0.1-0.2-0.1-0.3-0.1-0.1-0.1-0.1-0.2-0.2-0.2q-0.3-0.2-0.5-0.3c-0.4-0.2-0.9-0.4-1.3-0.6q-0.4-0.3-0.9-0.6c-0.2 0-0.4-0.1-0.5-0.2-0.2-0.1-0.3-0.3-0.5-0.3q-0.3-0.1-0.5-0.3c0-0.1-0.2-0.1-0.2-0.2q-0.3-0.1-0.6-0.3c-0.1-0.2-0.4-0.1-0.6-0.4-0.1-0.1-0.4-0.1-0.5-0.3-0.1-0.1-0.3-0.2-0.5-0.3-0.1-0.1-0.3-0.2-0.4-0.2-0.2-0.1-0.3-0.3-0.5-0.4-0.2 0-0.2-0.2-0.3-0.2-0.1-0.1-0.3-0.1-0.3-0.2-0.1-0.2-0.3-0.1-0.5-0.3 0-0.1-0.1-0.2-0.3-0.2-0.2 0-0.2-0.3-0.4-0.3-0.1 0-0.2-0.1-0.2-0.1-0.2-0.2-0.3-0.3-0.5-0.3-0.1-0.1-0.2-0.3-0.4-0.3 0 0-0.1-0.1-0.2-0.2-0.1-0.2-0.3-0.3-0.5-0.4-0.2-0.1-0.3-0.2-0.5-0.3-0.2-0.1-0.3-0.3-0.5-0.5-0.3 0.1-0.4-0.4-0.7-0.4q-0.3-0.3-0.6-0.6-0.1 0-0.2 0c-0.3-0.2-0.4-0.6-0.8-0.7q-0.3-0.3-0.7-0.7c0 0-0.1 0-0.2 0-0.1-0.1-0.2-0.3-0.4-0.4-0.1-0.2-0.3-0.4-0.5-0.5-0.2-0.1-0.3-0.2-0.4-0.3q-0.3-0.3-0.5-0.5-0.2-0.2-0.5-0.5 0 0-0.1 0 0 0-0.1 0-2.1-2.1-4.2-4.2-0.2-0.3-0.4-0.5c-0.2-0.1-0.3-0.2-0.4-0.4-0.1-0.2-0.2-0.3-0.4-0.5q-0.2-0.2-0.4-0.4-0.2-0.2-0.4-0.4 0-0.1 0-0.2c-0.2-0.2-0.4-0.4-0.6-0.5-0.2-0.2-0.3-0.5-0.5-0.7q-0.3-0.3-0.6-0.6 0 0 0-0.1-0.1-0.1-0.1-0.2-0.3-0.3-0.6-0.6c-0.1-0.3-0.5-0.4-0.5-0.7 0-0.1-0.1-0.1-0.2-0.2-0.1-0.2-0.3-0.3-0.5-0.6 0-0.2-0.3-0.3-0.4-0.6 0-0.1-0.2-0.2-0.3-0.3-0.1-0.1-0.1-0.3-0.2-0.4q-0.2-0.1-0.3-0.3c-0.1-0.1-0.1-0.2-0.2-0.3-0.1-0.2-0.2-0.4-0.4-0.5-0.1-0.2-0.2-0.4-0.3-0.6-0.2-0.1-0.3-0.3-0.4-0.5q-0.2-0.2-0.3-0.4c-0.1-0.2-0.2-0.3-0.3-0.5-0.1-0.1-0.2-0.2-0.3-0.4-0.1-0.2-0.3-0.2-0.3-0.4-0.2-0.2-0.2-0.4-0.4-0.6-0.2-0.2-0.2-0.4-0.3-0.6-0.1-0.2-0.2-0.3-0.3-0.4 0-0.2-0.4-0.3-0.3-0.5-0.2-0.1-0.1-0.4-0.3-0.5-0.2-0.1-0.2-0.4-0.4-0.5 0-0.2-0.2-0.3-0.2-0.5-0.1-0.2-0.4-0.3-0.3-0.5-0.2-0.2-0.2-0.5-0.4-0.7q-0.3-0.3-0.4-0.6c-0.4-0.4-0.5-0.9-0.7-1.3 0-0.3-0.4-0.3-0.3-0.6-0.2-0.1-0.2-0.3-0.3-0.5q-0.2-0.3-0.3-0.6-0.2-0.2-0.3-0.5-0.2-0.3-0.3-0.6-0.1-0.3-0.3-0.5c-0.5-1.1-1.1-2.2-1.6-3.3-0.1-0.1-0.1-0.3-0.1-0.4 0-0.1-0.2-0.3-0.2-0.4-0.1-0.1-0.1-0.3-0.2-0.4 0-0.3-0.2-0.5-0.3-0.7-0.1-0.1-0.2-0.3-0.2-0.4 0-0.3-0.1-0.4-0.2-0.6-0.1-0.1-0.1-0.3-0.3-0.4 0.1-0.2 0-0.3-0.1-0.5-0.1-0.1-0.2-0.2-0.1-0.3 0-0.3-0.2-0.3-0.2-0.5 0-0.1-0.1-0.1-0.1-0.2q0-0.1 0-0.3-0.1-0.1-0.2-0.1c0-0.1 0-0.2 0-0.3-0.1-0.2-0.3-0.4-0.3-0.6 0-0.2-0.2-0.4-0.2-0.7-0.2-0.1 0-0.4-0.2-0.5-0.1-0.2 0-0.3-0.2-0.4-0.1-0.1 0-0.3-0.1-0.4-0.1-0.1 0-0.3-0.2-0.5 0-0.2 0.1-0.4-0.1-0.5q0-0.3-0.2-0.6c0 0 0-0.1 0-0.2q-0.1-0.1-0.2-0.1 0-0.2 0-0.3 0-0.1-0.1-0.2 0-0.2 0-0.3-0.1-0.1-0.2-0.2 0-0.2 0-0.4c0 0-0.1-0.1-0.1-0.2 0-0.3-0.3-0.5-0.1-0.8q-0.1-0.1-0.2-0.2 0-0.1 0-0.3-0.1-0.1-0.2-0.2 0-0.2 0-0.4 0-0.1-0.1-0.1c-0.1-0.2 0-0.3 0-0.5q-0.1-0.1-0.1-0.1 0-0.2 0-0.5c-0.1 0-0.1-0.1-0.2-0.2-0.1-0.1 0.1-0.3-0.1-0.5-0.1-0.1 0-0.3-0.1-0.5q0-0.1-0.1-0.2 0-0.2 0-0.4-0.1-0.1-0.2-0.2 0-0.3 0-0.6 0 0-0.1-0.1 0-0.3 0-0.6c-0.1-0.1-0.1-0.1-0.2-0.2 0-0.1 0-0.4 0-0.6 0 0-0.1-0.1-0.1-0.1q0-0.3 0-0.6c-0.1-0.1-0.1-0.1-0.2-0.2 0-0.2 0-0.5 0-0.7q-0.1-0.1-0.1-0.2 0-0.3 0-0.7-0.1-0.1-0.2-0.2 0-0.3 0-0.7 0-0.1-0.1-0.2c0-0.3 0-0.7 0-1q-0.1-0.1-0.2-0.2c0-0.3 0-0.7 0-1 0-0.1-0.1-0.1-0.1-0.2q0-0.5 0-1-0.1-0.1-0.2-0.2 0-0.7 0-1.5-0.1-0.1-0.1-0.1 0-1 0-2-0.1-0.1-0.2-0.1 0-4.7 0-9.4 0.1 0 0.1-0.1 0.1 0 0.1 0 0-1 0-2 0 0 0.1-0.1 0-0.8 0-1.7 0.1 0 0.2-0.1 0-0.6 0-1.2c0-0.1 0.1-0.1 0.1-0.2q0-0.5 0-1 0.1-0.1 0.2-0.2 0-0.5 0-1 0.1-0.1 0.1-0.2 0-0.4 0-0.9c0.1 0 0.1-0.1 0.2-0.1 0-0.3 0-0.5 0-0.8q0 0 0.1-0.1 0-0.4 0-0.9 0.1-0.1 0.2-0.2c0-0.2 0-0.4 0-0.6q0.1-0.1 0.1-0.1 0-0.4 0-0.8 0.1-0.1 0.2-0.1 0-0.3 0-0.6 0.1-0.1 0.1-0.2 0-0.3 0-0.6 0.1 0 0.2-0.1 0-0.3 0-0.6c0-0.1 0.1-0.1 0.1-0.2q0-0.2 0-0.4 0.1-0.1 0.2-0.2 0-0.3 0-0.6 0.1-0.1 0.1-0.1 0-0.3 0-0.6 0.1-0.1 0.2-0.2 0-0.2 0-0.4 0.1-0.1 0.1-0.2 0-0.2 0-0.5 0.1 0 0.1-0.1c0.1-0.1 0-0.3 0.1-0.4q0-0.1 0.1-0.2 0-0.2 0.1-0.5c0.2-0.1 0-0.4 0.2-0.5q0-0.3 0-0.5 0.1-0.1 0.2-0.2 0-0.2 0-0.4 0.1-0.1 0.1-0.2 0-0.1 0-0.3 0.1 0 0.2-0.1 0-0.2 0-0.4c0-0.1 0.1-0.2 0.1-0.3 0.1-0.1 0-0.2 0.1-0.3 0.1-0.1 0.1-0.2 0.1-0.3 0-0.1 0.1-0.1 0.1-0.3q0-0.1 0-0.4 0.1 0 0.2-0.1 0-0.2 0-0.3 0.1-0.1 0.1-0.2 0-0.1 0-0.3c0.1 0 0.2-0.1 0.2-0.1 0-0.2 0.1-0.4 0.1-0.5 0.1-0.1 0-0.3 0.2-0.4 0.1-0.1 0-0.3 0.1-0.5 0.1-0.1 0-0.3 0.1-0.4 0.1 0 0.1-0.2 0.2-0.3 0.1-0.1 0-0.4 0.2-0.5-0.1-0.2 0.1-0.4 0.2-0.6 0-0.2 0.1-0.4 0.2-0.6 0.1-0.1 0-0.3 0.2-0.4 0-0.2 0.2-0.3 0.2-0.6-0.1-0.1 0.1-0.2 0.1-0.4 0-0.1 0.1-0.2 0.1-0.2 0-0.2 0.2-0.3 0.2-0.5 0.2-0.1 0.1-0.3 0.2-0.5 0.1-0.1 0.1-0.3 0.2-0.4 0-0.3 0.2-0.5 0.3-0.8 0.1-0.2 0.3-0.5 0.4-0.8 0-0.2 0.2-0.5 0.3-0.7q0.2-0.4 0.4-0.7c0.1-0.2 0.1-0.4 0.2-0.5 0.2-0.1 0-0.3 0.2-0.4 0.1-0.1 0.1-0.3 0.2-0.4 0.1-0.1 0.1-0.3 0.2-0.5 0.1-0.1 0.2-0.3 0.3-0.5 0.2-0.2 0.3-0.5 0.4-0.7q0.3-0.7 0.6-1.3c0.1-0.2 0.3-0.2 0.3-0.5 0.1-0.1 0.3-0.3 0.3-0.4 0-0.2 0.2-0.3 0.2-0.4 0-0.2 0.2-0.2 0.2-0.4 0.1-0.1 0.2-0.2 0.2-0.3 0-0.2 0.2-0.3 0.3-0.4 0-0.1 0-0.2 0.1-0.2q0.1-0.3 0.3-0.6c0.2-0.1 0.2-0.4 0.4-0.6 0.2-0.1 0.1-0.4 0.3-0.5 0.2-0.1 0.1-0.3 0.3-0.4 0.1-0.1 0.1-0.3 0.2-0.4 0.1-0.1 0.1-0.3 0.2-0.4 0.2 0 0.1-0.2 0.2-0.3 0.3-0.2 0.3-0.5 0.5-0.6 0.1-0.3 0.3-0.5 0.5-0.7 0-0.2 0.3-0.3 0.3-0.5 0.1-0.2 0.3-0.3 0.3-0.5q0 0 0-0.1c0.2-0.1 0.4-0.2 0.4-0.4q0.2-0.3 0.4-0.5c0.2-0.1 0.1-0.3 0.3-0.4q0.2-0.2 0.3-0.5c0.1-0.2 0.3-0.3 0.4-0.4 0-0.3 0.4-0.4 0.5-0.6 0-0.3 0.2-0.4 0.4-0.6 0.2-0.1 0.2-0.4 0.4-0.6 0.2-0.1 0.4-0.2 0.5-0.4 0.2-0.5 0.5-0.6 0.8-1q0 0 0-0.1 0.5-0.6 1.1-1.1 0-0.1 0-0.1 0.5-0.6 1-1.1c0.3-0.3 0.4-0.6 0.7-0.8 0.3-0.3 0.6-0.6 0.8-0.8q0.4-0.4 0.8-0.8 0.4-0.4 0.8-0.8 0.4-0.4 0.8-0.8 0.4-0.4 0.8-0.8c0.2-0.2 0.4-0.4 0.7-0.6 0.3-0.1 0.5-0.4 0.7-0.7q0.3-0.3 0.6-0.6c0.1-0.1 0.3-0.2 0.4-0.3q0.3-0.2 0.5-0.4 0.2-0.2 0.3-0.4c0.2-0.1 0.4-0.1 0.6-0.3 0.1-0.2 0.2-0.4 0.4-0.4 0.3-0.2 0.6-0.5 0.8-0.7 0.2-0.1 0.3-0.2 0.4-0.3q0.2-0.2 0.4-0.4c0.1-0.1 0.3-0.1 0.4-0.2q0.2-0.3 0.4-0.4 0.3-0.1 0.5-0.3c0.1-0.2 0.2-0.3 0.4-0.4 0.2-0.1 0.3-0.3 0.5-0.4 0.1-0.1 0.3-0.1 0.4-0.2 0.1-0.2 0.3-0.3 0.5-0.4 0.1-0.1 0.2-0.2 0.3-0.3 0.3 0 0.3-0.2 0.5-0.4 0.1 0 0.3-0.1 0.4-0.2 0.2-0.2 0.4-0.2 0.6-0.4 0.1-0.1 0.4-0.2 0.5-0.4 0.2-0.2 0.4-0.2 0.6-0.4 0.1-0.1 0.3-0.1 0.4-0.3 0.1-0.1 0.3 0 0.3-0.2 0.1-0.1 0.3-0.1 0.4-0.2 0.1-0.1 0.2-0.2 0.4-0.3 0.1 0 0.2-0.2 0.3-0.2 0.2-0.1 0.3-0.3 0.4-0.3 0.2-0.1 0.3-0.1 0.4-0.2q0.1-0.1 0.2-0.1c0.2-0.2 0.5-0.3 0.7-0.5 0.2-0.1 0.5-0.2 0.7-0.4 0.2 0 0.3-0.1 0.5-0.2 0.1-0.1 0.2-0.3 0.4-0.3 0.1-0.2 0.4-0.1 0.5-0.3 0-0.1 0.2-0.1 0.3-0.2q0.3-0.1 0.6-0.3c0.1-0.1 0.3-0.2 0.5-0.3q0.3-0.1 0.6-0.3c0.2-0.1 0.3-0.2 0.5-0.3 0.2 0 0.2-0.3 0.5-0.3 0.3-0.2 0.6-0.3 1-0.5q0.4-0.3 0.9-0.5c0.4-0.1 0.7-0.3 1.1-0.5 0.2 0 0.4-0.2 0.7-0.3 0.2 0 0.5-0.2 0.7-0.3 0.2-0.2 0.5-0.2 0.7-0.4 0.1-0.1 0.3 0 0.3-0.1 0.1-0.1 0.3 0 0.4-0.2 0.1 0 0.3 0 0.3-0.1 0.4 0 0.7-0.4 1.1-0.4 0.1 0 0.1-0.1 0.2-0.1 0.2 0 0.2-0.2 0.4-0.2 0.2 0.1 0.3-0.2 0.5-0.1 0.1-0.2 0.2-0.1 0.4-0.2 0 0 0.1-0.1 0.2-0.1 0.2 0 0.3-0.2 0.5-0.2 0.1 0 0.1 0 0.2-0.1q0.1 0 0.3 0 0.1-0.1 0.2-0.2 0.1 0 0.2 0c0.2-0.1 0.4-0.2 0.6-0.3 0.3 0 0.4-0.2 0.7-0.1 0.1-0.3 0.4-0.1 0.6-0.3 0.2 0.1 0.4-0.2 0.7-0.2 0.1 0 0.2-0.1 0.3-0.1 0.1 0 0.2 0 0.2-0.1q0.1 0 0.2-0.1c0.1 0 0.4 0.1 0.5-0.1q0.3 0 0.5-0.2c0.1 0 0.2 0 0.3 0q0 0 0.1-0.1 0.2 0 0.5 0 0.1-0.1 0.1-0.2 0.2 0 0.3 0 0.1 0 0.1-0.1c0.2-0.1 0.3 0 0.5 0q0.1-0.1 0.2-0.1 0.2-0.1 0.5-0.1c0.1-0.2 0.4 0 0.5-0.3q0.2 0 0.5 0 0.1 0 0.1-0.1 0.3 0 0.6 0 0.1-0.1 0.2-0.2 0.2 0 0.4 0 0.1 0 0.2-0.1 0.2 0 0.4 0 0.1 0 0.2-0.2c0.2 0 0.4 0 0.6 0q0.1 0 0.2-0.1 0.3 0 0.6 0 0-0.1 0.1-0.2 0.3 0 0.6 0 0.1 0 0.2-0.1 0.3 0 0.6 0 0-0.1 0.1-0.2 0.4 0 0.8 0c0 0 0 0 0.1-0.1q0.3 0 0.6 0c0.1-0.1 0.1-0.1 0.2-0.2q0.4 0 0.9 0 0.1 0 0.1-0.1 0.5 0 0.9 0 0.1-0.1 0.2-0.2 0.5 0 1 0 0.1 0 0.2-0.1 0.5 0 1 0 0.1-0.1 0.2-0.2c0.4 0 0.8 0.1 1.2 0q0 0 0.1-0.1 0.9 0 1.7 0c0-0.1 0.1-0.1 0.1-0.2q1.2 0 2.3 0 0.1-0.1 0.1-0.1 3 0 6 0 0 0 0 0.1 0 0 0 0 0 42.1 0 84.1 0 0 0 0.1c0 0 0 0 0.1 0.1 0.1-0.1 0.1-0.2 0.2-0.3 0-0.1 0-0.2 0.1-0.3 0.3-0.3 0.6-0.5 0.7-0.8 0.2-0.3 0.5-0.5 0.7-0.7 0-0.3 0.3-0.5 0.5-0.6 0.2-0.2 0.3-0.5 0.5-0.7q0.3-0.3 0.6-0.6c0.1-0.1 0.2-0.3 0.3-0.5q0.3-0.2 0.5-0.5c0 0 0-0.1 0-0.1 0.2-0.2 0.4-0.4 0.6-0.6 0.2-0.1 0.2-0.4 0.4-0.5 0.2-0.2 0.4-0.3 0.4-0.5 0.2-0.4 0.6-0.6 0.8-0.9 0.2-0.2 0.3-0.4 0.4-0.6 0.2-0.1 0.4-0.3 0.5-0.5 0.2-0.3 0.4-0.5 0.7-0.8 0.2-0.1 0.2-0.4 0.4-0.5 0.1-0.1 0.4-0.3 0.4-0.5 0.1-0.3 0.4-0.5 0.6-0.7 0.2-0.2 0.3-0.5 0.5-0.7q0.3-0.2 0.6-0.5c0.1-0.5 0.5-0.7 0.8-1 0 0 0-0.1 0-0.1q0.2-0.2 0.4-0.4 0.2-0.2 0.3-0.4c0-0.2 0.2-0.3 0.4-0.5 0.1-0.1 0.3-0.2 0.3-0.3 0.2-0.4 0.5-0.7 0.8-1 0.2-0.1 0.2-0.4 0.4-0.5 0.2-0.1 0.4-0.3 0.5-0.5 0.1-0.3 0.4-0.5 0.7-0.8 0.1-0.2 0.1-0.4 0.3-0.5 0.2-0.1 0.4-0.3 0.5-0.5 0.1-0.3 0.4-0.5 0.7-0.8 0.1-0.1 0.1-0.3 0.2-0.4q0.2-0.2 0.4-0.3 0.1-0.2 0.3-0.4c0.1-0.2 0.2-0.4 0.3-0.5q0.3-0.2 0.5-0.4c0.1-0.2 0.2-0.4 0.3-0.5q0.3-0.3 0.5-0.5c0 0 0-0.1 0-0.2 0.2-0.1 0.4-0.3 0.6-0.5 0.2-0.2 0.2-0.5 0.4-0.6 0.2-0.2 0.5-0.4 0.6-0.6 0.2-0.3 0.5-0.6 0.7-0.8 0.2-0.2 0.2-0.4 0.4-0.6 0.1-0.1 0.3-0.2 0.4-0.4 0.2-0.3 0.4-0.6 0.7-0.8 0.2-0.2 0.2-0.4 0.4-0.6 0.1-0.1 0.4-0.2 0.4-0.4 0.2-0.4 0.4-0.5 0.6-0.8 0.1-0.1 0.3-0.2 0.4-0.3 0-0.3 0.2-0.4 0.3-0.5 0.1-0.1 0.3-0.2 0.4-0.4 0.1-0.4 0.5-0.6 0.8-0.9 0-0.1 0-0.1 0-0.2q0.2-0.1 0.3-0.3 0.2-0.2 0.4-0.4c0-0.2 0.2-0.3 0.3-0.4 0.1-0.2 0.3-0.3 0.4-0.5 0.2-0.4 0.6-0.6 0.8-0.9 0.2-0.2 0.3-0.4 0.4-0.5 0.2-0.2 0.4-0.3 0.5-0.5 0.1-0.4 0.4-0.6 0.7-0.8 0.1-0.2 0.1-0.4 0.3-0.6 0.2-0.1 0.4-0.2 0.5-0.4 0.2-0.4 0.5-0.7 0.8-0.9 0.2-0.2 0.2-0.5 0.4-0.6 0.2-0.2 0.4-0.3 0.5-0.5 0.1-0.4 0.5-0.6 0.8-1q0 0 0-0.1 0.4-0.4 0.7-0.7 0-0.1 0-0.2c0.2-0.2 0.4-0.4 0.6-0.5 0.2-0.2 0.2-0.5 0.4-0.7 0.2-0.1 0.5-0.3 0.6-0.5 0.2-0.4 0.5-0.6 0.7-0.9 0.2-0.1 0.2-0.4 0.4-0.5 0.1-0.1 0.3-0.3 0.4-0.4 0.2-0.4 0.5-0.6 0.7-0.9 0.1-0.1 0.2-0.3 0.3-0.4q0.1-0.2 0.3-0.3c0.1-0.1 0.3-0.2 0.3-0.4 0.2-0.3 0.6-0.6 0.8-0.9 0.2-0.3 0.5-0.6 0.7-0.9 0.2-0.1 0.2-0.3 0.4-0.5q0.3-0.2 0.5-0.5c0 0 0-0.1 0-0.1q0.3-0.3 0.5-0.5c0.3-0.2 0.3-0.5 0.5-0.7 0.2-0.1 0.5-0.3 0.6-0.6 0.2-0.3 0.4-0.5 0.7-0.8 0.1-0.2 0.2-0.4 0.4-0.5 0.1-0.1 0.3-0.3 0.4-0.5 0.1-0.3 0.4-0.5 0.7-0.8 0.1-0.1 0.1-0.3 0.2-0.4q0.2-0.2 0.4-0.3c0.1-0.1 0.3-0.2 0.3-0.4 0.2-0.4 0.5-0.6 0.7-0.8 0.2-0.2 0.2-0.4 0.4-0.6 0.2-0.1 0.4-0.2 0.5-0.4 0.1-0.5 0.5-0.7 0.8-1q0-0.1 0-0.1 0.4-0.4 0.7-0.8 0-0.1 0-0.1 0.5-0.5 0.9-0.9 0-0.1 0-0.2 0.3-0.3 0.6-0.6c0.1-0.1 0.3-0.3 0.4-0.5 0.1-0.2 0.4-0.3 0.5-0.5 0.1-0.3 0.4-0.5 0.6-0.8 0.2-0.1 0.3-0.4 0.5-0.6 0.2-0.1 0.4-0.3 0.5-0.5 0.2-0.4 0.5-0.6 0.8-0.9 0.1-0.3 0.3-0.5 0.6-0.8q0.1 0 0.2 0c0.4 0.2 0.5 0.7 1 0.8q0.4 0.4 0.8 0.8 0.1 0.1 0.2 0.1 0.6 0.6 1.2 1.2 0.1 0 0.1 0 1 0.9 1.8 1.8c0.1 0 0.2 0 0.2 0q1.5 1.4 3 2.9c0.2 0.2 0.3 0.5 0.5 0.7 0.3 0.2 0.5 0.5 0.7 0.7q0.4 0.4 0.7 0.7 0 0.1 0 0.2 0.6 0.5 1.1 1c0 0.3 0.3 0.4 0.4 0.6 0.2 0.2 0.3 0.3 0.5 0.5q0 0.1 0 0.1 0.4 0.4 0.7 0.8 0 0 0 0.1 0.3 0.3 0.6 0.6c0.1 0.3 0.4 0.4 0.4 0.6 0.2 0.3 0.4 0.5 0.6 0.7 0.1 0.1 0.1 0.3 0.3 0.4q0.2 0.2 0.3 0.4c0 0.2 0.2 0.3 0.3 0.4 0.1 0.1 0.1 0.3 0.2 0.4 0.2 0.1 0.2 0.3 0.3 0.4 0.1 0.1 0.3 0.2 0.3 0.3 0.1 0.2 0.2 0.3 0.3 0.4 0.1 0.2 0.1 0.4 0.3 0.5 0.1 0 0 0.2 0.2 0.3 0.2 0.1 0.1 0.3 0.3 0.4 0.1 0.1 0.2 0.2 0.2 0.4 0.2 0.2 0.3 0.4 0.4 0.6 0.2 0.2 0.3 0.5 0.5 0.6-0.1 0.2 0.2 0.3 0.2 0.4 0.1 0.2 0.2 0.3 0.4 0.5-0.1 0.2 0.2 0.3 0.1 0.4q0.2 0.2 0.3 0.4c0.1 0.1 0.1 0.3 0.2 0.4 0.1 0.1 0.3 0.2 0.3 0.4 0 0.1 0.2 0.2 0.1 0.4 0.3 0.2 0.4 0.6 0.6 0.9 0 0.2 0.3 0.3 0.3 0.5 0.2 0.4 0.4 0.8 0.6 1.2 0.1 0.2 0.2 0.4 0.4 0.6 0.1 0.1 0.2 0.4 0.3 0.5 0.1 0.2 0.2 0.5 0.3 0.7 0.2 0.2 0.3 0.5 0.4 0.8 0.1 0.2 0.2 0.4 0.3 0.7 0.2 0 0.1 0.3 0.2 0.4 0.1 0.1 0.1 0.3 0.2 0.4 0 0.2 0.2 0.3 0.2 0.5 0 0.1 0.2 0.3 0.3 0.4 0 0.4 0.3 0.8 0.4 1.2 0.1 0.1 0.2 0.2 0.2 0.3 0 0.2 0.1 0.4 0.2 0.5 0.1 0.1 0.1 0.3 0.1 0.4 0 0.1 0.2 0.2 0.1 0.3 0.2 0.1 0.2 0.4 0.3 0.5q0 0.3 0.2 0.5c-0.1 0.2 0.1 0.3 0.2 0.5 0.1 0.2 0 0.4 0.1 0.5 0.1 0.1 0.1 0.4 0.3 0.4-0.1 0.3 0.2 0.4 0.1 0.7 0 0.1 0.3 0.2 0.2 0.4-0.1 0.2 0.2 0.3 0.2 0.5-0.1 0.1 0.1 0.3 0.1 0.4q0.1 0.1 0.1 0.1 0 0.2 0 0.3 0.1 0.1 0.2 0.2 0 0.1 0 0.3 0.1 0.1 0.1 0.1 0 0.2 0 0.4c0.1 0.1 0.2 0.2 0.2 0.3 0 0.2 0.1 0.3 0.1 0.4 0.1 0.1 0 0.3 0.1 0.4 0.2 0.1 0.1 0.2 0.1 0.4q0.1 0 0.2 0.1 0 0.1 0 0.3 0 0.1 0.1 0.2 0 0.2 0 0.4 0.1 0.1 0.2 0.2 0 0.1 0 0.2 0 0.1 0.1 0.2c0 0.1 0 0.2 0 0.3 0 0.2 0.1 0.3 0.1 0.4 0.1 0.2 0.1 0.3 0.2 0.3q0 0.3 0 0.5 0.1 0.1 0.2 0.2 0 0.2 0 0.4 0 0 0.1 0.1c0.1 0.2 0 0.3 0 0.5q0.1 0.1 0.1 0.1c0.1 0.2 0 0.3 0.1 0.5q0 0 0.1 0.2c0 0 0 0.2 0 0.3 0 0.1 0.1 0.2 0.2 0.3q0 0.2 0 0.4 0 0.1 0.1 0.2 0 0.2 0 0.5 0.1 0.1 0.2 0.2 0 0.2 0 0.5 0 0 0.1 0.1c0 0.2 0 0.4 0 0.6 0 0.1 0.1 0.1 0.2 0.2q0 0.3 0 0.5c0 0.1 0 0.1 0.1 0.2 0 0.2 0 0.4 0 0.6 0.1 0.1 0.1 0.1 0.2 0.2q0 0.3 0 0.6 0.1 0.1 0.1 0.1 0 0.4 0 0.8 0.1 0 0.2 0.1 0 0.4 0 0.8 0 0 0.1 0.1 0 0 0 0 0 0.4 0 0.8c0.1 0 0.1 0.1 0.2 0.1 0 0.3 0 0.6 0 0.9 0 0.1 0.1 0.1 0.1 0.2 0 0.3 0 0.6 0 0.9q0.1 0.1 0.2 0.1 0 0.5 0 1.1 0 0 0.1 0.1 0 0.6 0 1.2 0.1 0.1 0.2 0.2 0 0.7 0 1.3 0 0.1 0.1 0.1 0 0.1 0 0.1 0 0.8 0 1.6c0.1 0.1 0.1 0.1 0.2 0.2q0 1.3 0 2.7 0 0.1 0.1 0.1 0 3.2 0 6.4-0.1 0-0.1 0.1 0 1.3 0 2.7-0.1 0.1-0.2 0.2 0 0.7 0 1.5-0.1 0-0.1 0.1 0 0.7 0 1.4-0.1 0-0.2 0.1c0 0.2 0 0.4 0 0.6q0 0.3 0 0.6c0 0-0.1 0.1-0.1 0.2zm-161.1 30.1c0.3-0.1 0.6-0.2 0.8-0.4 0.1-0.1 0.4-0.2 0.6-0.3 0.1-0.1 0.3-0.2 0.4-0.3 0.4-0.4 1-0.4 1.3-0.8 0.4-0.1 0.8-0.3 1-0.6q0.4-0.1 0.7-0.3c0.1-0.2 0.4-0.2 0.6-0.4 0.1 0 0.2 0 0.3-0.1 0.2-0.2 0.4-0.3 0.6-0.4 0.2-0.1 0.5-0.2 0.6-0.3 0.1-0.2 0.3-0.1 0.4-0.3q0.4-0.1 0.7-0.4c0.1-0.1 0.2-0.1 0.3-0.1 0.1-0.1 0.3-0.1 0.4-0.3 0-0.1 0.2-0.1 0.2-0.1 0.3-0.2 0.7-0.3 0.9-0.6 0.2 0 0.4-0.2 0.6-0.2q0.2-0.1 0.4-0.3c0.2-0.1 0.4-0.2 0.5-0.3 0.2-0.1 0.4-0.1 0.6-0.3 0.1-0.2 0.4-0.2 0.6-0.3 0.4-0.4 0.9-0.5 1.3-0.9 0.1 0 0.3-0.1 0.4-0.1 0.1 0 0.2-0.1 0.3-0.2 0.1 0 0.2-0.2 0.3-0.3 0.2 0.1 0.3-0.1 0.4-0.1 0.1 0 0.2-0.1 0.3-0.2 0.2 0 0.2-0.2 0.4-0.2 0.1 0 0.2-0.2 0.3-0.2q0.1 0 0.2-0.1c0.2-0.2 0.4-0.3 0.6-0.4q0.3-0.1 0.5-0.2c0.1-0.1 0.1-0.2 0.3-0.2 0.1 0 0.2-0.2 0.3-0.2 0.1-0.1 0.3-0.1 0.4-0.2 0.3-0.3 0.8-0.3 1-0.7 0.2 0.1 0.3-0.1 0.5-0.2 0.1 0 0.3-0.1 0.4-0.2 0.1-0.2 0.3-0.2 0.4-0.3 0.1-0.1 0.3-0.2 0.5-0.2 0.4-0.4 1-0.4 1.4-0.9 0.2 0 0.4-0.1 0.6-0.3 0.2-0.2 0.4-0.2 0.7-0.4 0.1-0.1 0.3-0.1 0.4-0.2 0.1-0.2 0.3-0.1 0.3-0.3 0.2 0.1 0.3-0.2 0.5-0.1 0 0 0.1-0.1 0.1-0.1 0.1-0.2 0.4-0.3 0.5-0.4 0.3-0.1 0.5-0.2 0.7-0.4 0.1 0 0.2-0.1 0.3-0.1 0.1-0.1 0.3-0.1 0.4-0.2 0-0.1 0.2-0.1 0.3-0.2 0.3-0.2 0.7-0.3 0.9-0.6 0.2 0 0.4-0.2 0.7-0.3 0.2-0.1 0.4-0.3 0.6-0.4 0.2 0.1 0.3-0.3 0.5-0.2 0.2-0.2 0.5-0.4 0.8-0.5 0.2-0.2 0.5-0.3 0.8-0.5 0.1-0.1 0.3-0.1 0.4-0.3 0.1-0.1 0.3 0 0.4-0.2 0.2 0.1 0.2-0.2 0.4-0.1 0.1 0 0.1-0.1 0.1-0.1 0.2-0.2 0.4-0.3 0.6-0.4 0.1-0.1 0.3-0.1 0.5-0.2 0.2-0.2 0.5-0.3 0.7-0.5 0.3-0.2 0.6-0.3 0.8-0.5 0.1 0 0.2 0 0.2 0q0.2-0.2 0.5-0.4c0.2 0 0.3-0.1 0.5-0.2 0.2-0.1 0.2-0.3 0.5-0.3 0.2-0.2 0.5-0.2 0.7-0.4 0.2-0.2 0.5-0.2 0.7-0.4q0.3-0.2 0.7-0.4 0.3-0.2 0.7-0.4 0.2-0.2 0.5-0.3c0.2-0.1 0.3-0.2 0.4-0.3 0.2-0.1 0.3-0.1 0.5-0.2 0.1-0.1 0.2-0.2 0.3-0.3 0.2 0.1 0.3-0.2 0.5-0.1 0.2-0.2 0.4-0.4 0.6-0.5 0.2-0.1 0.5-0.3 0.7-0.3 0.1 0 0.1-0.1 0.1-0.1 0.2-0.2 0.4-0.2 0.6-0.3q0.2-0.2 0.5-0.3c0.1 0 0.1-0.2 0.3-0.2 0.1 0 0.2-0.1 0.3-0.2 0.2 0 0.2-0.2 0.4-0.2q0.1-0.1 0.4-0.2c0.1 0 0.1-0.1 0.3-0.2 0.1 0 0.2-0.2 0.3-0.2 0.3-0.1 0.5-0.3 0.8-0.4 0.2-0.2 0.5-0.3 0.7-0.5 0.2 0 0.3-0.1 0.5-0.2 0.1-0.1 0.3-0.3 0.4-0.3 0.2 0 0.3-0.3 0.4-0.3 0.2 0 0.3-0.2 0.4-0.2 0.2 0 0.3-0.1 0.4-0.1 0.1-0.1 0.2-0.3 0.4-0.3 0.1 0 0.2-0.2 0.3-0.2q0.4-0.2 0.7-0.4 0.3-0.2 0.7-0.3c0.3-0.3 0.6-0.4 0.9-0.6 0.2-0.2 0.6-0.3 0.8-0.5 0.1 0 0.2 0 0.2-0.1 0.1-0.1 0.4-0.2 0.6-0.3 0.2-0.1 0.4-0.2 0.6-0.4 0.1-0.1 0.3-0.2 0.4-0.2 0.3 0 0.3-0.3 0.5-0.3 0.3-0.2 0.7-0.3 1-0.6 0.3 0 0.5-0.2 0.7-0.4 0.3-0.1 0.5-0.3 0.8-0.4 0.2-0.1 0.4-0.3 0.6-0.4 0.3-0.2 0.5-0.2 0.7-0.5 0.3 0 0.6-0.3 0.9-0.3 0.2-0.3 0.5-0.3 0.8-0.6 0 0 0.2 0 0.2 0 0.2-0.2 0.4-0.3 0.7-0.4q0.2-0.1 0.4-0.3c0.1 0 0.2-0.2 0.3-0.2q0.2-0.1 0.4-0.1c0.1-0.1 0.2-0.3 0.3-0.3 0.4-0.2 0.7-0.3 1-0.6 0.3-0.1 0.5-0.3 0.8-0.4 0.2-0.2 0.5-0.3 0.8-0.4 0.1-0.1 0.3-0.1 0.4-0.3 0.1-0.2 0.3-0.2 0.5-0.3 0.2 0 0.2-0.2 0.4-0.3 0.3-0.1 0.5-0.2 0.8-0.4 0.2-0.2 0.6-0.2 0.8-0.5 0.3 0.1 0.3-0.3 0.6-0.3 0.1 0 0.3-0.1 0.4-0.2 0.1-0.2 0.3-0.2 0.5-0.3q0-0.1 0.1-0.2c-0.3-0.1-0.6 0-0.8 0q-0.1-0.1-0.2-0.2c-0.2 0-0.4 0-0.6 0q-0.1-0.1-0.2-0.1-0.4 0-0.7 0-0.1-0.1-0.1-0.2-0.4 0-0.7 0 0-0.1-0.1-0.1-0.4 0-0.7 0-0.1-0.1-0.2-0.2-0.4 0-0.7 0-0.1-0.1-0.2-0.1-0.4 0-0.8 0c0-0.1 0-0.1-0.1-0.2q-0.3 0-0.6 0-0.1-0.1-0.2-0.2-0.4 0-0.7 0-0.1 0-0.2-0.1c-0.2 0-0.5 0-0.7 0q-0.1-0.1-0.2-0.1-0.2 0-0.5 0 0 0-0.1-0.1-0.1 0-0.1-0.1-0.4 0-0.8 0 0-0.1-0.1-0.1-0.3 0-0.6 0-0.1-0.1-0.2-0.2-0.3 0-0.7 0c-0.1 0-0.1-0.1-0.2-0.1q-0.4 0-0.7 0c-0.1-0.1-0.1-0.1-0.2-0.2q-0.4 0-0.7 0-0.1-0.1-0.2-0.1-0.2 0-0.5 0-0.1-0.1-0.1-0.1-0.1 0-0.1-0.1-0.4 0-0.8 0 0 0-0.1-0.1-0.3 0-0.6 0c-0.1-0.1-0.1-0.1-0.2-0.2q-0.4 0-0.7 0c-0.1-0.1-0.1-0.1-0.2-0.2q-0.4 0-0.7 0c-0.1 0-0.1 0-0.2-0.1q-0.4 0-0.7 0-0.1-0.1-0.2-0.1-0.3 0-0.6 0-0.1-0.1-0.2-0.2-0.3 0-0.7 0-0.1 0-0.1-0.1-0.3 0-0.6 0c-0.1-0.1-0.1-0.1-0.2-0.2q-0.4 0-0.8 0c0-0.1-0.1-0.1-0.1-0.2q-0.4 0-0.8 0-0.1 0-0.1-0.1-0.4 0-0.7 0-0.1-0.1-0.2-0.1-0.3 0-0.6 0-0.1-0.1-0.2-0.2-0.4 0-0.7 0c-0.1 0-0.1-0.1-0.2-0.1q-0.3 0-0.7 0c-0.1-0.1-0.1-0.1-0.2-0.2q-0.3 0-0.6 0c0-0.1-0.1-0.1-0.1-0.2-0.3 0-0.5 0-0.8 0 0 0-0.1 0-0.2-0.1q-0.3 0-0.7 0-0.1-0.1-0.1-0.1-0.3 0-0.6 0-0.1-0.1-0.2-0.2-0.4 0-0.7 0-0.1-0.1-0.2-0.1-0.4 0-0.7 0c-0.1-0.1-0.1-0.1-0.2-0.2q-0.4 0-0.8 0c0-0.1 0-0.1-0.1-0.2-0.2 0-0.4 0-0.6 0q-0.1 0-0.2-0.1c-0.2 0-0.5 0-0.7 0q-0.1-0.1-0.2-0.1-0.2 0-0.6 0 0-0.1-0.1-0.2-0.4 0-0.8 0 0 0-0.1-0.1c-0.2 0-0.5 0-0.7 0-0.1-0.1-0.2-0.1-0.2-0.2q-0.4 0-0.8 0c0-0.1-0.1-0.1-0.1-0.2q-0.3 0-0.6 0-0.1 0-0.2-0.1-0.3 0-0.7 0-0.1-0.1-0.2-0.1-0.3 0-0.6 0-0.1-0.1-0.1-0.2-0.4 0-0.8 0 0-0.1-0.1-0.1c-0.3 0-0.5 0-0.8 0q-0.1-0.1-0.1-0.2-0.3 0-0.6 0c-0.1-0.1-0.1-0.1-0.2-0.2q-0.4 0-0.7 0-0.1 0-0.2-0.1-0.4 0-0.7 0-0.1-0.1-0.2-0.1-0.3 0-0.6 0-0.1-0.1-0.2-0.2-0.3 0-0.7 0-0.1-0.1-0.1-0.1-0.4 0-0.8 0c-0.1-0.1-0.1-0.1-0.1-0.2q-0.4 0-0.6 0c-0.1-0.1-0.1-0.1-0.2-0.2q-0.4 0-0.8 0c0 0-0.1-0.1-0.1-0.1q-0.4 0-0.8 0-0.1-0.1-0.1-0.2-0.4 0-0.8 0 0 0-0.1-0.1-0.3 0-0.6 0-0.1-0.1-0.2-0.1-0.3 0-0.7 0c-0.1-0.1-0.1-0.1-0.2-0.2q-0.3 0-0.6 0-0.1-0.1-0.1-0.2-0.4 0-0.8 0-0.1 0-0.1-0.1c-0.3 0-0.6 0-0.8 0q-0.1-0.1-0.1-0.2-0.4 0-0.8 0-0.1 0-0.1-0.1-0.3 0-0.6 0c-0.1-0.1-0.1-0.1-0.2-0.1-0.2 0-0.5 0-0.7 0-0.1-0.1-0.1-0.1-0.2-0.2q-0.3 0-0.6 0-0.1-0.1-0.1-0.1c-0.3-0.1-0.6 0-0.8-0.1q-0.1-0.1-0.1-0.1c-0.3 0-0.6 0-0.8 0q-0.1-0.1-0.1-0.2-0.4 0-0.8 0-0.1 0-0.2-0.1-0.3 0-0.6 0 0-0.1-0.1-0.2-0.4 0-0.8 0c0 0 0 0-0.1-0.1q-0.3 0-0.6 0-0.1-0.1-0.1-0.1c-0.3-0.1-0.6 0-0.8-0.1q-0.1-0.1-0.2-0.1c-0.2 0-0.5 0-0.7 0q-0.1-0.1-0.2-0.2-0.3 0-0.7 0-0.1 0-0.2-0.1-0.3 0-0.6 0 0-0.1-0.1-0.1-0.4 0-0.8 0c0-0.1-0.1-0.2-0.1-0.2q-0.4 0-0.8 0-0.1-0.1-0.1-0.2-0.3 0-0.6 0-0.1-0.1-0.2-0.1c-0.2 0-0.5 0-0.8 0q0-0.1-0.1-0.2-0.4 0-0.7 0-0.1 0-0.2-0.1-0.3 0-0.6 0-0.1-0.1-0.1-0.2-0.4 0-0.8 0-0.1 0-0.2-0.1-0.3 0-0.7 0c-0.1-0.1-0.1-0.1-0.2-0.2-0.2 0-0.4 0-0.6 0q-0.1-0.1-0.1-0.1-0.4 0-0.7 0-0.1-0.1-0.2-0.2-0.4 0-0.8 0 0 0-0.1-0.1-0.3 0-0.6 0-0.1-0.1-0.2-0.2-0.3 0-0.7 0c-0.1 0-0.1-0.1-0.2-0.1q-0.4 0-0.7 0-0.1-0.1-0.2-0.2-0.3 0-0.6 0-0.1-0.1-0.1-0.1-0.4 0-0.8 0-0.1-0.1-0.1-0.2-0.4 0-0.8 0-0.1 0-0.2-0.1 0 0.2 0 0.4-0.1 0.1-0.2 0.1 0 0.4 0 0.8 0 0-0.1 0.1 0 0.5 0 0.9-0.1 0.1-0.1 0.2 0 0.4 0 0.9c-0.1 0-0.1 0.1-0.2 0.1q0 0.5 0 1.1c-0.1 0-0.1 0.1-0.2 0.1q0 0.7 0 1.4-0.1 0.1-0.1 0.1c0 0.5 0 1.1 0 1.5q-0.1 0.1-0.2 0.2 0 1 0 1.9 0 0.1-0.1 0.2 0 1.8 0 3.6-0.1 0.1-0.2 0.1 0 1.1 0 2.2c0.1 0 0.1 0 0.2 0.1q0 1.8 0 3.6 0.1 0.1 0.1 0.2 0 0.9 0 1.9 0.1 0.1 0.2 0.1c0 0.5 0 1 0 1.4q0.1 0.1 0.1 0.2 0 0.6 0 1.2 0.1 0 0.2 0.1 0 0.6 0 1.1 0.1 0.1 0.2 0.1 0 0.5 0 0.9c0 0.1 0 0.1 0.1 0.2q0 0.3 0 0.7c0.1 0.1 0.1 0.1 0.2 0.2q0 0.4 0 0.7c0 0.1 0.1 0.1 0.1 0.2q0 0.3 0 0.6 0.1 0.1 0.1 0.1 0 0.4 0 0.8 0.1 0.1 0.2 0.1 0 0.3 0 0.6 0.1 0.1 0.2 0.2 0 0.2 0 0.4 0 0.1 0.1 0.2 0 0.3 0 0.6c0.1 0.1 0.1 0.1 0.2 0.2q0 0.2 0 0.4c0 0.1 0.1 0.1 0.1 0.2q0 0.2 0 0.4 0.1 0.1 0.2 0.1 0 0.3 0 0.5 0 0.1 0.1 0.2 0 0.2 0 0.4 0.1 0.1 0.2 0.2 0 0.2 0 0.4 0 0.1 0.1 0.2c-0.1 0.3 0.2 0.6 0.2 0.9 0 0 0.1 0.1 0.1 0.1q0 0.2 0 0.4 0.1 0.1 0.2 0.2 0 0.1 0 0.3 0 0.1 0.1 0.2 0 0.1 0 0.2 0.1 0.1 0.1 0.2c0 0.2 0 0.4 0.1 0.5 0.1 0.1 0.1 0.2 0.1 0.4 0.1 0.1 0.2 0.2 0.2 0.4 0 0.1 0.1 0.1 0.1 0.2q0 0.1 0 0.3 0.1 0.1 0.2 0.2 0 0.1 0 0.2 0 0.1 0.1 0.2c-0.1 0.3 0.2 0.4 0.2 0.6 0 0.1 0 0.2 0 0.2 0.1 0.2 0.2 0.3 0.2 0.5 0 0.2 0.2 0.3 0.2 0.4 0 0.2 0.2 0.3 0.1 0.5 0 0.2 0.2 0.3 0.2 0.4 0.1 0.2 0.2 0.3 0.2 0.5 0.1 0.2 0.1 0.4 0.1 0.5 0.1 0.2 0.2 0.3 0.3 0.5 0.1 0.1 0 0.2 0.1 0.4 0.1 0.1 0.1 0.3 0.2 0.4 0.1 0.1 0.2 0.2 0.2 0.2-0.1 0.3 0.1 0.4 0.1 0.6 0.2 0.1 0.1 0.4 0.2 0.5 0.1 0.1 0.1 0.2 0.2 0.3 0.1 0.1 0 0.3 0.2 0.4 0.1 0.1 0 0.2 0.1 0.3 0.1 0.1 0 0.3 0.1 0.4 0.1 0.2 0.2 0.3 0.3 0.5q0.1 0.2 0.3 0.5c0.1 0.2 0.1 0.4 0.2 0.5 0.1 0.2 0.1 0.4 0.2 0.6 0.3 0.5 0.5 1 0.8 1.5q0.1 0.3 0.3 0.6 0 0.1 0.1 0.3c0 0 0 0.1 0 0.1 0.1 0.1 0.3 0.2 0.3 0.4 0.2 0.2 0.2 0.4 0.3 0.6 0.2 0.3 0.3 0.6 0.5 0.9q0.3 0.4 0.5 0.9 0.1 0 0.1 0.1zm11.4-99.4c0 0.3-0.2 0.4-0.4 0.5-0.2 0.2-0.4 0.4-0.5 0.6q-0.3 0.2-0.6 0.5 0 0.1 0 0.1-0.5 0.6-1 1.1 0 0.1 0 0.2c-0.2 0.1-0.4 0.3-0.5 0.4-0.2 0.2-0.4 0.3-0.4 0.6q-0.3 0.3-0.6 0.6 0 0.1 0 0.2c-0.2 0.2-0.5 0.4-0.6 0.6-0.2 0.3-0.5 0.5-0.6 0.8 0 0 0 0 0 0.1-0.2 0.2-0.5 0.4-0.6 0.7 0 0.1-0.3 0.2-0.3 0.4-0.1 0.2-0.3 0.3-0.4 0.4-0.1 0.1-0.1 0.4-0.3 0.5-0.1 0.1-0.1 0.4-0.3 0.4-0.2 0.1-0.2 0.4-0.4 0.6-0.1 0.1-0.2 0.3-0.3 0.5-0.2 0.2-0.2 0.4-0.4 0.5 0 0.2-0.2 0.3-0.3 0.4-0.1 0.1 0 0.3-0.2 0.4-0.2 0.1-0.1 0.3-0.3 0.4-0.1 0.1-0.1 0.3-0.2 0.4-0.2 0.1-0.2 0.4-0.4 0.5-0.2 0.2-0.2 0.4-0.3 0.6 0 0 0 0.1-0.1 0.1-0.3 0.3-0.3 0.8-0.7 1 0 0.2-0.1 0.5-0.3 0.6-0.2 0.2-0.2 0.5-0.4 0.7 0 0.2-0.2 0.3-0.3 0.5q-0.1 0.2-0.2 0.5c-0.2 0.3-0.2 0.5-0.4 0.7 0.1 0.3-0.3 0.3-0.3 0.6-0.1 0.2-0.2 0.4-0.4 0.6q-0.1 0.4-0.3 0.7-0.2 0.4-0.4 0.7c-0.1 0.2-0.2 0.4-0.3 0.7-0.2 0.1 0 0.4-0.2 0.6-0.1 0.2-0.3 0.5-0.4 0.7-0.1 0.3-0.3 0.5-0.3 0.8-0.1 0.2-0.2 0.4-0.3 0.6-0.1 0.2-0.2 0.3-0.3 0.5 0 0.3-0.1 0.4-0.2 0.6 0 0.1-0.1 0.1-0.1 0.2 0.1 0.2-0.2 0.3-0.1 0.5-0.3 0.1-0.1 0.4-0.2 0.6-0.2 0.1-0.3 0.3-0.3 0.6 0 0.2-0.2 0.3-0.3 0.5q0 0.1 0 0.3-0.1 0.1-0.1 0.1c0 0.2 0 0.3-0.1 0.5-0.1 0-0.2 0.2-0.2 0.3 0 0.2-0.1 0.3-0.2 0.5 0 0.1 0 0.3-0.1 0.4q0 0.1 0 0.3-0.1 0.1-0.2 0.1 0 0.2 0 0.3-0.1 0.1-0.1 0.2c0 0.2-0.1 0.3-0.2 0.5 0 0.1 0 0.2-0.1 0.4-0.1 0.1 0 0.3-0.2 0.4 0 0.2 0.1 0.4-0.1 0.5q0 0.1 0 0.3-0.1 0.1-0.2 0.1 0 0.3 0 0.5-0.1 0.1-0.1 0.2 0 0.1 0 0.2-0.1 0.1-0.2 0.2c0.2 0.3-0.2 0.6-0.2 0.9 0.1 0 0 0.1-0.1 0.2q0 0.2 0 0.4-0.1 0.1-0.1 0.1 0 0.2 0 0.3-0.1 0.1-0.2 0.2 0 0.2 0 0.4-0.1 0.1-0.1 0.2 0 0.2 0 0.4-0.1 0.1-0.2 0.2 0 0.2 0 0.4c0 0.1-0.2 0.2-0.1 0.3q0 0.2 0 0.3-0.1 0.1-0.2 0.2c0 0.2 0 0.4 0 0.6q-0.1 0.1-0.1 0.2 0 0.2 0 0.4-0.1 0.1-0.2 0.2 0 0.3 0 0.6-0.1 0-0.2 0.1 0 0.3 0 0.6 0 0.1-0.1 0.1 0 0.4 0 0.7c0 0-0.1 0-0.1 0.1q0 0.3 0 0.6-0.1 0.1-0.1 0.1 0.1 0.2 0.1 0.3 0.3 0 0.5 0c0 0 0.1 0.1 0.1 0.1q0.4 0 0.8 0 0.1 0.1 0.1 0.2 0.4 0 0.8 0 0.1 0.1 0.1 0.1 0.3 0 0.6 0 0.1 0.1 0.2 0.2 0.4 0 0.8 0 0 0 0.1 0.1c0.2 0 0.5 0 0.7 0 0.1 0.1 0.1 0.1 0.2 0.2q0.3 0 0.6 0c0.1 0.1 0.1 0.1 0.2 0.1q0.3 0 0.7 0 0.1 0.1 0.2 0.2 0.3 0 0.7 0 0.1 0.1 0.2 0.1 0.3 0 0.6 0 0 0.1 0.1 0.2 0.4 0 0.8 0 0 0 0.1 0.1c0.2 0 0.5 0 0.8 0 0 0.1 0.1 0.1 0.1 0.2q0.4 0 0.8 0c0 0 0.1 0.1 0.1 0.1q0.3 0 0.6 0 0.1 0.1 0.2 0.2 0.3 0 0.7 0 0.1 0.1 0.2 0.1 0.3 0 0.6 0 0.1 0.1 0.1 0.2 0.4 0 0.8 0c0 0 0.1 0.1 0.1 0.1q0.4 0 0.8 0c0 0.1 0.1 0.1 0.1 0.2q0.3 0 0.6 0 0.1 0.1 0.2 0.1c0.2 0.1 0.5 0 0.8 0.1q0 0 0.1 0.1 0.4 0 0.7 0 0.1 0.1 0.2 0.1 0.3 0 0.6 0 0.1 0.1 0.2 0.2 0.3 0 0.7 0 0.1 0 0.1 0.1 0.4 0 0.8 0c0.1 0.1 0.1 0.1 0.2 0.2 0.1 0 0.4 0 0.6 0q0.1 0.1 0.1 0.1c0.3 0.1 0.5 0 0.8 0.1q0 0 0.1 0.1 0.4 0 0.8 0 0 0.1 0.1 0.1 0.3 0 0.6 0 0.1 0.1 0.2 0.2 0.4 0 0.7 0 0.1 0.1 0.2 0.1c0.2 0 0.5 0 0.7 0 0.1 0.1 0.1 0.1 0.2 0.2q0.3 0 0.6 0 0.1 0.1 0.1 0.1c0.3 0.1 0.6 0 0.8 0.1q0.1 0 0.1 0.1 0.4 0 0.8 0 0.1 0.1 0.1 0.1 0.4 0 0.8 0 0.1 0.1 0.2 0.2 0.3 0 0.6 0c0 0 0 0.1 0.1 0.1q0.4 0 0.7 0 0.2 0.1 0.2 0.2 0.3 0 0.6 0 0.1 0.1 0.1 0.1c0.3 0.1 0.6 0 0.8 0.1q0.1 0 0.1 0.1 0.4 0 0.8 0 0.1 0.1 0.2 0.2 0.3 0 0.7 0 0.1 0 0.1 0.1c0.2 0 0.5 0 0.6 0 0.1 0 0.1 0.1 0.2 0.1q0.4 0 0.8 0c0 0.1 0.1 0.1 0.1 0.2q0.3 0 0.6 0 0.1 0.1 0.2 0.1c0.2 0.1 0.5 0 0.7 0.1q0.1 0 0.2 0.1 0.3 0 0.7 0 0.1 0.1 0.2 0.2 0.4 0 0.7 0 0.1 0 0.2 0.1 0.3 0 0.6 0c0 0.1 0.1 0.1 0.1 0.1q0.4 0 0.8 0c0 0.1 0.1 0.1 0.1 0.2 0.2 0 0.4 0 0.6 0 0.1 0.1 0.1 0.1 0.2 0.2 0.2 0 0.5 0 0.8 0q0 0.1 0.1 0.1 0.4 0 0.7 0 0.1 0.1 0.2 0.2 0.4 0 0.7 0 0.1 0 0.2 0.1c0.2 0 0.4 0 0.6 0 0.1 0.1 0.1 0.1 0.2 0.1q0.3 0 0.7 0c0.1 0.1 0.1 0.1 0.2 0.2q0.3 0 0.7 0c0.1 0.1 0.1 0.1 0.2 0.2 0.2 0 0.4 0 0.6 0q0.1 0.1 0.1 0.1 0.4 0 0.7 0 0.1 0.1 0.2 0.2 0.4 0 0.8 0 0 0 0.1 0.1 0.3 0 0.6 0c0.1 0.1 0.1 0.1 0.2 0.2 0.2 0 0.5 0 0.7 0 0.1 0 0.1 0.1 0.2 0.1 0.2 0 0.5 0 0.7 0 0.1 0.1 0.1 0.1 0.2 0.2q0.3 0 0.6 0c0.1 0 0.1 0.1 0.1 0.1q0.4 0 0.8 0 0.1 0.1 0.1 0.2 0.3 0 0.6 0c0.1 0 0.1 0 0.2 0.1q0.4 0 0.7 0c0.1 0.1 0.1 0.1 0.2 0.2q0.4 0 0.7 0c0.1 0 0.1 0.1 0.2 0.1q0.4 0 0.8 0c0 0.1 0 0.1 0.1 0.2q0.3 0 0.6 0 0.1 0.1 0.1 0.1 0.4 0 0.8 0 0.1 0.1 0.2 0.2 0.3 0 0.6 0 0 0 0.1 0.1 0.4 0 0.7 0c0.1 0.1 0.1 0.1 0.2 0.2q0.4 0 0.8 0c0 0 0.1 0.1 0.1 0.1q0.4 0 0.8 0c0 0.1 0.1 0.1 0.1 0.2q0.3 0 0.6 0 0.1 0.1 0.2 0.1 0.3 0 0.7 0 0.1 0.1 0.2 0.2 0.4 0 0.7 0 0.1 0 0.2 0.1 0.3 0 0.6 0 0 0.1 0.1 0.2 0.4 0 0.8 0c0 0 0.1 0.1 0.1 0.1 0.3 0 0.6 0 0.8 0q0.1 0.1 0.1 0.2c0.2 0 0.5-0.1 0.7 0q0 0.1 0.1 0.1 0.4 0 0.7 0 0.1 0.1 0.2 0.2 0.4 0 0.7 0 0.1 0 0.2 0.1 0.4 0 0.7 0c0.1 0.1 0.1 0.1 0.2 0.2 0.2 0 0.4 0 0.6 0q0.1 0.1 0.1 0.1c0.3 0 0.6 0 0.8 0q0.1 0.1 0.1 0.2c0.3 0 0.5-0.1 0.7 0 0 0 0.1 0.1 0.1 0.1q0.4 0 0.8 0 0 0.1 0.1 0.2 0.4 0 0.8 0 0 0.1 0.1 0.1 0.3 0 0.6 0 0.1 0.1 0.2 0.2 0.3 0 0.7 0 0.1 0.1 0.1 0.1c0.3 0 0.6 0 0.8 0q0.1 0.1 0.2 0.2c0.2 0 0.4-0.1 0.6 0 0.1 0 0.1 0.1 0.1 0.1q0.4 0 0.8 0 0.1 0.1 0.1 0.2 0.4 0 0.8 0c0 0 0.1 0 0.1 0.1 0.2 0 0.4 0 0.6 0 0.3 0.2 0.3 0.2 0.4 0q-0.1-0.2-0.3-0.3c-0.1-0.2-0.3-0.2-0.3-0.4 0-0.2-0.2-0.3-0.3-0.4-0.1-0.2-0.4-0.3-0.5-0.6-0.1-0.2-0.3-0.4-0.5-0.5-0.2-0.2-0.2-0.4-0.4-0.6-0.3-0.3-0.6-0.6-0.8-0.9-0.1-0.2-0.3-0.4-0.4-0.5-0.2-0.1-0.2-0.3-0.4-0.5-0.2-0.3-0.5-0.5-0.7-0.8-0.1-0.2-0.3-0.4-0.5-0.5-0.2-0.2-0.2-0.4-0.3-0.5-0.2-0.2-0.4-0.4-0.6-0.6 0-0.2-0.1-0.3-0.2-0.4q-0.2-0.2-0.4-0.4-0.2-0.1-0.3-0.3c0 0 0-0.1 0-0.1-0.2-0.2-0.4-0.4-0.6-0.6-0.2-0.1-0.2-0.4-0.4-0.5-0.2-0.3-0.5-0.5-0.6-0.8-0.1-0.2-0.3-0.3-0.4-0.4-0.3-0.2-0.3-0.5-0.5-0.6-0.3-0.3-0.6-0.6-0.8-1-0.1-0.1-0.2-0.3-0.4-0.4-0.2-0.1-0.2-0.4-0.4-0.5-0.2-0.3-0.5-0.5-0.7-0.9-0.1-0.1-0.3-0.3-0.4-0.4-0.2-0.2-0.2-0.4-0.4-0.6-0.2-0.1-0.4-0.4-0.6-0.5q0-0.1 0-0.1c-0.2-0.4-0.6-0.7-0.9-1q0-0.1-0.1-0.2-0.3-0.3-0.6-0.6c0-0.1 0-0.2-0.1-0.3-0.2-0.2-0.4-0.4-0.7-0.7-0.1-0.4-0.4-0.5-0.6-0.8-0.1 0-0.1 0-0.1-0.1-0.1-0.3-0.3-0.4-0.5-0.6-0.2-0.2-0.3-0.5-0.5-0.6-0.3-0.3-0.6-0.6-0.8-1-0.1-0.2-0.3-0.3-0.4-0.4-0.2-0.1-0.2-0.4-0.4-0.5-0.2-0.3-0.5-0.5-0.7-0.9-0.1-0.1-0.3-0.3-0.4-0.4-0.2-0.1-0.2-0.4-0.4-0.5q-0.2-0.3-0.5-0.5c-0.2-0.2-0.3-0.5-0.4-0.6q-0.3-0.3-0.6-0.6 0 0 0 0 0-0.1 0-0.1c-0.3-0.4-0.7-0.6-0.8-1-0.1-0.2-0.3-0.3-0.4-0.4-0.1-0.1-0.3-0.2-0.3-0.4-0.1-0.2-0.3-0.3-0.4-0.4-0.2-0.3-0.5-0.4-0.6-0.8-0.1-0.1-0.3-0.3-0.5-0.4-0.2-0.2-0.2-0.4-0.3-0.6-0.3-0.2-0.6-0.5-0.7-0.8-0.1-0.2-0.3-0.3-0.5-0.5-0.1-0.1-0.2-0.3-0.4-0.5-0.2-0.3-0.5-0.5-0.6-0.8-0.1-0.2-0.4-0.4-0.6-0.6-0.2-0.1-0.3-0.4-0.5-0.6-0.2-0.2-0.3-0.4-0.5-0.5q0-0.1 0-0.2c-0.2-0.2-0.3-0.4-0.5-0.5-0.2-0.2-0.3-0.4-0.5-0.6-0.2-0.2-0.4-0.4-0.6-0.7 0-0.2-0.2-0.4-0.4-0.5-0.2-0.1-0.3-0.4-0.4-0.6-0.3-0.3-0.7-0.5-0.9-0.9 0-0.2-0.2-0.3-0.4-0.4-0.2-0.2-0.2-0.4-0.3-0.6-0.3-0.2-0.6-0.5-0.8-0.8 0-0.2-0.2-0.4-0.4-0.5-0.2-0.1-0.2-0.4-0.4-0.5q-0.3-0.3-0.6-0.6c0.1-0.2-0.1-0.3-0.2-0.4q-0.2-0.2-0.4-0.3-0.1-0.2-0.3-0.3c0-0.1 0-0.2 0-0.2q-0.2-0.3-0.5-0.5c-0.2-0.2-0.3-0.5-0.4-0.6-0.3-0.2-0.5-0.4-0.6-0.7-0.1-0.2-0.3-0.4-0.5-0.5-0.2-0.2-0.2-0.4-0.4-0.6-0.3-0.3-0.7-0.6-0.8-0.9-0.1-0.2-0.3-0.4-0.5-0.5-0.2-0.1-0.2-0.3-0.3-0.5-0.3-0.3-0.6-0.5-0.7-0.8-0.1-0.2-0.3-0.4-0.5-0.5-0.2-0.2-0.2-0.4-0.4-0.5-0.2-0.2-0.4-0.4-0.6-0.6q0.1-0.1 0-0.1c-0.2-0.4-0.6-0.6-0.8-0.9q-0.1-0.2-0.1-0.3-0.3-0.3-0.6-0.6c-0.1-0.1-0.1-0.1-0.1-0.3-0.3-0.3-0.6-0.4-0.8-0.9-0.1-0.2-0.3-0.3-0.5-0.4-0.2-0.2-0.2-0.5-0.4-0.6-0.3-0.3-0.6-0.6-0.8-1-0.1-0.1-0.3-0.3-0.4-0.4-0.2-0.1-0.2-0.4-0.4-0.5-0.3-0.3-0.5-0.5-0.7-0.8-0.1-0.2-0.3-0.4-0.5-0.5-0.1-0.2-0.2-0.4-0.3-0.6-0.3-0.3-0.7-0.5-0.9-0.9 0-0.2-0.2-0.3-0.3-0.4-0.1-0.1-0.4-0.2-0.3-0.5q-0.2-0.1-0.4-0.3-0.2-0.2-0.4-0.4c0 0 0-0.1 0-0.2q-0.3-0.3-0.7-0.7c-0.1-0.4-0.5-0.5-0.7-0.8 0 0-0.1-0.1-0.1-0.1 0-0.2-0.1-0.2-0.2-0.3-0.1-0.2-0.2-0.3-0.4-0.4-0.1 0.1-0.2 0.1-0.5 0.3-0.1 0.1-0.2 0.3-0.5 0.4-0.1 0.2-0.3 0.4-0.5 0.5-0.3 0.1-0.4 0.4-0.6 0.6q-0.3 0.2-0.5 0.5-0.3 0.3-0.6 0.6c-0.3 0.1-0.3 0.1-4.2 4zm40.5 116.7c0.1-0.2 0-0.3 0.1-0.4 0.1-0.1 0.1-0.3 0.2-0.4 0.1-0.1 0-0.4 0.2-0.5 0 0 0-0.1 0-0.2 0-0.1 0.1-0.2 0.1-0.3 0-0.2 0-0.3 0.2-0.4-0.1-0.2 0.2-0.2 0.1-0.4 0-0.2 0.2-0.3 0.2-0.4-0.1-0.2 0.2-0.3 0.1-0.5 0-0.2 0.2-0.3 0.2-0.5 0-0.1 0.2-0.1 0.1-0.3 0-0.2 0.2-0.2 0.2-0.4-0.1-0.2 0.2-0.3 0.1-0.4 0-0.2 0.2-0.3 0.2-0.5 0.2-0.2 0.1-0.5 0.3-0.7-0.1-0.2 0.1-0.3 0.1-0.5 0-0.2 0.2-0.3 0.2-0.4 0-0.2 0.2-0.2 0.1-0.4 0-0.2 0.2-0.3 0.2-0.5 0-0.2 0.2-0.3 0.1-0.5 0-0.1 0.2-0.2 0.2-0.3 0-0.1 0.2-0.2 0.1-0.3 0-0.2 0.2-0.3 0.2-0.4-0.1-0.3 0.2-0.5 0.2-0.7 0.1-0.2 0.2-0.4 0.2-0.6 0-0.2 0.3-0.3 0.2-0.6 0.2-0.1 0.1-0.4 0.2-0.5 0.1-0.1 0.1-0.3 0.2-0.4 0-0.2 0.2-0.4 0.2-0.6-0.1-0.2 0.2-0.2 0.1-0.4 0-0.1 0-0.2 0.1-0.2 0.1-0.1 0.1-0.4 0.2-0.5q0-0.1 0-0.3 0.1 0 0.2-0.1 0-0.2 0-0.3 0.1-0.1 0.1-0.3c0.1 0 0-0.1 0.1-0.2 0.1-0.1 0.2-0.3 0.2-0.5 0.1-0.3 0.3-0.4 0.2-0.6 0.3-0.1 0.1-0.4 0.2-0.6 0.1-0.1 0.1-0.3 0.2-0.4 0-0.2 0.2-0.4 0.2-0.5-0.1-0.2 0.2-0.3 0.2-0.5-0.1-0.1-0.1-0.2 0-0.2 0.1-0.1 0.1-0.3 0.2-0.4q0-0.2 0-0.3 0.1-0.1 0.2-0.2c-0.1-0.2 0.2-0.4 0.2-0.6-0.1-0.1 0-0.1 0-0.2 0.1-0.2 0.3-0.4 0.3-0.6 0-0.1 0-0.2 0.1-0.2q0-0.2 0-0.3 0.1-0.1 0.2-0.2 0-0.1 0-0.3c0.2-0.3 0.2-0.7 0.4-1-0.1-0.2 0.2-0.3 0.2-0.5-0.1-0.2 0.1-0.2 0.1-0.4 0-0.1 0.2-0.2 0.2-0.3-0.1-0.2 0.1-0.3 0.1-0.4 0-0.2 0.1-0.3 0.1-0.4 0.1-0.2 0.1-0.3 0.2-0.5 0.1-0.1 0.3-0.3 0.2-0.5 0.2-0.1 0.1-0.4 0.2-0.5 0.1-0.2 0.2-0.4 0.2-0.5 0-0.2 0.2-0.3 0.2-0.5-0.1-0.2 0.2-0.3 0.1-0.5 0-0.2 0.2-0.3 0.2-0.4-0.1-0.2 0.2-0.3 0.1-0.5 0.1-0.1 0.2-0.2 0.2-0.3-0.1-0.2 0.2-0.2 0.1-0.4-0.1-0.2 0.2-0.3 0.2-0.4-0.1-0.3 0.1-0.4 0.2-0.6 0 0 0.1-0.1 0.1-0.2-0.1-0.2 0.1-0.3 0.1-0.4 0-0.2 0.2-0.3 0.2-0.5 0-0.1 0.2-0.2 0.1-0.4 0-0.2 0.2-0.2 0.2-0.4-0.1-0.2 0.2-0.3 0.1-0.6 0-0.1 0.2-0.1 0.2-0.3 0-0.1 0.2-0.1 0.1-0.3 0-0.2 0.2-0.2 0.2-0.4-0.1-0.2 0.2-0.4 0.1-0.7 0.2-0.1 0.3-0.3 0.3-0.5 0-0.3 0.3-0.4 0.2-0.6 0.2-0.1 0-0.4 0.2-0.6 0.1-0.1 0.1-0.3 0.2-0.4-0.1-0.2 0.2-0.3 0.2-0.5-0.1-0.2 0.2-0.3 0.1-0.5 0-0.1 0-0.2 0.1-0.2 0.1-0.1 0-0.3 0.2-0.4q0-0.2 0-0.3 0.1-0.1 0.2-0.2 0-0.1 0-0.3c0.2-0.1 0.1-0.3 0.2-0.5 0.1-0.2 0.2-0.3 0.2-0.6 0-0.2 0.3-0.3 0.2-0.5q0.1-0.1 0.1-0.2c0.1-0.1 0-0.3 0.1-0.4 0.1-0.1 0.2-0.3 0.2-0.4 0-0.2 0.2-0.3 0.2-0.5 0-0.2 0.2-0.4 0.1-0.6 0.2-0.2 0.2-0.4 0.3-0.5q0-0.2 0-0.3 0.1-0.1 0.2-0.1c-0.1-0.3 0.2-0.4 0.1-0.7 0 0 0.1-0.1 0.1-0.1 0.1-0.3 0.3-0.4 0.2-0.7 0-0.1 0.1-0.1 0.2-0.2q0-0.1 0-0.3 0.1-0.1 0.1-0.1 0-0.2 0-0.3c0.3-0.3 0.3-0.7 0.5-1.1 0-0.1 0-0.2 0.1-0.3 0.1-0.1 0-0.3 0.1-0.3 0.1-0.1 0.1-0.3 0.2-0.4 0.1-0.1 0-0.3 0.1-0.3 0.1-0.2 0.1-0.3 0.1-0.4 0.1-0.2 0.1-0.4 0.2-0.6 0.1-0.1 0.2-0.3 0.2-0.5 0-0.2 0.3-0.4 0.2-0.6 0.1-0.1 0.2-0.2 0.1-0.4 0-0.1 0.2-0.2 0.2-0.3 0-0.2 0.2-0.3 0.1-0.4 0-0.2 0.3-0.3 0.2-0.5-0.1-0.1 0.2-0.2 0.2-0.4-0.1-0.2 0.2-0.2 0.1-0.4 0.1-0.1 0.2-0.2 0.1-0.4 0-0.1 0.2-0.2 0.2-0.3-0.1-0.3 0.2-0.3 0.1-0.5 0-0.2 0.2-0.3 0.2-0.5 0.3-0.2 0-0.5 0.3-0.6q0 0 0-0.1c-0.1-0.2 0.2-0.3 0.2-0.5 0-0.2 0.1-0.4 0.2-0.6 0.1-0.1 0.1-0.2 0-0.2q-0.1 0.1-0.3 0.1c-0.1 0.1-0.3 0.1-0.4 0.2-0.2 0.2-0.4 0.3-0.7 0.4-0.1 0.1-0.2 0.1-0.3 0.2-0.2 0.2-0.5 0.3-0.7 0.4q-0.3 0.3-0.6 0.5c-0.2-0.1-0.3 0.2-0.5 0.1-0.4 0.5-1 0.5-1.4 0.9-0.2 0.1-0.4 0.2-0.6 0.4-0.2 0.1-0.4 0.2-0.7 0.3-0.1 0.1-0.3 0.2-0.4 0.3-0.1 0.1-0.3 0.1-0.3 0.2-0.2 0-0.3 0.2-0.5 0.2 0 0-0.1 0-0.1 0.1-0.1 0.2-0.4 0.2-0.6 0.3-0.1 0.1-0.3 0.2-0.4 0.3-0.3 0.2-0.6 0.2-0.8 0.4-0.3 0.3-0.6 0.3-0.9 0.5 0 0.1-0.1 0-0.1 0.1-0.2 0.2-0.4 0.3-0.6 0.4q-0.4 0.2-0.8 0.4-0.2 0.2-0.5 0.3c-0.2 0.1-0.3 0.2-0.4 0.3-0.2 0.1-0.3 0.1-0.5 0.2-0.2 0-0.2 0.2-0.4 0.3q-0.2 0.1-0.4 0.2c-0.2 0.1-0.3 0.1-0.5 0.3 0 0.1-0.2 0.2-0.4 0.2-0.2 0-0.2 0.2-0.4 0.2-0.1 0-0.1 0-0.1 0.1-0.2 0.2-0.4 0.2-0.6 0.3-0.2 0.2-0.4 0.2-0.6 0.4-0.1 0.1-0.3 0.2-0.5 0.2-0.2 0.1-0.2 0.3-0.4 0.4-0.3 0-0.6 0.2-0.8 0.3-0.2 0.2-0.4 0.3-0.6 0.4-0.1 0.1-0.3 0.1-0.4 0.2-0.2 0.3-0.6 0.3-0.8 0.5-0.2 0.2-0.6 0.3-0.9 0.5 0 0-0.1 0-0.1 0-0.1 0.3-0.4 0.3-0.6 0.4q-0.4 0.2-0.8 0.5-0.2 0.1-0.5 0.2c-0.1 0.1-0.3 0.2-0.4 0.4-0.2 0.1-0.3 0.1-0.5 0.2-0.1 0-0.2 0.2-0.4 0.2-0.1 0.1-0.3 0.2-0.4 0.3-0.1 0.1-0.3 0.1-0.4 0.2-0.1 0.1-0.3 0.3-0.5 0.3-0.1 0-0.2 0.2-0.4 0.1q0 0.1-0.1 0.1c-0.1 0.1-0.1 0.2-0.3 0.3-0.1 0-0.2 0.1-0.4 0.1-0.1 0.1-0.3 0.2-0.4 0.3-0.1 0.2-0.4 0.1-0.5 0.3-0.2 0-0.3 0.2-0.5 0.3q-0.2 0.1-0.3 0.2c-0.1 0-0.2 0.1-0.4 0.1-0.1 0-0.2 0.3-0.3 0.3-0.2 0.1-0.5 0.2-0.7 0.3-0.2 0.1-0.4 0.3-0.6 0.5-0.2-0.1-0.3 0.2-0.5 0.1-0.2 0.3-0.5 0.4-0.8 0.5-0.2 0.3-0.5 0.3-0.8 0.5-0.3 0-0.4 0.4-0.7 0.4-0.2 0.2-0.6 0.2-0.8 0.5-0.1 0.1-0.3 0.1-0.5 0.2-0.1 0.1-0.2 0.2-0.4 0.3-0.1 0.1-0.3 0.1-0.4 0.2-0.1 0.1-0.3 0.1-0.4 0.3-0.1 0.1-0.3 0.2-0.4 0.2-0.2 0-0.3 0.3-0.5 0.2 0 0-0.1 0.1-0.1 0.1-0.1 0.2-0.4 0.3-0.5 0.4-0.3 0.1-0.5 0.2-0.7 0.4-0.1 0.1-0.3 0.1-0.4 0.2-0.3 0-0.3 0.3-0.5 0.3-0.3 0.2-0.7 0.3-1 0.6-0.3 0-0.5 0.2-0.7 0.3-0.3 0.2-0.5 0.3-0.8 0.4-0.2 0.1-0.4 0.3-0.6 0.5-0.3 0.1-0.5 0.2-0.7 0.4-0.3 0.1-0.6 0.3-0.8 0.4-0.3 0.3-0.6 0.3-0.9 0.5 0 0.1-0.1 0-0.2 0.1-0.2 0.2-0.4 0.3-0.6 0.4q-0.3 0.1-0.5 0.2c-0.1 0.1-0.2 0.3-0.3 0.2-0.1 0.1-0.2 0.2-0.4 0.2-0.1 0-0.2 0.2-0.3 0.3-0.4 0.1-0.7 0.3-1 0.6-0.3 0-0.5 0.2-0.8 0.3-0.2 0.3-0.5 0.3-0.7 0.5-0.2 0.1-0.4 0.1-0.5 0.2-0.1 0.2-0.3 0.3-0.5 0.3-0.2 0.1-0.2 0.3-0.4 0.3-0.2 0.1-0.5 0.2-0.7 0.4-0.3 0.1-0.5 0.3-0.8 0.4-0.2 0.1-0.4 0.3-0.6 0.4-0.2 0.2-0.5 0.3-0.7 0.5-0.3 0-0.5 0.3-0.8 0.4-0.2 0.2-0.6 0.3-0.9 0.5 0 0-0.2 0-0.2 0.1-0.2 0.2-0.4 0.2-0.6 0.3q-0.2 0.2-0.5 0.3c-0.1 0-0.1 0.2-0.3 0.2q-0.1 0.1-0.3 0.2c-0.2 0-0.2 0.2-0.4 0.2-0.1 0.1-0.2 0.1-0.4 0.2-0.1 0-0.1 0.1-0.3 0.2-0.1 0-0.2 0.2-0.3 0.2-0.3 0.1-0.5 0.3-0.8 0.4-0.2 0.2-0.5 0.3-0.7 0.5-0.2 0-0.4 0-0.5 0.2-0.1 0.2-0.3 0.2-0.5 0.3-0.1 0-0.2 0.3-0.4 0.3-0.2 0.1-0.4 0.3-0.7 0.3-0.2 0.2-0.5 0.4-0.7 0.5-0.3 0.1-0.5 0.2-0.7 0.4q-0.3 0.2-0.8 0.3c-0.1 0.3-0.5 0.3-0.7 0.5-0.3 0.3-0.5 0.3-0.8 0.5-0.2 0.1-0.3 0.2-0.5 0.3-0.2 0.1-0.4 0.2-0.5 0.3-0.2 0.1-0.3 0-0.4 0.2-0.1 0.1-0.3 0.1-0.4 0.2-0.1 0.1-0.3 0.1-0.3 0.2-0.3 0-0.4 0.2-0.5 0.3-0.2 0.1-0.3 0.2-0.5 0.3q-0.1 0-0.1 0c-0.1 0.2-0.4 0.2-0.6 0.4-0.1 0.1-0.3 0.1-0.5 0.2-0.1 0.2-0.3 0.3-0.5 0.4-0.1 0-0.2 0.1-0.4 0.1-0.1 0.1-0.2 0.3-0.3 0.3-0.2 0-0.3 0.2-0.4 0.3q0.1 0.2 0.2 0.3 0 0.1 0.1 0.2c0.2 0.1 0.2 0.4 0.3 0.5 0 0.3 0.3 0.3 0.4 0.5 0 0.2 0.2 0.3 0.2 0.4 0.1 0.2 0.2 0.4 0.3 0.5 0.2 0.2 0.2 0.4 0.4 0.6 0.1 0 0.1 0.2 0.2 0.3 0.1 0.1 0.2 0.2 0.2 0.4 0 0.1 0.3 0.2 0.3 0.3 0 0.2 0.1 0.3 0.2 0.4 0.1 0.1 0.1 0.3 0.3 0.4 0.1 0.1 0.1 0.3 0.2 0.3 0.2 0.1 0.1 0.4 0.3 0.4 0.2 0.2 0.2 0.5 0.3 0.6 0.2 0.1 0.3 0.4 0.5 0.6 0.2 0.2 0.3 0.5 0.6 0.7 0 0.3 0.2 0.3 0.3 0.5q0 0.3 0.3 0.4c0.1 0.1 0.1 0.3 0.3 0.4 0.4 0.3 0.5 0.8 0.9 1.2 0 0 0 0 0 0.1q0.3 0.3 0.6 0.6c0 0.2 0.2 0.3 0.3 0.5 0.1 0.1 0.3 0.2 0.3 0.4 0.1 0.2 0.3 0.3 0.5 0.5q0.1 0.1 0.3 0.2 0 0.2 0 0.2 0.2 0.2 0.4 0.4c0.1 0.2 0.3 0.3 0.4 0.5 0.2 0.1 0.2 0.3 0.3 0.4q0.3 0.3 0.5 0.5c0.2 0.2 0.4 0.4 0.6 0.5 0.2 0.2 0.2 0.4 0.3 0.6q0.3 0.2 0.6 0.5 0.2 0.3 0.5 0.5 0.3 0.3 0.6 0.6 0.2 0.3 0.5 0.5 0.3 0.3 0.5 0.6 0.3 0.3 0.6 0.5c0.2 0.2 0.4 0.4 0.6 0.6 0.1 0.2 0.4 0.3 0.5 0.4q0.3 0.3 0.6 0.6c0.1 0.1 0.3 0.3 0.4 0.4 0.2 0.2 0.5 0.3 0.6 0.5 0.3 0.3 0.6 0.5 0.9 0.8q0 0 0.1 0c0.2 0.1 0.3 0.3 0.4 0.4 0.2 0.2 0.4 0.2 0.5 0.4 0.2 0.1 0.3 0.2 0.5 0.4 0.1 0.1 0.3 0.2 0.4 0.3 0.2 0.1 0.2 0.3 0.5 0.3 0.2 0.2 0.3 0.4 0.5 0.5 0.3 0.2 0.4 0.4 0.7 0.5q0.3 0.2 0.5 0.4c0.1 0.2 0.4 0.2 0.5 0.4 0 0 0.2 0 0.2 0.1q0.2 0.1 0.3 0.2c0.1 0.1 0.2 0.1 0.3 0.2 0.1 0 0.2 0.2 0.3 0.3 0.2 0 0.3 0.1 0.4 0.2 0.1 0.1 0.3 0.1 0.4 0.2 0.2 0.3 0.5 0.4 0.7 0.6 0.2 0 0.3 0.2 0.4 0.3 0.2 0.1 0.4 0.1 0.5 0.2q0.3 0.2 0.5 0.3 0.2 0.2 0.5 0.4c0.2 0.1 0.4 0.2 0.6 0.3 0.3 0.2 0.5 0.3 0.7 0.5 0.2 0 0.2 0.2 0.4 0.2q0.3 0.1 0.5 0.3c0.2 0.1 0.3 0.2 0.5 0.3q0.2 0.1 0.5 0.2c0.2 0.1 0.2 0.4 0.5 0.3 0.1 0.2 0.3 0.2 0.5 0.3 0.2 0.1 0.4 0.3 0.6 0.3 0.2 0 0.2 0.4 0.5 0.3 0.2 0.2 0.5 0.3 0.8 0.4q0.3 0.2 0.7 0.4 0.4 0.2 0.8 0.4c0.2 0.1 0.5 0.2 0.7 0.3 0.2 0.1 0.4 0.3 0.6 0.3 0.2 0 0.4 0.2 0.6 0.2 0.2 0.2 0.4 0.3 0.7 0.4 0.3 0.1 0.5 0.4 0.8 0.3 0.1 0.2 0.3 0.2 0.4 0.2 0.2 0.1 0.3 0.2 0.4 0.3 0.2 0 0.3 0 0.4 0.1 0.3 0.1 0.5 0.3 0.7 0.3 0.2 0 0.4 0.2 0.6 0.2 0.1 0.2 0.3 0.1 0.5 0.2 0.2 0.1 0.4 0.2 0.6 0.3 0.2 0 0.4 0.1 0.6 0.2q0.1 0 0.2 0 0.1 0.1 0.2 0.2 0.2 0 0.4 0c0.1-0.2 0.2-0.3 0.2-0.5 0-0.1 0.2-0.3 0.2-0.4 0-0.2 0.2-0.3 0.1-0.5 0-0.2 0.2-0.3 0.2-0.4 0.2-0.2 0.1-0.5 0.3-0.7-0.1-0.2 0.2-0.4 0.1-0.5 0-0.2 0.2-0.3 0.2-0.5 0-0.1 0.2-0.2 0.2-0.4-0.1-0.1 0.2-0.2 0.1-0.4 0-0.2 0.2-0.3 0.2-0.6-0.1-0.1 0.1-0.1 0.1-0.3 0-0.1 0.2-0.1 0.1-0.3 0-0.2 0.2-0.2 0.2-0.4-0.1-0.2 0.2-0.3 0.1-0.4 0-0.2 0.2-0.3 0.2-0.5 0.2-0.2 0.1-0.5 0.3-0.7-0.1-0.2 0.2-0.3 0.1-0.5 0-0.2 0.2-0.3 0.2-0.4 0-0.2 0.2-0.3 0.2-0.5 0-0.1 0.1-0.2 0.1-0.4 0-0.1 0.1-0.3 0.2-0.4 0-0.1 0.1-0.1 0.1-0.2 0-0.1 0-0.2 0-0.3q0.1-0.1 0.2-0.1 0-0.2 0-0.3 0-0.1 0.1-0.2 0-0.1 0-0.2c0.1-0.2 0.2-0.3 0.3-0.5 0-0.2 0.2-0.4 0.1-0.6 0-0.2 0.3-0.3 0.2-0.5-0.1-0.2 0.2-0.2 0.2-0.4 0.1-0.1 0.2-0.2 0.1-0.3 0-0.2 0.2-0.3 0.2-0.4-0.1-0.2 0.2-0.3 0.1-0.5-0.1-0.2 0.2-0.3 0.2-0.4 0-0.1 0.1-0.2 0.1-0.3 0-0.1 0-0.2 0-0.2q0.1-0.1 0.2-0.2 0-0.1 0-0.3c0 0 0.1-0.1 0.1-0.1 0-0.1-0.1-0.3 0.1-0.4 0.1-0.1 0.1-0.2 0.2-0.4 0.1-0.1 0-0.3 0.1-0.4 0.1 0 0-0.2 0.1-0.2 0-0.1 0.1-0.2 0.1-0.3 0-0.2 0-0.3 0.2-0.4-0.1-0.2 0.2-0.3 0.1-0.4 0-0.2 0.2-0.3 0.2-0.5-0.1-0.2 0.2-0.4 0.1-0.6q0.2-0.3 0.3-0.5 0-0.2 0-0.3 0.1-0.1 0.2-0.1 0-0.2 0-0.3 0-0.1 0.1-0.1zm25.5-58.4c0.4 0.2 0.8 0.3 1 0.6 0.1 0.1 0.2 0.1 0.3 0.2 0.2 0 0.3 0 0.4 0.2 0.1 0.1 0.2 0.1 0.3 0.2 0.3 0.2 0.7 0.2 0.9 0.5 0.3 0.1 0.5 0.3 0.8 0.3 0.2 0.3 0.4 0.4 0.7 0.5 0.2 0.1 0.4 0.3 0.7 0.4 0.2 0.2 0.4 0.2 0.6 0.4 0.3 0.2 0.6 0.2 0.9 0.5 0.2 0.2 0.6 0.2 0.8 0.5 0.1 0 0.2 0 0.3 0.1 0.1 0.2 0.3 0.2 0.5 0.3 0.2 0.1 0.4 0.2 0.5 0.3 0.3 0.3 0.7 0.3 1 0.6 0.1 0.1 0.3 0.1 0.4 0.2 0.1 0 0.2 0.1 0.3 0.1 0.1 0.1 0.2 0.3 0.4 0.3 0.2 0.1 0.4 0.3 0.7 0.4 0.2 0.2 0.5 0.3 0.8 0.5 0.1 0 0.3 0 0.4 0.2 0.1 0.2 0.3 0.2 0.5 0.3 0.2 0 0.3 0.2 0.4 0.3 0.3 0 0.5 0.2 0.8 0.3 0.2 0.2 0.4 0.3 0.7 0.4 0.2 0.2 0.4 0.3 0.6 0.5 0.2 0.1 0.5 0.2 0.7 0.4 0.3 0.2 0.6 0.2 0.9 0.4 0.2 0.3 0.6 0.3 0.8 0.5 0.1 0.1 0.2 0.1 0.3 0.1 0.1 0.2 0.3 0.3 0.5 0.4 0.2 0.1 0.4 0.1 0.5 0.2 0.3 0.3 0.7 0.4 1 0.7 0.1 0.1 0.3 0.1 0.4 0.1 0.1 0.1 0.2 0.2 0.3 0.2 0.1 0 0.2 0.2 0.3 0.3 0.3 0.1 0.5 0.3 0.8 0.3 0.2 0.3 0.5 0.4 0.8 0.5 0.1 0.1 0.3 0.1 0.4 0.3 0.1 0.1 0.3 0.2 0.5 0.2 0.2 0.1 0.2 0.3 0.4 0.3 0.3 0.1 0.5 0.3 0.8 0.4 0.2 0.2 0.4 0.3 0.7 0.4 0.2 0.1 0.4 0.3 0.6 0.4q0.4 0.3 0.8 0.4c0.2 0.3 0.5 0.3 0.8 0.5 0.2 0.2 0.5 0.3 0.8 0.4 0 0.1 0.1 0.1 0.2 0.2 0.2 0.2 0.4 0.2 0.7 0.4q0.2 0.1 0.4 0.2c0.1 0.1 0.2 0.2 0.3 0.2 0.1 0 0.2 0.1 0.3 0.2 0.1 0 0.3 0.1 0.4 0.2 0.3 0.3 0.8 0.3 1 0.7 0.3 0 0.5 0.2 0.8 0.3 0.2 0.2 0.5 0.3 0.8 0.5 0.1 0.1 0.3 0.1 0.4 0.2 0.1 0.2 0.3 0.3 0.5 0.3 0.2 0.1 0.2 0.3 0.4 0.3 0.3 0.1 0.5 0.3 0.7 0.3 0.2 0.3 0.5 0.4 0.8 0.5 0.2 0.1 0.4 0.3 0.6 0.4q0.4 0.2 0.8 0.4c0.2 0.2 0.5 0.2 0.7 0.4 0.3 0.3 0.6 0.4 0.8 0.5 0.2 0.1 0.4 0.2 0.5 0.3q0.3 0.2 0.6 0.3c0.1 0.1 0.3 0.1 0.3 0.2 0.1 0.2 0.3 0.1 0.4 0.2 0.1 0.1 0.3 0.1 0.4 0.2 0.2 0 0.3 0.3 0.4 0.3 0.2 0.1 0.4 0.2 0.5 0.3q0.1 0 0.1 0c0.2 0.2 0.4 0.3 0.6 0.4 0.1 0.1 0.3 0.1 0.4 0.2 0.4 0.4 1 0.4 1.3 0.8 0.4 0.2 0.8 0.3 1.1 0.6 0.2 0.1 0.4 0.2 0.6 0.4 0.2 0.1 0.5 0.2 0.7 0.3 0.1 0.1 0.3 0.1 0.4 0.3 0.1 0.1 0.3 0.1 0.4 0.2 0.1 0 0.2 0.2 0.4 0.2 0 0 0.1 0 0.1 0.1 0.2 0.2 0.4 0.2 0.6 0.3 0.2 0.1 0.3 0.2 0.4 0.3 0.3 0.2 0.6 0.2 0.8 0.4 0.2 0.2 0.5 0.3 0.8 0.5 0.1 0.1 0.2 0 0.3 0.2 0.1 0.1 0.3 0.1 0.4 0.2 0.1 0.1 0.3 0 0.3 0.2 0.3 0 0.4 0.2 0.5 0.3 0.2 0.1 0.4 0.2 0.5 0.2q0.1 0.1 0.1 0.1c0.1 0.2 0.4 0.2 0.6 0.3 0.1 0.1 0.3 0.2 0.4 0.3 0.4 0.4 1 0.4 1.3 0.8q0.6 0.2 1.1 0.6c0.2 0.1 0.4 0.1 0.6 0.3 0.2 0.2 0.4 0.3 0.7 0.4 0.1 0.1 0.3 0.1 0.4 0.3 0.1 0.1 0.3 0 0.3 0.2 0.2-0.1 0.3 0.2 0.5 0.1 0 0 0.1 0.1 0.1 0.1 0.2 0.2 0.4 0.3 0.6 0.4 0.2 0.1 0.3 0.1 0.4 0.2 0.2 0.2 0.6 0.3 0.8 0.5 0.2 0.2 0.5 0.2 0.7 0.4 0.2 0.1 0.3 0.1 0.4 0.2 0.1 0.2 0.3 0.2 0.4 0.3 0.1 0.1 0.3 0 0.3 0.2 0.3 0 0.4 0.3 0.7 0.3 0.3 0.3 0.6 0.3 0.9 0.6 0 0.1 0.3 0.1 0.4 0.2 0.1 0 0.2 0.2 0.3 0.2 0.2 0 0.3 0.3 0.5 0.2q0.3 0.2 0.6 0.4c0.2 0.2 0.5 0.3 0.7 0.4q0.1 0 0.1 0.1c0.2 0.2 0.4 0.2 0.6 0.3 0.2 0.1 0.4 0.2 0.5 0.3 0.1 0.1 0.3 0.1 0.4 0.2 0.1 0.1 0.3 0.1 0.4 0.2 0 0.1 0.2 0.2 0.3 0.2 0.2 0.2 0.5 0.2 0.7 0.4 0.2 0.2 0.4 0.2 0.6 0.4 0.2 0.1 0.5 0.2 0.6 0.4 0.1 0 0.1 0 0.2 0 0.1-0.1 0.1-0.2 0.2-0.3 0.1-0.1 0.2-0.3 0.3-0.5 0.1-0.2 0.2-0.5 0.3-0.7 0.2-0.3 0.3-0.6 0.5-0.8q0.1-0.1 0.1-0.2c0.1-0.1 0.1-0.3 0.2-0.4 0.1-0.1 0.1-0.3 0.2-0.4 0.1-0.2 0.2-0.4 0.3-0.5 0.1-0.2 0.1-0.4 0.2-0.5q0.2-0.3 0.3-0.6c0.1-0.2 0.2-0.3 0.3-0.5 0-0.2 0.2-0.3 0.2-0.5 0.2-0.1 0.1-0.4 0.2-0.5 0.1-0.3 0.3-0.6 0.4-0.8 0.1-0.3 0.3-0.6 0.3-0.9 0.2 0 0.1-0.2 0.2-0.3 0.1-0.1 0.1-0.3 0.2-0.4 0-0.2 0.3-0.3 0.2-0.5 0-0.1 0.1-0.2 0.1-0.4 0.1 0 0.2-0.1 0.2-0.2-0.1-0.2 0.2-0.3 0.1-0.5 0.3-0.1 0.1-0.4 0.3-0.6 0 0 0-0.2 0.1-0.3 0.1-0.1 0-0.2 0.1-0.3q0.3-0.4 0.3-0.8c0.2-0.1 0.1-0.3 0.2-0.4 0.1-0.1 0.1-0.3 0.1-0.3 0.1-0.2 0.1-0.3 0.2-0.4 0-0.2 0.1-0.3 0.1-0.4 0-0.2 0.2-0.3 0.2-0.5 0-0.1 0.1-0.3 0.2-0.4 0-0.1 0.1-0.1 0.1-0.1-0.1-0.3 0.1-0.4 0.1-0.6 0-0.2 0.2-0.3 0.2-0.5-0.1-0.2 0.2-0.3 0.1-0.5 0-0.1 0-0.2 0.1-0.3 0.1-0.1 0-0.3 0.1-0.4q0-0.1 0.1-0.1 0-0.2 0-0.3 0.1-0.1 0.2-0.2 0-0.2 0-0.3 0-0.1 0.1-0.2 0-0.2 0-0.4c0.3-0.1 0-0.5 0.3-0.6q0-0.2 0-0.5 0.1-0.1 0.2-0.1c0-0.2-0.1-0.4 0-0.5q0-0.1 0.1-0.1 0-0.2 0-0.3 0.1-0.1 0.2-0.2 0-0.2 0-0.4 0-0.1 0.1-0.2 0-0.2 0-0.4c0.1-0.1 0.1-0.1 0.2-0.2q0-0.3 0-0.6c0 0 0-0.1 0.1-0.1q0-0.3 0-0.5c0.1 0 0.1-0.1 0.2-0.1q0-0.3 0-0.6c0-0.1 0.1-0.1 0.1-0.2q0-0.2 0-0.4 0.1-0.1 0.2-0.2 0-0.3 0-0.6 0-0.1 0.1-0.1 0-0.4 0-0.8 0.1 0 0.2-0.1c0-0.3 0-0.5 0-0.8q0.1-0.1 0.1-0.2 0-0.4 0-0.7 0.1-0.1 0.2-0.1c0-0.3-0.1-0.6 0-0.8q0.1-0.1 0.1-0.1 0-0.5 0-0.9 0.1-0.1 0.2-0.2 0-0.5 0-1 0-0.1 0.1-0.2 0-0.6 0-1.2 0.1-0.1 0.2-0.1 0-0.9 0-1.7c0-0.1 0.1-0.1 0.1-0.2q0-1.1 0-2.2 0.1-0.1 0.2-0.1c0-2.5 0-6.8-0.1-7.6q0-0.1-0.1-0.1 0-1.1 0-2.3-0.1 0-0.1-0.1 0-0.9 0-1.7-0.1-0.1-0.2-0.1 0-0.7 0-1.4 0 0-0.1-0.1c0-0.4 0-0.8 0-1.2q-0.1-0.1-0.2-0.2 0-0.5 0-0.9-0.1-0.1-0.1-0.1c-0.1-0.3 0-0.7 0-0.9q-0.1-0.1-0.2-0.2 0-0.4 0-0.9-0.1-0.1-0.1-0.2 0-0.2 0-0.4-0.1-0.1-0.3-0.2 0 0.1-0.1 0.1-0.3 0-0.6 0-0.1 0.1-0.2 0.2-0.4 0-0.7 0-0.1 0-0.2 0.1c-0.2 0-0.5 0-0.7 0-0.1 0.1-0.1 0.1-0.2 0.2q-0.3 0-0.6 0c0 0-0.1 0.1-0.1 0.1-0.3 0.1-0.5 0-0.8 0.1q-0.1 0-0.1 0.1-0.4 0-0.8 0-0.1 0.1-0.1 0.1-0.3 0-0.6 0-0.1 0.1-0.2 0.2-0.4 0-0.7 0c-0.1 0-0.1 0.1-0.2 0.1-0.2 0-0.5 0-0.7 0-0.1 0.1-0.1 0.1-0.2 0.2q-0.4 0-0.7 0c-0.1 0-0.1 0.1-0.2 0.1q-0.3 0-0.6 0-0.1 0.1-0.1 0.2-0.4 0-0.8 0-0.1 0.1-0.2 0.1-0.3 0-0.6 0 0 0.1-0.1 0.2-0.4 0-0.8 0 0 0-0.1 0.1c-0.2 0-0.5 0-0.7 0-0.1 0.1-0.2 0.2-0.3 0.2q-0.3 0-0.7 0 0 0.1-0.1 0.2-0.3 0-0.6 0c-0.1 0-0.1 0-0.2 0.1q-0.3 0-0.7 0-0.1 0.1-0.2 0.1-0.3 0-0.6 0-0.1 0.1-0.1 0.2-0.4 0-0.8 0 0 0-0.1 0.1-0.4 0-0.8 0-0.1 0.1-0.2 0.2-0.3 0-0.7 0-0.1 0.1-0.1 0.2-0.3 0-0.7 0 0 0-0.1 0.1-0.4 0-0.7 0-0.1 0.1-0.2 0.1-0.3 0-0.6 0-0.1 0.1-0.2 0.2-0.3 0-0.7 0c0 0-0.1 0.1-0.1 0.1-0.3 0-0.6 0-0.8 0q-0.1 0.1-0.2 0.2-0.4 0-0.7 0c-0.1 0.1-0.1 0.1-0.2 0.2-0.2 0-0.4 0-0.6 0q-0.1 0-0.1 0.1-0.4 0-0.7 0-0.1 0.1-0.2 0.1-0.4 0-0.8 0 0 0.1-0.1 0.2-0.3 0-0.6 0c-0.1 0-0.1 0.1-0.2 0.1q-0.3 0-0.7 0-0.1 0.1-0.2 0.2c-0.2 0-0.5 0-0.7 0-0.1 0.1-0.1 0.1-0.2 0.2-0.2 0-0.4 0-0.6 0q-0.1 0-0.1 0.1-0.4 0-0.8 0-0.1 0.1-0.1 0.1-0.4 0-0.8 0 0 0.1-0.1 0.2-0.3 0-0.6 0c-0.1 0.1-0.1 0.1-0.2 0.1q-0.4 0-0.7 0-0.1 0.1-0.2 0.2-0.4 0-0.8 0 0 0.1-0.1 0.2-0.3 0-0.6 0-0.1 0.1-0.1 0.1-0.4 0-0.8 0-0.1 0.1-0.2 0.2-0.3 0-0.7 0-0.1 0-0.1 0.1-0.3 0-0.6 0c-0.1 0.1-0.1 0.1-0.2 0.1q-0.4 0-0.8 0c0 0.1-0.1 0.1-0.1 0.2q-0.4 0-0.8 0c0 0.1-0.1 0.1-0.1 0.2q-0.3 0-0.6 0-0.1 0-0.2 0.1-0.3 0-0.7 0-0.1 0.1-0.2 0.2-0.4 0-0.7 0-0.1 0-0.2 0.1-0.3 0-0.6 0 0 0.1-0.1 0.2-0.4 0-0.8 0-0.1 0-0.1 0.1c-0.3 0-0.6 0-0.8 0q-0.1 0.1-0.1 0.1-0.4 0-0.8 0 0 0.1-0.1 0.2-0.3 0-0.6 0-0.1 0.1-0.2 0.2-0.4 0-0.7 0-0.1 0-0.2 0.1-0.3 0-0.6 0c0 0.1-0.1 0.1-0.1 0.2q-0.4 0-0.8 0c-0.1 0-0.1 0-0.2 0.1q-0.3 0-0.7 0-0.1 0.1-0.1 0.2-0.4 0-0.8 0-0.1 0-0.1 0.1-0.4 0-0.7 0 0 0.1-0.1 0.2-0.4 0-0.8 0 0 0-0.1 0.1-0.3 0-0.6 0c-0.1 0.1-0.1 0.1-0.2 0.2q-0.3 0-0.7 0-0.1 0-0.1 0.1c-0.3 0-0.6 0-0.8 0q-0.1 0.1-0.2 0.1-0.3 0-0.7 0-0.1 0.1-0.2 0.2-0.3 0-0.6 0-0.1 0.1-0.1 0.2-0.4 0-0.8 0-0.1 0-0.2 0.1-0.3 0-0.5 0c-0.1 0.1-0.1 0.1-0.2 0.2q-0.4 0-0.7 0-0.1 0-0.2 0.1c-0.2 0-0.5 0-0.7 0q-0.1 0.1-0.2 0.2-0.4 0-0.7 0-0.1 0-0.2 0.1-0.3 0-0.6 0-0.1 0.1-0.2 0.2-0.3 0-0.7 0-0.1 0-0.1 0.1-0.3 0-0.6 0-0.2 0.1-0.2 0.2-0.4 0-0.8 0 0 0-0.1 0.1c-0.3 0-0.5 0-0.8 0q-0.1 0.1-0.1 0.2c-0.2 0-0.4-0.1-0.6 0-0.1 0-0.1 0.1-0.2 0.1q-0.3 0-0.7 0-0.1 0.1-0.2 0.2-0.4 0-0.7 0-0.1 0-0.2 0.1c-0.2 0-0.5 0-0.7 0-0.1 0.1-0.1 0.1-0.2 0.2q-0.3 0-0.6 0-0.1 0-0.1 0.1c-0.3 0-0.5 0-0.8 0q-0.1 0.1-0.1 0.2-0.3 0-0.5 0-0.1 0-0.2 0 0 0.1-0.1 0.1-0.4 0-0.7 0-0.1 0.1-0.2 0.2-0.4 0-0.7 0c-0.1 0-0.1 0-0.2 0.1q-0.4 0-0.7 0-0.1 0.1-0.2 0.2c-0.2 0-0.4 0-0.6 0q-0.1 0.1-0.1 0.1c-0.3 0-0.6 0-0.8 0q-0.1 0.1-0.1 0.2-0.3 0-0.6 0 0 0-0.1 0 0 0.1-0.1 0.1-0.4 0-0.7 0-0.1 0.1-0.2 0.2-0.4 0-0.8 0 0 0-0.1 0.1-0.4 0-0.7 0c-0.1 0.1-0.2 0.1-0.2 0.2q-0.3 0-0.6 0-0.1 0.1-0.1 0.1-0.4 0-0.8 0-0.1 0.1-0.2 0.2-0.3 0-0.6 0 0 0 0 0 0 0.1 0 0.2zm70.4 42.8c-0.1 0-0.1-0.1-0.3-0.2-0.2-0.1-0.5-0.2-0.7-0.4-0.2-0.1-0.5-0.2-0.7-0.4q-0.3-0.2-0.7-0.4c-0.3-0.1-0.5-0.3-0.7-0.4-0.3-0.2-0.7-0.3-1-0.6-0.4-0.2-0.8-0.4-1.1-0.6-0.2-0.2-0.4-0.2-0.6-0.4-0.2-0.2-0.5-0.2-0.7-0.3-0.1-0.1-0.3-0.2-0.4-0.3-0.1-0.1-0.3-0.1-0.4-0.2-0.1 0-0.2-0.2-0.4-0.2 0 0-0.1-0.1-0.1-0.1-0.2-0.2-0.4-0.2-0.6-0.3-0.2-0.1-0.3-0.2-0.5-0.3-0.2-0.2-0.5-0.3-0.7-0.5-0.3-0.2-0.6-0.3-0.9-0.4 0-0.1-0.1-0.1-0.1-0.1-0.2-0.2-0.4-0.3-0.7-0.4q-0.4-0.2-0.7-0.4-0.2-0.2-0.5-0.3c-0.2-0.1-0.3-0.2-0.5-0.3-0.1-0.1-0.3-0.1-0.4-0.2-0.1-0.1-0.2-0.2-0.3-0.3-0.2 0.1-0.3-0.2-0.5-0.2q-0.3-0.2-0.6-0.4c-0.3-0.1-0.5-0.3-0.7-0.3q-0.1 0-0.2-0.1c-0.1-0.2-0.3-0.2-0.5-0.3-0.2-0.1-0.4-0.2-0.5-0.3-0.2-0.2-0.6-0.2-0.8-0.5-0.2-0.2-0.5-0.2-0.8-0.4 0-0.1-0.2-0.1-0.2-0.2-0.1-0.1-0.4-0.2-0.5-0.3-0.3-0.1-0.5-0.2-0.7-0.4-0.1-0.1-0.2-0.1-0.3-0.2-0.1 0-0.3 0-0.4-0.2 0-0.1-0.2-0.1-0.3-0.1-0.3-0.2-0.7-0.3-0.9-0.6-0.3-0.1-0.5-0.3-0.8-0.4-0.2-0.3-0.6-0.3-0.8-0.5-0.3 0-0.4-0.4-0.7-0.3-0.1-0.2-0.4-0.2-0.6-0.4q0 0 0 0c-0.1-0.2-0.4-0.2-0.6-0.4-0.2 0.1-0.3-0.3-0.6-0.3-0.2-0.2-0.6-0.2-0.8-0.5-0.1-0.1-0.3-0.1-0.5-0.2q-0.2-0.1-0.4-0.3c-0.1 0-0.2-0.2-0.3-0.2-0.1-0.1-0.2-0.1-0.4-0.1-0.1-0.1-0.2-0.3-0.3-0.3-0.4-0.2-0.7-0.3-1-0.6-0.3-0.1-0.6-0.2-0.8-0.4-0.3-0.2-0.6-0.3-0.9-0.5-0.2 0-0.3-0.3-0.4-0.3q-0.3-0.1-0.6-0.3c-0.1 0-0.1-0.2-0.2-0.2-0.2 0-0.3-0.1-0.4-0.1-0.1-0.1-0.3-0.1-0.4-0.2-0.4-0.4-0.9-0.5-1.3-0.9-0.1-0.1-0.3-0.1-0.4-0.1-0.1-0.1-0.2-0.2-0.3-0.2-0.1 0-0.2-0.2-0.3-0.3q-0.4-0.1-0.7-0.3c-0.2-0.2-0.5-0.3-0.8-0.4q0 0-0.1-0.1c-0.2-0.2-0.4-0.3-0.7-0.4q-0.2-0.1-0.4-0.2c-0.1-0.1-0.1-0.2-0.3-0.2-0.1 0-0.2-0.3-0.4-0.2 0-0.1-0.2-0.1-0.3-0.2-0.3-0.3-0.8-0.3-1-0.7-0.2 0.1-0.2-0.1-0.4-0.1-0.1 0-0.2-0.2-0.4-0.2-0.1-0.1-0.2-0.3-0.4-0.3-0.1-0.1-0.2-0.1-0.4-0.2-0.1-0.1-0.3-0.2-0.5-0.3q-0.2-0.2-0.5-0.3c-0.2-0.1-0.4-0.2-0.5-0.3-0.2-0.1-0.4-0.2-0.6-0.3-0.4-0.4-0.9-0.4-1.3-0.8-0.1-0.1-0.3-0.1-0.4-0.2-0.1 0-0.2-0.1-0.3-0.2-0.1 0-0.2-0.2-0.3-0.2q-0.4-0.2-0.7-0.4c-0.2-0.2-0.5-0.3-0.8-0.4 0 0 0 0-0.1 0-0.1-0.3-0.4-0.3-0.6-0.4q-0.3-0.2-0.5-0.3c-0.1 0-0.1-0.2-0.3-0.2-0.1 0-0.2-0.2-0.3-0.2-0.1-0.1-0.3-0.1-0.4-0.2-0.3-0.3-0.7-0.3-1-0.7-0.2 0.1-0.2-0.1-0.4-0.1-0.1 0-0.2-0.1-0.4-0.2-0.1 0-0.2-0.3-0.4-0.3-0.1-0.1-0.3-0.1-0.3-0.2-0.1-0.1-0.3 0-0.4-0.2-0.1-0.1-0.3-0.1-0.4-0.2-0.2-0.2-0.6-0.2-0.8-0.5-0.2-0.2-0.5-0.1-0.6-0.3-0.2-0.2-0.5-0.3-0.7-0.4-0.1-0.1-0.3-0.1-0.4-0.3-0.1-0.1-0.3-0.2-0.4-0.2-0.2 0-0.3-0.2-0.5-0.2 0 0-0.1-0.1-0.1-0.1-0.1-0.2-0.3-0.2-0.5-0.3-0.3-0.2-0.5-0.2-0.7-0.4-0.1-0.1-0.2-0.1-0.3-0.2-0.1-0.1-0.3-0.1-0.4-0.2 0-0.1-0.2-0.1-0.3-0.2-0.3-0.2-0.7-0.2-0.9-0.6-0.2 0-0.4-0.2-0.7-0.3-0.2-0.1-0.4-0.3-0.6-0.4-0.2 0.1-0.3-0.3-0.5-0.2-0.2-0.2-0.5-0.3-0.8-0.4-0.2-0.3-0.5-0.4-0.8-0.6-0.3 0-0.4-0.3-0.7-0.4-0.2-0.2-0.6-0.2-0.8-0.5-0.2-0.1-0.4-0.1-0.6-0.3-0.2-0.2-0.5-0.3-0.7-0.4q-0.3-0.1-0.5-0.3c-0.2-0.2-0.4-0.2-0.6-0.3-0.1-0.1-0.3-0.1-0.3-0.2-0.1-0.2-0.3-0.2-0.5-0.3-0.1-0.1-0.3-0.1-0.4-0.2-0.1 0-0.2-0.2-0.3-0.3-0.2 0.1-0.3-0.2-0.5-0.1-0.1-0.1-0.2-0.2-0.3-0.3-0.2-0.1-0.4-0.1-0.5-0.2-0.1-0.1-0.3-0.1-0.3-0.2-0.1-0.2-0.3-0.2-0.5-0.3-0.1-0.1-0.2-0.2-0.4-0.2-0.2 0-0.2-0.3-0.5-0.3q0 0.2 0 0.3c0.1 0.1 0.2 0.2 0.2 0.4 0 0.1 0.1 0.3 0.2 0.4 0.1 0.2 0.1 0.3 0.1 0.4q0 0.1 0.1 0.2 0 0.2 0 0.3 0.1 0.1 0.2 0.2c0 0.1-0.1 0.2 0 0.3 0.2 0.1 0.1 0.3 0.2 0.4 0.1 0.1 0 0.3 0.2 0.4 0 0.1 0 0.2 0 0.3 0.1 0.1 0.2 0.2 0.2 0.3 0 0.1 0 0.3 0.1 0.4 0 0.1 0.2 0.2 0.2 0.4-0.1 0.2 0.2 0.2 0.1 0.4 0 0.2 0.2 0.3 0.2 0.4 0 0.2 0.1 0.3 0.1 0.5 0 0.1 0.2 0.2 0.2 0.4 0 0.2 0.2 0.3 0.1 0.5 0 0.1 0.2 0.3 0.2 0.5 0 0 0.1 0.1 0.1 0.1 0 0.3 0.3 0.4 0.2 0.6 0.2 0.2 0.1 0.4 0.2 0.6 0.1 0.1 0 0.2 0.1 0.3 0.2 0.1 0.1 0.2 0.1 0.4 0.3 0.1 0.1 0.4 0.3 0.5 0 0.3 0.2 0.5 0.2 0.7 0 0.2 0.2 0.4 0.3 0.6q0 0.1 0 0.3 0.1 0.1 0.1 0.1 0 0.2 0 0.3c0.3 0.1 0.1 0.4 0.3 0.6 0.1 0.1 0.1 0.2 0.2 0.4-0.1 0.2 0.2 0.3 0.1 0.5 0 0.2 0.2 0.4 0.2 0.5 0.2 0.1 0 0.4 0.2 0.6 0.2 0 0 0.3 0.2 0.4q0 0.3 0.2 0.5c0.1 0.2 0.2 0.4 0.1 0.6q0.1 0.1 0.2 0.1 0 0.2 0 0.3 0.1 0.1 0.1 0.2c0.1 0.1 0 0.3 0.1 0.4 0.1 0 0.1 0.2 0.2 0.3 0.1 0.1 0 0.4 0.2 0.5 0 0 0 0.1 0 0.2 0 0.1 0.1 0.2 0.1 0.3 0 0.2 0 0.3 0.2 0.4-0.1 0.2 0.2 0.2 0.1 0.4 0 0.2 0.2 0.3 0.2 0.4-0.1 0.2 0.2 0.3 0.1 0.5 0 0.2 0.2 0.3 0.2 0.5 0 0.1 0.2 0.1 0.1 0.3 0 0.2 0.2 0.2 0.2 0.4-0.1 0.2 0.2 0.4 0.2 0.7 0.1 0.1 0.2 0.3 0.2 0.5 0.1 0.2 0.3 0.4 0.2 0.6 0.2 0.1 0.1 0.4 0.2 0.5 0.1 0.2 0.1 0.4 0.3 0.5-0.2 0.2 0.1 0.3 0.1 0.5 0 0.2 0.2 0.3 0.2 0.5-0.1 0-0.1 0.2 0 0.2 0.1 0.1 0.1 0.3 0.3 0.4q0 0.2 0 0.3 0 0.1 0.1 0.2 0 0.1 0 0.3c0.2 0 0.1 0.2 0.2 0.4 0 0.1 0 0.3 0.1 0.3 0.2 0.2 0.1 0.4 0.2 0.5 0.1 0.1 0.1 0.3 0.1 0.4q0.1 0.1 0.2 0.2c0 0.1-0.1 0.2 0.1 0.4 0.1 0.1 0.2 0.3 0.1 0.4 0 0.2 0.3 0.3 0.2 0.5-0.1 0.2 0.2 0.3 0.2 0.4-0.1 0.2 0.1 0.3 0.1 0.5 0 0.1 0.2 0.2 0.2 0.3-0.1 0.2 0.1 0.3 0.1 0.4 0 0.2 0.1 0.3 0.1 0.4 0.1 0.2 0.1 0.3 0.2 0.5 0.1 0.1 0.2 0.3 0.2 0.5 0 0 0.1 0.1 0.1 0.2q0 0.1 0 0.3 0.1 0 0.2 0.1 0 0.2 0 0.3c0.2 0.3 0.3 0.7 0.4 1.1-0.1 0.1 0.2 0.2 0.2 0.4-0.1 0.2 0.2 0.3 0.1 0.5 0.1 0.1 0.2 0.1 0.2 0.3-0.1 0.2 0.2 0.2 0.1 0.4-0.1 0.2 0.2 0.3 0.2 0.4-0.1 0.3 0.2 0.4 0.2 0.6 0.2 0.1 0 0.4 0.2 0.5q0 0.1 0 0.1c-0.1 0.2 0.2 0.3 0.2 0.5-0.1 0.2 0.1 0.3 0.1 0.4 0 0.2 0.2 0.2 0.2 0.4-0.1 0.2 0.2 0.3 0.1 0.5 0 0.1 0.2 0.2 0.2 0.4-0.1 0.2 0.2 0.2 0.1 0.4 0.1 0.1 0.2 0.2 0.2 0.3-0.1 0.2 0.2 0.3 0.1 0.4 0 0.2 0.2 0.3 0.2 0.5-0.1 0.2 0.1 0.3 0.1 0.5 0 0 0.1 0.1 0.2 0.2 0 0.1-0.1 0.2 0 0.3q0.1 0.1 0.1 0.1 0 0.1 0 0.3 0.1 0.1 0.2 0.2c0 0.1-0.1 0.2 0 0.3 0.2 0.1 0.1 0.3 0.2 0.4 0.1 0 0 0.2 0.1 0.3 0 0.1 0.1 0.2 0.1 0.3 0 0.2 0.1 0.4 0.2 0.5 0.2 0.1 0.1 0.3 0.1 0.4q0.1 0.1 0.2 0.2c0 0.1-0.1 0.3 0.1 0.4 0.1 0.1 0 0.3 0.1 0.4 0.2 0.1 0 0.3 0.1 0.4 0.2 0.2 0.2 0.3 0.3 0.5q0 0.1 0 0.2 0.1 0.1 0.1 0.2 0 0.1 0 0.3 0.1 0 0.2 0.1c0 0.1-0.1 0.3 0 0.3 0.1 0.1 0.1 0.3 0.2 0.4 0.2 0.1 0 0.3 0.1 0.4q0.2 0.1 0.1 0.3c0 0.2 0.2 0.2 0.2 0.4 0 0.1 0.2 0.2 0.1 0.3 0 0.2 0.2 0.2 0.2 0.4-0.1 0.2 0.2 0.3 0.1 0.5 0 0.2 0.2 0.3 0.2 0.5 0.2 0.1 0 0.4 0.3 0.6 0 0 0 0 0 0-0.1 0.2 0.2 0.3 0.1 0.5 0 0.2 0.2 0.3 0.2 0.5 0 0.1 0.2 0.2 0.1 0.3 0 0.2 0.3 0.3 0.2 0.5-0.1 0.2 0.2 0.2 0.1 0.4 0 0.2 0.3 0.3 0.2 0.5 0.1 0.1 0.2 0.1 0.1 0.3 0 0.2 0.2 0.2 0.2 0.4-0.1 0.2 0.2 0.3 0.1 0.4 0 0.2 0.2 0.3 0.2 0.5 0 0.1 0.1 0.2 0.1 0.2 0.1 0.1 0 0.2 0.1 0.3q0 0.1 0.1 0.1 0 0.2 0 0.3 0.1 0.1 0.1 0.2c0.1 0.1 0 0.2 0.1 0.3 0.1 0.1 0.1 0.3 0.2 0.4 0.1 0.1 0 0.4 0.2 0.5 0 0 0 0.1 0 0.2 0 0.1 0.1 0.2 0.1 0.3 0 0.2 0 0.3 0.2 0.4-0.1 0.2 0.2 0.2 0.1 0.4 0 0.2 0.2 0.3 0.2 0.4 0 0.3 0.3 0.4 0.1 0.6q0.2 0.3 0.4 0.6 0 0.1 0 0.2 0 0.1 0.1 0.2 0 0.1 0 0.3 0.1 0.1 0.1 0.1c0.1 0.2 0 0.3 0.1 0.4 0.1 0.1 0.1 0.3 0.2 0.4 0.1 0.1 0 0.3 0.2 0.4 0 0.1 0 0.2 0 0.2 0 0.2 0.1 0.3 0.1 0.4 0.1 0.1 0.1 0.3 0.2 0.4-0.1 0.1 0.2 0.2 0.2 0.3-0.1 0.2 0.1 0.3 0.1 0.5-0.1 0.2 0.2 0.3 0.1 0.5 0 0.2 0.2 0.2 0.2 0.4 0 0.1 0.2 0.2 0.2 0.3-0.1 0.2 0.1 0.3 0.1 0.4 0 0.3 0.2 0.5 0.2 0.7 0.1 0.2 0.2 0.4 0.2 0.6 0.1 0.2 0.3 0.3 0.2 0.6 0.3 0.1 0.1 0.4 0.2 0.5 0.1 0.1 0.1 0.3 0.3 0.4-0.1 0.2 0.1 0.4 0.1 0.6 0 0.2 0.2 0.2 0.2 0.4 0 0.1 0 0.2 0 0.2 0.2 0.1 0.1 0.4 0.3 0.5q0 0.1 0 0.3 0 0 0.1 0.1 0 0.2 0 0.3c0.2 0.1 0.1 0.3 0.2 0.4q0 0.3 0.2 0.4c0.1 0.2 0 0.4 0.1 0.4 0.2 0.2 0 0.4 0.2 0.5q0 0.1 0.1 0.1 0 0.2 0 0.3c0.1 0.1 0.1 0.3 0.2 0.4 0 0.3 0.2 0.4 0.2 0.6 0 0.2 0.2 0.4 0.2 0.6 0 0.1 0.1 0.3 0.2 0.5q0.1 0 0.1 0.1c0 0.1-0.1 0.2 0.1 0.3 0.1 0.1-0.1 0.3 0.1 0.4 0 0.1 0.1 0.3 0.1 0.4q0.1-0.1 0.2-0.2 0.2 0 0.3 0c0.2-0.1 0.3-0.2 0.5-0.3 0.1 0 0.3 0 0.4-0.1 0.2 0 0.3-0.3 0.4-0.2 0.2 0 0.3-0.2 0.4-0.2 0.2 0.1 0.2-0.1 0.3-0.1 0.1 0 0.2 0 0.4-0.1 0-0.1 0.2-0.1 0.3-0.2 0.1-0.1 0.3 0 0.4-0.1 0.1-0.1 0.3-0.1 0.4-0.2 0.2-0.1 0.3-0.2 0.6-0.2 0.1-0.1 0.3-0.1 0.4-0.2 0.2-0.1 0.4-0.1 0.5-0.2 0.1-0.2 0.4-0.1 0.5-0.2 0.2-0.2 0.5-0.3 0.8-0.4q0.2-0.1 0.4-0.2 0.2-0.1 0.4-0.3c0.2 0 0.4 0 0.5-0.2 0.1-0.1 0.3 0 0.4-0.1 0.2-0.2 0.5-0.2 0.7-0.4 0.3 0 0.3-0.4 0.6-0.3 0.3-0.2 0.7-0.3 1-0.5 0.3-0.2 0.7-0.3 1-0.6 0.2 0.1 0.3-0.2 0.5-0.3q0.2-0.1 0.5-0.2c0.1-0.1 0.3-0.1 0.3-0.2 0.1-0.2 0.3-0.2 0.5-0.3 0.1-0.1 0.3-0.1 0.4-0.2q0.2-0.1 0.3-0.3c0.2 0.1 0.3-0.2 0.5-0.1 0.1-0.2 0.4-0.3 0.6-0.4 0.3 0 0.3-0.4 0.6-0.4 0.1-0.1 0.2-0.2 0.3-0.3 0.2-0.1 0.4-0.1 0.6-0.2 0.1-0.2 0.4-0.2 0.6-0.5 0 0 0.1 0 0.2-0.1 0.1 0 0.2-0.2 0.3-0.2 0.2 0 0.2-0.3 0.4-0.3 0.2 0 0.3-0.3 0.5-0.3 0.2 0 0.3-0.2 0.4-0.3 0.1-0.1 0.1-0.2 0.2-0.2 0.2 0 0.3-0.2 0.4-0.3 0.2 0 0.3-0.1 0.4-0.2 0.1-0.1 0.2-0.2 0.3-0.2 0.2-0.1 0.3-0.4 0.5-0.3q0 0 0.1-0.1c0.1-0.1 0.3-0.3 0.5-0.4 0.3-0.1 0.4-0.4 0.6-0.6 0.3 0 0.4-0.3 0.6-0.4 0.3-0.1 0.4-0.3 0.6-0.4 0.1-0.2 0.4-0.2 0.6-0.4 0.1-0.2 0.3-0.4 0.4-0.5 0.2-0.1 0.2-0.1 0.3-0.1q0.3-0.4 0.6-0.7c0.1 0 0.2 0 0.3-0.1 0.1-0.1 0.3-0.3 0.5-0.5 0.2-0.2 0.3-0.4 0.6-0.5 0.2-0.1 0.4-0.3 0.6-0.5q0.3-0.3 0.5-0.6 0.3-0.3 0.6-0.5c0 0 0.1 0 0.1 0q0.2-0.2 0.3-0.3 0.4-0.4 0.8-0.8c0.3-0.3 0.6-0.5 0.8-0.8 0.3-0.3 0.6-0.5 0.8-0.9 0.2-0.3 0.5-0.5 0.8-0.8 0.3-0.4 0.8-0.7 1.1-1.3 0.1-0.2 0.4-0.4 0.6-0.6 0.3-0.2 0.4-0.5 0.6-0.7 0.2-0.2 0.5-0.4 0.5-0.7q0.4-0.3 0.7-0.7 0 0 0 0c0-0.3 0.2-0.4 0.4-0.5 0.2-0.2 0.2-0.4 0.4-0.6 0.2-0.2 0.4-0.3 0.5-0.6 0.1-0.2 0.3-0.4 0.4-0.6 0.1-0.2 0.4-0.4 0.5-0.6 0.1-0.2 0.3-0.3 0.4-0.5 0-0.2 0.2-0.3 0.3-0.4 0.2-0.1 0.1-0.3 0.3-0.5 0.1 0 0.2-0.2 0.3-0.4 0.1-0.1 0.3-0.2 0.3-0.4 0.1-0.1 0.3-0.2 0.3-0.4 0-0.2 0.2-0.2 0.3-0.4 0-0.1 0.1-0.3 0.3-0.4 0-0.1 0-0.3 0.2-0.3 0.1-0.1 0.1-0.4 0.2-0.5 0.2-0.1 0.2-0.3 0.3-0.4 0.2-0.1 0.2-0.4 0.4-0.5 0.1-0.1 0.2-0.4 0.3-0.5q0-0.2 0.1-0.2c0.2-0.1 0.1-0.4 0.3-0.5 0.2-0.1 0.2-0.4 0.3-0.5 0-0.2 0.3-0.3 0.3-0.4 0-0.2 0.1-0.3 0.2-0.3 0.2-0.1 0.1-0.3 0.2-0.4 0.1-0.1 0.1-0.3 0.2-0.4zm-74.5-37.7c0 0.1 0.1 0.3-0.1 0.4-0.1 0.1 0 0.2-0.2 0.3-0.1 0.1 0.1 0.4-0.1 0.5-0.1 0 0 0.1-0.1 0.2 0 0.1-0.1 0.2-0.1 0.3 0 0.2 0 0.3-0.1 0.4 0 0.2-0.2 0.2-0.2 0.4 0.1 0.2-0.2 0.3-0.1 0.5 0 0.2-0.2 0.3-0.2 0.4 0 0.2-0.2 0.4-0.2 0.6-0.2 0.1 0 0.4-0.2 0.5-0.1 0 0 0.1 0 0.2 0 0.2-0.3 0.3-0.2 0.6-0.2 0.1-0.3 0.3-0.3 0.5 0 0.3-0.3 0.4-0.1 0.6q-0.3 0.2-0.2 0.5c-0.2 0.1-0.1 0.3-0.3 0.4 0 0.1 0 0.1 0 0.2 0.1 0.2-0.2 0.3-0.1 0.4 0 0.3-0.3 0.4-0.2 0.6-0.3 0.1-0.1 0.4-0.3 0.5q0 0 0 0.1c0.1 0.2-0.2 0.3-0.1 0.5 0 0.2-0.2 0.3-0.2 0.4 0 0.2-0.2 0.2-0.2 0.4 0.1 0.2-0.2 0.3-0.1 0.5 0 0.1-0.2 0.2-0.2 0.4 0.1 0.2-0.2 0.2-0.1 0.4-0.1 0.1-0.2 0.2-0.2 0.3 0.1 0.2-0.2 0.3-0.1 0.4 0.1 0.2-0.2 0.3-0.2 0.5 0.1 0.2-0.2 0.3-0.1 0.5-0.3 0.1-0.1 0.5-0.3 0.6q0 0 0 0.1c0.1 0.2-0.2 0.3-0.2 0.4 0.1 0.2-0.1 0.3-0.1 0.5 0 0.1-0.2 0.2-0.2 0.4 0.1 0.2-0.2 0.2-0.1 0.4 0 0.2-0.2 0.3-0.2 0.4 0.1 0.2-0.2 0.3-0.1 0.5-0.1 0.1-0.2 0.2-0.2 0.3 0.1 0.2-0.2 0.2-0.1 0.4 0.1 0.2-0.2 0.3-0.2 0.5 0 0.2-0.1 0.4-0.2 0.5-0.1 0.2 0 0.3-0.1 0.4q0 0.1-0.1 0.1 0 0.2 0 0.4-0.1 0-0.2 0.1 0 0.2 0 0.3c-0.1 0.1-0.2 0.3-0.2 0.4-0.1 0.2-0.2 0.4-0.2 0.6 0 0.2-0.2 0.3-0.2 0.5 0.1 0.2-0.2 0.3-0.1 0.5-0.1 0-0.2 0.1-0.2 0.3 0.1 0.1-0.2 0.2-0.1 0.4 0 0.2-0.2 0.3-0.2 0.4 0.1 0.2-0.1 0.3-0.1 0.5 0 0.1-0.1 0.1-0.2 0.2 0 0.1 0.1 0.2 0 0.3q-0.1 0.1-0.1 0.1 0 0.2 0 0.3-0.1 0.1-0.2 0.2c0 0.1 0.1 0.2 0 0.3-0.2 0.1-0.1 0.3-0.2 0.4-0.2 0.1 0 0.3-0.2 0.5 0 0 0 0.1 0 0.2-0.1 0.1-0.2 0.2-0.2 0.3 0 0.1 0 0.3-0.1 0.4 0 0.1-0.2 0.2-0.2 0.4 0.1 0.2-0.2 0.3-0.1 0.4 0 0.3-0.3 0.4-0.2 0.6q-0.1 0.3-0.3 0.6 0 0.1 0 0.2-0.1 0.1-0.1 0.2 0 0.1 0 0.3-0.1 0.1-0.2 0.1c0 0.2 0.1 0.3-0.1 0.4-0.1 0.1 0 0.2-0.1 0.4-0.1 0.1 0 0.3-0.2 0.4 0 0 0 0.2 0 0.2-0.1 0.1-0.2 0.2-0.2 0.3 0 0.2 0 0.3-0.1 0.4 0 0.2-0.2 0.3-0.2 0.4 0.1 0.2-0.2 0.3-0.1 0.5 0 0.2-0.2 0.3-0.2 0.4 0.1 0.3-0.1 0.3-0.1 0.5 0 0.1-0.2 0.2-0.2 0.3 0.1 0.2-0.2 0.3-0.1 0.4 0 0.2-0.2 0.3-0.2 0.5 0.1 0.2-0.1 0.3-0.1 0.4-0.2 0.2-0.1 0.5-0.3 0.8 0 0.1-0.2 0.3-0.2 0.4 0.1 0.2-0.1 0.3-0.1 0.5-0.1 0.1-0.2 0.2-0.2 0.4 0.1 0.1-0.2 0.2-0.1 0.4 0 0.2-0.3 0.3-0.2 0.6 0 0.1-0.1 0.1-0.2 0.3 0 0.1-0.1 0.1-0.1 0.3 0.1 0.2-0.2 0.2-0.1 0.4 0 0.2-0.3 0.4-0.2 0.7-0.2 0.1-0.3 0.3-0.3 0.5 0 0.2-0.3 0.4-0.1 0.6-0.3 0.1-0.1 0.4-0.2 0.5-0.2 0.2-0.2 0.4-0.3 0.5 0.1 0.2-0.2 0.3-0.1 0.5 0 0.2-0.2 0.3-0.2 0.5 0 0 0 0.2 0 0.2-0.2 0.1-0.1 0.3-0.3 0.4q0 0.2 0 0.3-0.1 0.1-0.1 0.2 0 0.1 0 0.3c-0.1 0-0.2 0.1-0.2 0.1 0 0.2-0.1 0.3-0.1 0.5-0.1 0.2-0.3 0.3-0.2 0.5-0.2 0.1-0.1 0.4-0.2 0.5-0.1 0.2-0.1 0.3-0.2 0.4-0.1 0.1 0 0.3-0.1 0.4-0.1 0.1-0.1 0.2-0.1 0.4 0 0.1-0.2 0.2-0.2 0.4 0.1 0.1-0.1 0.2-0.1 0.4 0 0.2-0.1 0.3-0.2 0.5 0 0-0.1 0.1-0.1 0.1 0.1 0.2-0.2 0.3-0.1 0.5 0 0.2-0.2 0.3-0.2 0.5 0 0.1-0.2 0.2-0.2 0.4 0.1 0.1-0.2 0.2-0.1 0.4 0 0.1-0.1 0.2-0.2 0.3 0 0.2 0 0.3-0.1 0.4 0.1 0.2-0.2 0.3-0.2 0.4 0.1 0.2-0.1 0.3-0.1 0.5 0 0.2-0.2 0.3-0.2 0.4 0.1 0.3-0.1 0.4-0.2 0.6-0.2 0.1 0.1 0.4-0.2 0.5 0 0 0 0.1 0 0.1 0 0.2-0.1 0.3-0.1 0.4-0.1 0.2-0.2 0.3-0.2 0.5 0 0.1-0.2 0.2-0.2 0.4 0.1 0.2-0.2 0.3-0.1 0.5 0 0.1-0.1 0.2-0.2 0.3 0 0.2 0 0.3-0.1 0.4 0 0.2-0.2 0.2-0.2 0.4 0.1 0.2-0.2 0.3-0.1 0.4 0 0.2-0.2 0.3-0.2 0.5 0.1 0.2-0.2 0.3-0.1 0.5q-0.2 0.1-0.2 0.4c0.1 0.1-0.2 0.2-0.1 0.3 0 0.3-0.2 0.4-0.2 0.7-0.1 0.1-0.2 0.3-0.3 0.5 0 0.2-0.2 0.4-0.1 0.6-0.3 0.1-0.1 0.4-0.2 0.5-0.1 0.2-0.1 0.4-0.3 0.5 0.1 0.2-0.1 0.3-0.1 0.5 0 0.2-0.2 0.3-0.2 0.5 0 0 0 0.2 0 0.2-0.2 0.1-0.1 0.3-0.3 0.4q0 0.2 0 0.3-0.1 0.1-0.1 0.2c0 0.1 0 0.2 0 0.2-0.1 0.1-0.1 0.2-0.2 0.3 0 0.1 0 0.2 0 0.2-0.2 0.2-0.2 0.4-0.3 0.6 0 0.2-0.2 0.4-0.1 0.6-0.3 0.1-0.1 0.4-0.2 0.5-0.2 0.1-0.1 0.3-0.3 0.4 0.1 0.3-0.2 0.4-0.1 0.6 0 0.2-0.2 0.3-0.2 0.4 0 0.1 0 0.2 0 0.3-0.2 0-0.1 0.3-0.3 0.4q0 0.1 0 0.3-0.1 0-0.1 0.1 0 0.2 0 0.3c-0.1 0.1-0.2 0.2-0.2 0.2 0.1 0.2-0.1 0.4-0.1 0.5-0.1 0.2-0.2 0.3-0.2 0.5 0 0-0.1 0.1-0.1 0.2q0 0.2 0 0.3-0.1 0.1-0.2 0.1 0 0.2 0 0.3c-0.2 0.1-0.1 0.3-0.3 0.4 0 0.3-0.1 0.4-0.1 0.6q-0.1 0.2-0.2 0.4c0 0.1 0 0.2 0 0.3-0.2 0.1-0.1 0.3-0.2 0.4-0.2 0.1 0 0.3-0.1 0.3-0.1 0.1-0.1 0.3-0.1 0.4-0.1 0.2-0.2 0.4-0.2 0.5-0.1 0.2-0.2 0.4-0.3 0.5q0 0.3 0 0.5c0.3 0 0.5 0.1 0.6 0.1 0.3 0 0.4 0.3 0.6 0.2 0.2 0.1 0.4 0.2 0.6 0.2q0 0.1 0.1 0.1 0.1 0 0.3 0 0.1 0.1 0.2 0.2 0.1 0 0.2 0c0.1 0 0.1 0.1 0.2 0.1 0.1 0 0.2 0 0.3 0 0.1 0.2 0.3 0.2 0.4 0.2 0.1 0 0.2-0.1 0.3 0 0.1 0.2 0.3 0 0.4 0.2 0.1 0.1 0.2 0.1 0.4 0.1q0.1 0 0.2 0.1 0.2 0 0.4 0 0.1 0.1 0.2 0.2 0.1 0 0.3 0 0 0 0.1 0.1 0.3 0 0.5 0 0.1 0.1 0.1 0.2c0.4-0.1 0.6 0.1 0.9 0.2 0.1 0 0.1 0 0.2 0.1q0.2 0 0.4 0 0.1 0 0.2 0.1 0.2 0 0.4 0 0.1 0.1 0.2 0.2 0.2 0 0.4 0 0.1 0.1 0.2 0.1 0.2 0 0.4 0c0.1 0.1 0.1 0.1 0.2 0.2q0.3 0 0.6 0c0 0 0.1 0.1 0.1 0.1q0.3 0 0.6 0c0.1 0.1 0.1 0.1 0.2 0.2q0.2 0 0.4 0 0.1 0.1 0.2 0.1 0.3 0 0.6 0 0.1 0.1 0.1 0.2 0.3 0 0.6 0c0.1 0 0.1 0 0.2 0.1q0.3 0 0.7 0c0.1 0.1 0.1 0.1 0.2 0.2q0.4 0 0.7 0c0.1 0 0.1 0.1 0.2 0.1 0.2 0 0.5 0 0.8 0 0 0.1 0.1 0.1 0.1 0.2q0.5 0 0.9 0 0.1 0.1 0.1 0.1 0.5 0 0.9 0 0.1 0.1 0.2 0.2 0.6 0 1.2 0c0.1 0 0.1 0 0.1 0.1q0.7 0 1.4 0c0.1 0.1 0.1 0.1 0.2 0.2 0.6 0 1.2 0 1.8 0 0 0 0.1 0.1 0.1 0.1 1 0 1.9 0 2.9 0q0.1 0.1 0.1 0.2 2.1 0 4.2 0 0 0 0.1-0.1 0 0 0.1-0.1 0 0 0.1 0 1.4 0 2.7 0 0.1-0.1 0.2-0.1 0.8 0 1.7 0 0.1-0.1 0.1-0.2 0.8 0 1.5 0 0.1 0 0.2-0.1c0.4 0 0.8 0 1.2 0 0-0.1 0.1-0.1 0.1-0.2q0.5 0 0.9 0c0.1-0.1 0.1-0.1 0.2-0.2q0.4 0 0.7 0 0.1 0 0.2-0.1 0.4 0 0.9 0 0.1-0.1 0.1-0.1 0.4 0 0.8 0 0-0.1 0.1-0.2 0.3 0 0.6 0 0.1-0.1 0.2-0.1 0.3 0 0.6 0 0.1-0.1 0.1-0.2 0.4 0 0.7 0c0-0.1 0-0.1 0.1-0.2 0.2 0 0.4 0 0.6 0q0.1 0 0.1-0.1c0.3 0 0.5 0.1 0.7 0 0-0.1 0.1-0.1 0.1-0.1q0.2 0 0.4 0 0.1-0.1 0.2-0.2 0.3 0 0.5 0 0-0.1 0.1-0.1 0.2 0 0.5-0.1c0.1-0.2 0.3-0.1 0.5-0.1q0.1-0.1 0.2-0.1 0.2 0 0.4 0 0.1-0.1 0.2-0.2 0.2 0 0.5 0 0-0.1 0.1-0.1 0.2 0 0.5 0c0.1-0.3 0.3-0.1 0.5-0.3 0.1-0.1 0.2 0 0.3 0 0.1 0 0.2 0 0.3-0.1 0.1-0.2 0.3 0 0.4-0.1q0.1-0.1 0.1-0.1 0.2 0 0.5 0 0-0.1 0.1-0.2 0.2 0 0.3 0 0.1-0.1 0.2-0.1c0.2 0.1 0.4-0.2 0.6-0.2 0.2 0 0.4-0.2 0.6-0.2 0.1-0.2 0.5 0 0.6-0.2q0.1 0 0.3 0 0-0.1 0.1-0.2 0.2 0 0.3 0 0.1-0.1 0.2-0.2 0.2 0 0.3 0 0.1 0 0.2-0.1 0.1 0 0.2 0c0.1-0.1 0.3-0.1 0.3-0.3q-0.2-0.3-0.3-0.5c0.1-0.3-0.2-0.4-0.2-0.7 0-0.1-0.2-0.2-0.1-0.4 0-0.2-0.3-0.2-0.2-0.4-0.1-0.1-0.2-0.2-0.1-0.3 0-0.2-0.2-0.3-0.2-0.4 0.1-0.2-0.2-0.3-0.1-0.5 0-0.2-0.2-0.3-0.2-0.4 0-0.1-0.1-0.2-0.1-0.3-0.1-0.1 0-0.2-0.1-0.2q0-0.1-0.1-0.2 0-0.1 0-0.3-0.1-0.1-0.1-0.1c-0.1-0.2 0-0.3-0.1-0.4-0.1-0.1-0.1-0.3-0.2-0.4-0.1-0.1 0-0.3-0.2-0.4 0 0 0-0.2 0-0.2 0-0.1-0.1-0.2-0.1-0.3-0.1-0.2-0.1-0.3-0.2-0.4 0.1-0.2-0.2-0.3-0.1-0.4 0-0.2-0.2-0.3-0.2-0.5 0.1-0.2-0.2-0.3-0.2-0.5 0-0.2-0.1-0.4-0.2-0.5-0.1-0.1 0-0.3-0.1-0.4q0-0.1-0.1-0.1 0-0.2 0-0.3-0.1-0.1-0.1-0.2c-0.1-0.1 0-0.3-0.1-0.4-0.1 0-0.1-0.2-0.2-0.3-0.1-0.1 0-0.4-0.2-0.5 0 0 0-0.1 0-0.2-0.1-0.1-0.1-0.2-0.1-0.3-0.1-0.2-0.1-0.3-0.2-0.4 0.1-0.2-0.2-0.2-0.2-0.4 0.1-0.2-0.1-0.3-0.1-0.4 0.1-0.3-0.2-0.3-0.2-0.5 0.1-0.2-0.1-0.3-0.2-0.5-0.2-0.2 0.1-0.5-0.2-0.6q0 0 0-0.1c0-0.1-0.1-0.3-0.1-0.4q-0.1-0.2-0.2-0.4c0-0.2-0.2-0.3-0.2-0.5 0.1-0.2-0.2-0.3-0.1-0.5 0-0.1-0.1-0.2-0.2-0.3 0-0.1 0-0.3-0.1-0.4 0.1-0.2-0.2-0.2-0.2-0.4 0.1-0.2-0.1-0.3-0.1-0.5 0-0.2-0.1-0.4-0.2-0.6-0.1-0.2-0.3-0.4-0.3-0.7 0-0.1-0.2-0.2-0.1-0.3 0-0.2-0.2-0.2-0.2-0.4 0-0.1-0.2-0.2-0.1-0.4 0-0.2-0.2-0.3-0.2-0.5 0.1-0.1-0.2-0.2-0.1-0.4 0.1-0.2-0.2-0.2-0.2-0.4-0.1-0.1-0.2-0.2-0.1-0.3 0-0.2-0.2-0.3-0.2-0.4 0.1-0.2-0.1-0.3-0.1-0.6 0-0.1-0.2-0.3-0.3-0.4 0-0.2 0-0.3 0-0.4q-0.1-0.1-0.2-0.2 0-0.1 0-0.3 0 0-0.1-0.1 0-0.2 0-0.3c-0.3-0.3-0.3-0.7-0.5-1 0.1-0.2-0.2-0.3-0.1-0.5 0.1-0.2-0.3-0.3-0.2-0.5-0.1-0.1-0.2-0.1-0.1-0.3 0-0.2-0.2-0.2-0.2-0.4 0.1-0.2-0.2-0.3-0.1-0.4 0-0.2-0.2-0.3-0.2-0.5 0-0.1-0.1-0.2-0.1-0.2-0.1-0.1 0-0.2 0-0.3q-0.1-0.1-0.2-0.1 0-0.2 0-0.3-0.1-0.1-0.1-0.2c-0.1-0.1 0-0.3-0.1-0.3-0.1-0.1-0.1-0.3-0.2-0.4-0.1-0.1 0-0.4-0.2-0.5 0 0 0-0.1 0-0.2 0-0.1-0.1-0.2-0.1-0.3 0-0.2 0-0.3-0.2-0.4 0.1-0.2-0.2-0.2-0.1-0.4 0-0.2-0.2-0.3-0.2-0.4 0.1-0.3-0.2-0.4-0.1-0.7q-0.2-0.2-0.3-0.5 0-0.1 0-0.2-0.1-0.1-0.2-0.2 0-0.1 0-0.3-0.1-0.1-0.1-0.1c-0.1-0.2 0-0.3-0.1-0.4-0.1-0.1-0.1-0.3-0.2-0.4-0.1-0.1 0-0.3-0.2-0.4 0-0.1 0-0.2 0-0.3 0-0.1-0.1-0.2-0.1-0.3 0-0.1 0-0.3-0.2-0.4 0.1-0.1-0.2-0.2-0.1-0.3 0-0.2-0.2-0.3-0.2-0.5 0.1-0.2-0.2-0.3-0.1-0.5 0-0.2-0.2-0.3-0.2-0.5q-0.1-0.1-0.2-0.3c0-0.1-0.1-0.2-0.1-0.3 0.1-0.2-0.2-0.3-0.1-0.5 0-0.2-0.2-0.3-0.2-0.5-0.2-0.2-0.1-0.5-0.3-0.7 0.1-0.2-0.1-0.3-0.1-0.4 0-0.2-0.2-0.3-0.2-0.5 0-0.1-0.2-0.2-0.2-0.4 0.1-0.2-0.1-0.2-0.1-0.4 0-0.2-0.2-0.4-0.2-0.6 0.1-0.1-0.1-0.1-0.1-0.3 0-0.1-0.2-0.2-0.2-0.3 0.1-0.2-0.1-0.3-0.1-0.4 0-0.3-0.2-0.4-0.2-0.7-0.1-0.1-0.2-0.3-0.2-0.5-0.1-0.3-0.3-0.4-0.2-0.7-0.3-0.1-0.1-0.3-0.2-0.5-0.1-0.1-0.1-0.3-0.3-0.4 0.1-0.2-0.1-0.4-0.1-0.5 0-0.2-0.2-0.3-0.2-0.5 0.1-0.1 0-0.2 0-0.2-0.1-0.1-0.1-0.4-0.3-0.4q0-0.2 0-0.3 0-0.1-0.1-0.2 0-0.1 0-0.3c-0.3-0.3-0.3-0.7-0.5-1 0.1-0.2-0.2-0.3-0.1-0.5 0.1-0.2-0.2-0.2-0.2-0.4-0.1-0.1-0.2-0.2-0.1-0.3 0-0.2-0.2-0.3-0.2-0.4 0.1-0.3-0.1-0.4-0.1-0.6 0-0.1-0.1-0.3-0.3-0.5 0-0.1 0-0.2 0-0.3q-0.1-0.1-0.2-0.2 0-0.1 0-0.3 0-0.1-0.1-0.1c0.1-0.3-0.2-0.4-0.2-0.7 0-0.1-0.1-0.3-0.2-0.4 0-0.1-0.1-0.2-0.1-0.3 0.1-0.1-0.1-0.2-0.1-0.4 0-0.2-0.2-0.3-0.2-0.4 0-0.2-0.2-0.2-0.1-0.4 0-0.2-0.2-0.2-0.2-0.4 0.1-0.2-0.2-0.4-0.1-0.6q-0.2-0.3-0.3-0.5 0-0.2 0-0.3-0.1-0.1-0.2-0.2 0-0.1 0-0.3-0.1 0-0.1-0.1c0-0.1 0-0.3-0.1-0.4-0.1-0.1-0.1-0.2-0.2-0.3-0.1-0.2 0-0.4-0.2-0.5 0 0 0-0.1 0-0.2 0-0.1-0.1-0.2-0.1-0.3 0-0.2 0-0.3-0.2-0.4 0.1-0.2-0.2-0.2-0.1-0.4 0-0.2-0.2-0.3-0.2-0.5 0.1-0.2-0.2-0.2-0.1-0.4 0-0.2-0.2-0.3-0.2-0.5 0-0.1-0.2-0.2-0.1-0.3 0-0.2-0.2-0.2-0.2-0.4 0.1-0.2-0.2-0.3-0.1-0.5 0-0.2-0.2-0.2-0.2-0.4-0.2-0.2-0.1-0.5-0.3-0.7 0.1-0.2-0.1-0.3-0.1-0.5 0-0.2-0.2-0.3-0.2-0.4 0-0.2-0.2-0.3-0.1-0.4 0-0.2-0.2-0.3-0.2-0.5 0-0.2-0.2-0.3-0.1-0.5 0-0.1-0.2-0.2-0.2-0.4 0-0.1-0.2-0.1-0.1-0.3 0-0.1-0.2-0.2-0.2-0.4 0.1-0.2-0.2-0.4-0.2-0.6-0.1-0.2-0.2-0.4-0.2-0.6 0-0.2-0.3-0.4-0.2-0.6-0.2-0.1-0.1-0.4-0.2-0.5-0.1-0.2-0.1-0.4-0.2-0.5 0.1-0.2-0.2-0.3-0.2-0.5 0.1-0.2-0.2-0.3-0.1-0.5 0 0 0-0.1-0.1-0.2-0.1-0.1-0.1-0.3-0.2-0.4q0-0.1 0-0.3-0.1-0.1-0.2-0.2 0-0.1 0-0.2c-0.2-0.1-0.1-0.4-0.2-0.6-0.1-0.1-0.2-0.3-0.3-0.5 0-0.2-0.2-0.4-0.1-0.6q-0.1-0.1-0.1-0.1c-0.1-0.2 0-0.3-0.1-0.5-0.1 0-0.2-0.2-0.2-0.3q-0.1-0.3-0.2-0.5c0.1-0.2-0.2-0.3-0.1-0.5 0-0.2-0.3-0.3-0.2-0.5 0 0-0.1 0-0.1 0q-0.1 0.1-0.2 0.1c0 0.2 0 0.3-0.1 0.5-0.1 0.1 0 0.3-0.2 0.4-0.1 0.1 0.1 0.3-0.1 0.4-0.1 0.2-0.1 0.3-0.2 0.5q0 0.1 0 0.2-0.1 0.1-0.2 0.2 0 0.1 0 0.3 0 0-0.1 0.1zm0.1-8.5q0.1 0 0.1-0.1 0-41.1 0-82.2 0 0-0.1-0.1-2.2 0-4.4 0-0.1 0.1-0.1 0.2-0.5 0-1 0-0.5 0-1 0c-0.1 0-0.1 0.1-0.1 0.1q-0.4 0-0.8 0-0.4 0-0.7 0c-0.1 0.1-0.2 0.1-0.2 0.2q-0.7 0-1.3 0-0.1 0-0.1 0-0.1 0.1-0.1 0.1-0.5 0-1.1 0 0 0.1-0.1 0.2-0.5 0-0.9 0c-0.1 0-0.1 0.1-0.2 0.1-0.2 0-0.6 0-0.9 0q0 0.1-0.1 0.2c-0.3 0-0.5 0-0.8 0q-0.1 0.1-0.1 0.1c-0.3 0.1-0.6 0-0.8 0q-0.1 0.1-0.1 0.2-0.4 0-0.8 0 0 0-0.1 0.1-0.3 0-0.6 0-0.1 0.1-0.2 0.2-0.3 0-0.6 0-0.1 0.1-0.2 0.1-0.2 0-0.4 0-0.1 0.1-0.2 0.2-0.3 0-0.5 0-0.2 0.1-0.2 0.1c-0.2 0-0.3 0-0.5 0.1q0 0-0.1 0.1c-0.2 0-0.4 0-0.6 0q-0.1 0.1-0.2 0.1-0.2 0-0.4 0-0.1 0.1-0.2 0.2-0.2 0-0.4 0c-0.1 0.2-0.5 0-0.6 0.3-0.2 0-0.5-0.1-0.6 0.1q-0.2 0-0.4 0-0.1 0.1-0.2 0.2-0.1 0-0.3 0-0.1 0.1-0.2 0.1-0.1 0-0.3 0 0 0.1-0.1 0.2-0.3 0-0.4 0c-0.1 0.1-0.2 0.1-0.3 0.1-0.1 0-0.2 0-0.3 0.1-0.1 0.2-0.4 0-0.5 0.2-0.2 0-0.4 0.1-0.5 0.2-0.3-0.1-0.5 0.2-0.7 0.1-0.1 0.2-0.3 0.2-0.4 0.2-0.1 0-0.2 0.1-0.3 0.1-0.2 0-0.3 0.2-0.4 0.2-0.3-0.1-0.4 0.2-0.6 0.1-0.2 0-0.3 0.2-0.5 0.2-0.1 0.2-0.4 0-0.5 0.2q-0.4 0.1-0.8 0.4 0 0 0 0c-0.2 0-0.3 0-0.4 0.1-0.2 0-0.3 0.3-0.5 0.2-0.2-0.1-0.2 0.1-0.4 0.1 0 0.1-0.1 0.2-0.2 0.2-0.3 0-0.5 0.1-0.7 0.2q-0.3 0.2-0.7 0.3c-0.1 0.1-0.2 0.1-0.4 0.2 0 0.1-0.2 0.1-0.3 0.2-0.1 0.1-0.3 0.1-0.4 0.1-0.2 0-0.3 0.1-0.4 0.2q-0.5 0.2-0.9 0.4c-0.2 0.1-0.3 0.2-0.5 0.3q-0.2 0.1-0.5 0.2-0.2 0.1-0.4 0.2-0.2 0.2-0.5 0.3c-0.2 0-0.3 0.1-0.4 0.2-0.2 0.1-0.4 0.1-0.5 0.2-0.2 0.2-0.4 0.1-0.5 0.3-0.2 0-0.3 0.2-0.4 0.3-0.2 0.1-0.4 0.1-0.5 0.2-0.1 0.1-0.3 0.2-0.5 0.2-0.2 0.1-0.2 0.3-0.4 0.3-0.2 0.1-0.3 0.2-0.4 0.2-0.2 0-0.4 0.2-0.4 0.3-0.2 0.1-0.4 0.1-0.5 0.3 0 0-0.2 0-0.2 0.1-0.2 0.2-0.5 0.2-0.7 0.4q-0.3 0.2-0.6 0.4c-0.1 0-0.2 0-0.2 0.1-0.2 0.1-0.4 0.2-0.5 0.3-0.1 0.2-0.4 0.2-0.5 0.4-0.3-0.1-0.3 0.2-0.5 0.2-0.3 0.1-0.3 0.4-0.6 0.4-0.1 0-0.2 0.2-0.4 0.3-0.2 0-0.2 0.2-0.4 0.2-0.2 0.1-0.2 0.2-0.4 0.3-0.1 0.1-0.1 0.2-0.2 0.2-0.2 0-0.3 0.4-0.5 0.3q-0.3 0.3-0.6 0.4c-0.1 0.1-0.2 0.2-0.3 0.4-0.3-0.1-0.4 0.2-0.5 0.3-0.1 0-0.1 0.1-0.3 0.1-0.2 0.1-0.2 0.4-0.4 0.3q-0.1 0-0.1 0.1c-0.2 0.1-0.3 0.3-0.5 0.4-0.2 0.1-0.4 0.3-0.6 0.5-0.1 0.1-0.2 0-0.3 0.2-0.1 0.1-0.2 0.2-0.3 0.3-0.2 0-0.3 0.2-0.5 0.3-0.1 0.1-0.2 0.3-0.4 0.3-0.2 0.1-0.3 0.2-0.4 0.4q-0.2 0.2-0.5 0.4c0.2 0.3 0.5 0.5 0.7 0.9 0.1 0.2 0.3 0.3 0.5 0.4 0.1 0.2 0.2 0.4 0.4 0.6 0.2 0.3 0.6 0.5 0.8 0.9 0 0.2 0.2 0.4 0.4 0.5 0.2 0.1 0.2 0.4 0.4 0.5 0.2 0.2 0.4 0.4 0.5 0.6q0.1 0.1 0.1 0.2c0.3 0.3 0.6 0.5 0.8 0.9 0 0.1 0.2 0.2 0.3 0.4 0.2 0.1 0.3 0.2 0.4 0.4 0 0.2 0.2 0.3 0.3 0.4 0.2 0.3 0.5 0.4 0.6 0.7 0.1 0.2 0.3 0.4 0.5 0.5 0.2 0.2 0.2 0.4 0.4 0.6 0.2 0.2 0.5 0.4 0.7 0.8 0.1 0.2 0.3 0.3 0.4 0.5 0.2 0.1 0.3 0.3 0.4 0.5 0.3 0.3 0.6 0.5 0.8 0.9 0.1 0.2 0.3 0.4 0.5 0.5 0.2 0.2 0.2 0.4 0.4 0.6 0.2 0.1 0.4 0.3 0.5 0.5 0.1 0.1 0.1 0.2 0.1 0.2 0.2 0.3 0.6 0.5 0.8 0.9q0.2 0.3 0.5 0.6c0.2 0.1 0.2 0.4 0.5 0.6 0.2 0.2 0.5 0.4 0.6 0.8 0.1 0.2 0.3 0.3 0.5 0.4 0.2 0.2 0.2 0.4 0.3 0.6 0.3 0.2 0.6 0.5 0.8 0.8 0 0.2 0.2 0.3 0.4 0.4 0.2 0.2 0.2 0.4 0.3 0.6 0.3 0.2 0.6 0.5 0.7 0.8 0.2 0.2 0.4 0.4 0.6 0.6 0.3 0.1 0.3 0.4 0.5 0.6 0.2 0.2 0.4 0.4 0.5 0.5 0 0.1 0 0.2 0.1 0.2q0.3 0.4 0.6 0.7c0.1 0 0.1 0.1 0.1 0.2 0.2 0.3 0.6 0.5 0.8 0.9 0.2 0.2 0.4 0.4 0.6 0.6 0.2 0.2 0.3 0.5 0.5 0.7 0.2 0.2 0.5 0.4 0.5 0.7q0.3 0.3 0.7 0.6 0 0.1 0 0.1c0.1 0.3 0.3 0.4 0.5 0.6 0.2 0.2 0.3 0.4 0.5 0.6 0.3 0.3 0.6 0.6 0.8 1 0.1 0.2 0.3 0.3 0.4 0.5 0.2 0.1 0.3 0.3 0.4 0.5q0.3 0.3 0.6 0.6 0 0.1 0 0.1 0.4 0.4 0.8 0.8 0 0 0 0.1c0.2 0.3 0.6 0.5 0.8 1 0.2 0.2 0.3 0.4 0.5 0.5 0.3 0.2 0.3 0.5 0.6 0.7 0.2 0.2 0.4 0.4 0.5 0.7 0.1 0.2 0.3 0.4 0.5 0.5 0.2 0.1 0.2 0.4 0.3 0.5 0.3 0.3 0.6 0.5 0.8 0.8 0.1 0.2 0.3 0.4 0.4 0.5 0.2 0.2 0.3 0.4 0.4 0.6 0.3 0.3 0.6 0.5 0.8 0.9 0.1 0.2 0.3 0.3 0.4 0.4 0.1 0.1 0.3 0.2 0.3 0.4q0.2 0.2 0.4 0.5 0.2 0.1 0.3 0.3c0.1 0 0 0.1 0 0.1 0.3 0.4 0.7 0.5 0.8 1 0.2 0.2 0.4 0.4 0.6 0.6 0.3 0.1 0.3 0.5 0.6 0.7 0.2 0.1 0.4 0.3 0.5 0.6 0.1 0.2 0.3 0.4 0.5 0.5 0.2 0.1 0.2 0.4 0.3 0.5 0.3 0.3 0.6 0.5 0.7 0.9 0.1 0.2 0.4 0.3 0.5 0.5 0.1 0.1 0.2 0.3 0.4 0.5 0.2 0.3 0.6 0.5 0.8 0.9 0.1 0.2 0.3 0.4 0.5 0.5 0.2 0.1 0.1 0.4 0.3 0.5 0.2 0.2 0.4 0.4 0.6 0.6q0 0.1 0.1 0.2c0.2 0.3 0.6 0.5 0.7 0.9 0.1 0.1 0.3 0.2 0.4 0.4 0.1 0.1 0.3 0.2 0.3 0.4 0.1 0.2 0.3 0.3 0.4 0.4 0.2 0.3 0.5 0.4 0.6 0.7 0.1 0.2 0.3 0.4 0.5 0.5 0.1 0.2 0.2 0.4 0.3 0.6 0.3 0.2 0.6 0.4 0.7 0.8 0.1 0.2 0.3 0.3 0.5 0.5 0.1 0.1 0.2 0.3 0.4 0.5 0.2 0.3 0.6 0.5 0.8 0.9 0.1 0.2 0.3 0.4 0.4 0.5 0.2 0.2 0.2 0.4 0.4 0.5q0.3 0.3 0.6 0.6c0 0.1 0 0.1 0 0.2 0.2 0.2 0.3 0.4 0.5 0.5 0.2 0.2 0.3 0.4 0.4 0.6 0.3 0.3 0.7 0.5 0.8 0.9 0.1 0.2 0.3 0.3 0.5 0.4 0.2 0.2 0.2 0.4 0.3 0.6 0.3 0.2 0.6 0.5 0.8 0.8 0 0.2 0.2 0.3 0.4 0.4 0.2 0.2 0.2 0.4 0.3 0.6 0.3 0.2 0.6 0.4 0.7 0.8q0.4 0.3 0.7 0.7c0.1 0 0.2 0.1 0.2 0.2 0 0.1 0.1 0.2 0.2 0.3q0.1 0.2 0.3 0.3zm51.8-56.2c-0.2 0.4-0.6 0.5-0.7 1q-0.5 0.4-0.9 0.9 0 0 0 0.1-0.4 0.4-0.8 0.8 0 0 0 0.1-0.3 0.4-0.7 0.8 0 0 0 0.1c-0.3 0.4-0.6 0.5-0.8 1-0.1 0.2-0.3 0.3-0.5 0.4-0.2 0.2-0.2 0.5-0.4 0.6-0.3 0.3-0.6 0.6-0.8 1-0.1 0.1-0.3 0.3-0.4 0.4-0.2 0.1-0.3 0.4-0.4 0.5-0.3 0.3-0.5 0.5-0.7 0.9-0.1 0.1-0.3 0.3-0.5 0.4-0.1 0.2-0.2 0.4-0.4 0.6-0.2 0.3-0.6 0.5-0.8 0.9-0.1 0.2-0.3 0.3-0.4 0.5-0.2 0.1-0.2 0.4-0.4 0.5-0.2 0.2-0.4 0.4-0.6 0.6q0 0.1 0 0.1c-0.2 0.4-0.6 0.5-0.8 1 0 0.1-0.3 0.2-0.4 0.4-0.1 0.1-0.3 0.2-0.3 0.4-0.1 0.2-0.2 0.3-0.4 0.4-0.2 0.2-0.4 0.4-0.6 0.7 0 0.2-0.2 0.4-0.4 0.5-0.2 0.1-0.2 0.4-0.4 0.5-0.2 0.3-0.5 0.5-0.7 0.9-0.1 0.2-0.3 0.3-0.5 0.5-0.1 0.1-0.2 0.3-0.3 0.5-0.3 0.3-0.7 0.5-0.8 0.9-0.1 0.2-0.3 0.4-0.5 0.5-0.2 0.1-0.2 0.4-0.4 0.5-0.2 0.2-0.4 0.4-0.6 0.6q0 0.1 0 0.1c-0.2 0.4-0.6 0.6-0.8 1 0 0.2-0.2 0.2-0.3 0.4-0.2 0.1-0.3 0.2-0.4 0.4 0 0.2-0.2 0.3-0.3 0.4-0.2 0.3-0.5 0.4-0.6 0.7-0.1 0.2-0.3 0.4-0.5 0.5-0.2 0.2-0.2 0.4-0.4 0.6-0.2 0.2-0.5 0.4-0.7 0.8-0.1 0.2-0.3 0.3-0.4 0.5-0.2 0.1-0.3 0.3-0.4 0.5-0.3 0.3-0.6 0.5-0.8 0.9-0.1 0.2-0.3 0.4-0.5 0.5-0.2 0.2-0.2 0.4-0.4 0.5-0.2 0.2-0.3 0.4-0.5 0.6 0 0.1 0 0.2-0.1 0.2-0.1 0.2-0.3 0.4-0.5 0.5-0.2 0.2-0.2 0.4-0.4 0.6-0.2 0.2-0.5 0.4-0.6 0.7-0.1 0.2-0.4 0.4-0.6 0.6-0.2 0.2-0.3 0.5-0.5 0.7-0.2 0.2-0.5 0.3-0.5 0.7q-0.4 0.3-0.7 0.6 0 0 0 0.1c-0.1 0.3-0.3 0.4-0.5 0.6-0.2 0.2-0.3 0.4-0.5 0.6-0.3 0.3-0.6 0.6-0.8 1-0.1 0.1-0.3 0.3-0.5 0.4-0.1 0.2-0.2 0.4-0.3 0.6-0.2 0.2-0.4 0.4-0.6 0.5 0 0.1 0 0.2-0.1 0.2q-0.3 0.4-0.6 0.7c-0.1 0-0.1 0.1-0.1 0.2q-0.2 0.2-0.5 0.5c-0.1 0.1-0.2 0.3-0.3 0.5q-0.2 0.3-0.5 0.5c-0.2 0.1-0.3 0.4-0.4 0.5-0.3 0.3-0.6 0.6-0.8 0.9-0.1 0.2-0.2 0.3-0.4 0.5-0.2 0.1-0.2 0.3-0.4 0.5-0.2 0.3-0.5 0.5-0.7 0.8-0.1 0.2-0.3 0.4-0.5 0.6-0.2 0.1-0.3 0.4-0.5 0.6-0.2 0.2-0.5 0.4-0.6 0.8-0.1 0.1-0.3 0.3-0.4 0.4-0.1 0.1-0.3 0.2-0.3 0.4q-0.2 0.2-0.4 0.4-0.2 0.2-0.3 0.4c-0.1 0 0 0.1 0 0.1-0.3 0.3-0.7 0.5-0.8 1-0.2 0.2-0.4 0.4-0.6 0.5-0.3 0.2-0.3 0.5-0.6 0.7-0.2 0.2-0.4 0.4-0.5 0.7-0.1 0.2-0.3 0.4-0.5 0.5-0.2 0.1-0.2 0.4-0.4 0.5-0.2 0.3-0.5 0.5-0.7 0.8-0.1 0.3-0.3 0.4-0.5 0.6-0.2 0.2-0.3 0.4-0.4 0.6-0.3 0.2-0.5 0.5-0.7 0.8-0.1 0.2-0.3 0.3-0.5 0.5-0.2 0.1-0.2 0.4-0.3 0.5-0.3 0.2-0.4 0.4-0.6 0.6 0 0 0 0.1 0 0.1q-0.2 0.2-0.3 0.4-0.2 0.1-0.4 0.3c-0.1 0.1-0.1 0.3-0.2 0.4q-0.2 0.1-0.4 0.4c-0.1 0.1-0.3 0.2-0.4 0.4 0 0.2-0.2 0.2-0.3 0.4q0.1 0 0.2 0.1 0.1-0.1 0.2-0.2 0.4 0 0.7 0 0.1-0.1 0.2-0.1 0.3 0 0.6 0 0.1-0.1 0.2-0.2 0.3 0 0.7 0c0 0 0.1-0.1 0.1-0.1q0.4 0 0.8 0c0.1-0.1 0.1-0.1 0.2-0.2q0.3 0 0.6 0 0-0.1 0.1-0.2 0.4 0 0.8 0 0.1 0 0.1-0.1 0.4 0 0.8 0 0-0.1 0.1-0.1 0.4 0 0.8 0 0-0.1 0.1-0.2c0.2 0 0.4 0 0.6 0q0.1-0.1 0.2-0.1 0.3 0 0.7 0c0.1-0.1 0.1-0.1 0.2-0.2 0.2 0 0.4 0 0.6 0 0-0.1 0.1-0.1 0.1-0.2 0.3 0 0.6 0 0.8 0q0.1 0 0.1-0.1 0.4 0 0.8 0 0.1-0.1 0.1-0.1 0.4 0 0.8 0c0-0.1 0.1-0.1 0.1-0.2q0.3 0 0.6 0 0.1-0.1 0.2-0.1 0.4 0 0.8 0c0-0.1 0-0.1 0.1-0.2q0.3 0 0.6 0c0.1-0.1 0.1-0.1 0.2-0.2 0.2 0 0.5 0 0.7 0q0.1 0 0.1-0.1 0.4 0 0.8 0 0.1-0.1 0.2-0.1 0.3 0 0.7 0 0.1-0.1 0.2-0.2c0.1 0 0.4 0 0.5 0 0.1 0 0.1-0.1 0.2-0.1q0.4 0 0.8 0c0-0.1 0.1-0.1 0.1-0.2q0.3 0 0.6 0 0.1-0.1 0.2-0.1c0.2-0.1 0.5 0 0.7-0.1q0.1 0 0.2-0.1 0.3 0 0.7 0 0.1-0.1 0.2-0.1 0.4 0 0.7 0 0.1-0.1 0.2-0.2 0.3 0 0.6 0c0 0 0.1-0.1 0.1-0.1q0.4 0 0.8 0 0.1-0.1 0.1-0.2c0.3 0 0.6 0 0.8 0q0.1-0.1 0.1-0.1c0.2-0.1 0.5 0 0.6 0 0.1-0.1 0.2-0.2 0.2-0.2q0.4 0 0.7 0 0.1-0.1 0.2-0.2 0.4 0 0.7 0 0.1 0 0.2-0.1 0.3 0 0.6 0 0.1-0.1 0.1-0.1c0.3 0 0.6 0 0.8 0q0.1-0.1 0.1-0.2c0.3 0 0.6 0 0.8 0q0.1-0.1 0.1-0.1 0.4 0 0.8 0 0.1-0.1 0.2-0.2 0.3 0 0.6 0 0-0.1 0.1-0.2 0.4 0 0.8 0 0 0 0.1-0.1c0.2 0 0.4 0 0.6 0q0.1-0.1 0.2-0.2 0.4 0 0.7 0 0.1 0 0.2-0.1c0.2 0 0.5 0 0.7 0q0.1-0.1 0.2-0.1 0.3 0 0.7 0 0.1-0.1 0.2-0.2 0.3 0 0.6 0 0.1-0.1 0.2-0.2 0.3 0 0.7 0 0 0 0.1-0.1c0.2 0 0.4 0 0.6 0q0.1-0.1 0.2-0.2 0.4 0 0.7 0 0.1 0 0.2-0.1c0.2 0 0.5 0 0.8 0q0-0.1 0.1-0.2 0.3 0.1 0.5 0 0.1 0 0.1 0 0.1 0 0.2-0.1 0.3 0 0.7 0 0.1-0.1 0.2-0.2 0.3 0 0.7 0 0.1 0 0.1-0.1c0.2 0 0.5 0 0.6 0 0.1-0.1 0.2-0.1 0.2-0.2q0.4 0 0.8 0 0 0 0.1-0.1c0.3 0 0.5 0 0.8 0q0.1-0.1 0.1-0.2 0.3 0.1 0.5 0 0.1 0 0.2 0 0-0.1 0.1-0.1 0.3 0 0.7 0 0.1-0.1 0.2-0.2 0.4 0 0.7 0 0.1 0 0.2-0.1 0.3 0 0.7 0c0.1-0.1 0.1-0.1 0.2-0.2q0.3 0 0.6 0c0 0 0.1-0.1 0.1-0.1q0.4 0 0.8 0 0.1-0.1 0.1-0.2 0.3 0 0.5 0 0.1 0 0.2 0 0-0.1 0.1-0.1 0.4 0 0.7 0 0.1-0.1 0.2-0.1 0.3 0 0.7 0c0.1-0.1 0.1-0.1 0.2-0.2q0.4 0 0.7 0 0.1-0.1 0.2-0.2 0.3 0 0.6 0 0.1 0 0.1-0.1 0.4 0 0.8 0 0.1-0.1 0.2-0.2 0.2 0 0.5 0 0.1 0 0.2-0.1 0.4 0 0.8 0 0-0.1 0.1-0.1 0.4 0 0.8 0 0-0.1 0.1-0.2 0.4 0 0.8 0c0-0.1 0.1-0.1 0.1-0.2 0.2 0 0.4 0 0.6 0q0.1 0 0.2-0.1c0.2 0 0.5 0 0.7 0q0.1-0.1 0.2-0.2 0.3 0 0.6 0 0.1 0 0.1-0.1 0.4 0 0.8 0 0-0.1 0.1-0.1 0.4 0 0.8 0c0-0.1 0.1-0.1 0.1-0.2q0.4 0 0.8 0c0-0.1 0.1-0.1 0.1-0.2q0.3 0 0.6 0c0.1 0 0.1-0.1 0.2-0.1q0.4 0 0.8 0 0-0.1 0.1-0.2 0.4 0 0.7 0 0.1 0 0.2-0.1 0.3 0 0.6 0 0-0.1 0.1-0.2c0.3 0 0.5 0 0.8 0 0.1 0 0.1-0.1 0.1-0.1 0.3 0 0.6 0 0.8 0 0.1-0.1 0.1-0.1 0.2-0.2 0.2 0 0.4 0 0.6 0 0 0 0.1-0.1 0.1-0.1q0.4 0 0.8 0 0.1-0.1 0.1-0.2 0.4 0 0.7 0 0.1 0 0.2-0.1 0.3 0 0.6 0 0.1-0.1 0.2-0.2 0.3 0 0.7 0c0.1 0 0.1 0 0.2-0.1q0.3 0 0.6 0 0.1-0.1 0.1-0.1c0.3-0.1 0.6 0 0.8-0.1q0.1-0.1 0.1-0.1 0.4 0 0.8 0 0 0 0.1-0.1 0 0 0-0.1 0.4 0 0.8 0 0.1 0 0.1-0.1 0.3 0 0.6 0 0.1-0.1 0.2-0.2 0.4 0 0.7 0 0.1 0 0.2-0.1 0.3 0 0.6 0 0.1-0.1 0.1-0.1c0.3-0.1 0.6 0 0.8-0.1q0.1-0.1 0.1-0.1c0.3 0 0.5 0 0.7 0q0-0.4 0-0.7-0.1-0.1-0.1-0.1 0-0.4 0-0.7c-0.1 0-0.1 0-0.2-0.1q0-0.3 0-0.6-0.1-0.1-0.1-0.1 0-0.4 0-0.6-0.1-0.1-0.2-0.2 0-0.2 0-0.5 0 0-0.1-0.1 0-0.3 0-0.6c-0.1-0.1-0.1-0.1-0.2-0.1q0-0.3 0-0.5-0.1-0.1-0.1-0.2 0-0.2 0-0.4c-0.1-0.1-0.1-0.1-0.2-0.2q0-0.2 0-0.4-0.1-0.1-0.1-0.2 0-0.2 0-0.4-0.1-0.1-0.2-0.2 0-0.2 0-0.4 0-0.1 0-0.1c-0.2-0.1 0-0.4-0.3-0.5 0 0 0-0.1 0-0.2 0-0.1 0.1-0.2-0.1-0.3-0.1-0.1 0-0.3-0.1-0.5q0 0-0.1-0.1 0-0.2 0-0.4-0.1-0.1-0.1-0.2 0-0.1 0-0.3-0.1 0-0.2-0.1 0-0.2 0-0.3-0.1-0.1-0.1-0.2 0-0.2-0.1-0.4c-0.2-0.1 0-0.4-0.1-0.5-0.2-0.1-0.1-0.3-0.1-0.4-0.2-0.1-0.2-0.3-0.2-0.5 0-0.1-0.2-0.1-0.1-0.3 0-0.1-0.2-0.2-0.2-0.4 0.1-0.2-0.2-0.3-0.1-0.4 0-0.2-0.2-0.3-0.2-0.6-0.2-0.1 0-0.4-0.3-0.5 0 0 0-0.1 0-0.2 0-0.2-0.2-0.3-0.2-0.6-0.3-0.3-0.2-0.8-0.5-1.1q0-0.1 0-0.1c0-0.2-0.2-0.3-0.2-0.5 0-0.2-0.2-0.2-0.2-0.4 0.1-0.2-0.1-0.3-0.1-0.5 0 0-0.2-0.1-0.1-0.1 0-0.2-0.2-0.4-0.2-0.6 0-0.1-0.2-0.2-0.2-0.4-0.2-0.1 0-0.4-0.3-0.5 0-0.3-0.2-0.5-0.3-0.7 0-0.1-0.1-0.3-0.2-0.4-0.1-0.2 0-0.4-0.2-0.5-0.4-0.9-0.9-1.9-1.4-2.9 0-0.2-0.2-0.3-0.3-0.5q0-0.2-0.1-0.3c0 0 0-0.1 0-0.1-0.1-0.1-0.2-0.2-0.3-0.3-0.1-0.1-0.1-0.3-0.2-0.4 0-0.1-0.1-0.3-0.2-0.4-0.1-0.1 0-0.3-0.2-0.3-0.1-0.2-0.2-0.4-0.3-0.6-0.1-0.1-0.1-0.3-0.3-0.5-0.1-0.1-0.1-0.3-0.2-0.4-0.1-0.1-0.1-0.3-0.2-0.4-0.2-0.1-0.2-0.2-0.3-0.4-0.1-0.2-0.2-0.3-0.3-0.5-0.1-0.1-0.1-0.2-0.2-0.3-0.2-0.1-0.2-0.3-0.2-0.4q-0.2-0.2-0.3-0.5-0.2-0.2-0.4-0.4c-0.1-0.2-0.1-0.4-0.3-0.5 0-0.3-0.4-0.3-0.3-0.6-0.3-0.1-0.3-0.5-0.5-0.6-0.1-0.1-0.1-0.3-0.2-0.4q-0.2-0.2-0.4-0.4c0.1-0.2-0.3-0.3-0.3-0.6-0.2-0.2-0.4-0.3-0.5-0.6-0.1-0.2-0.3-0.3-0.4-0.6-0.1-0.2-0.4-0.3-0.5-0.6-0.1-0.2-0.4-0.3-0.4-0.6q-0.3-0.3-0.6-0.6 0-0.1 0-0.1c-0.2-0.3-0.5-0.4-0.6-0.8q-0.4-0.4-0.7-0.7-0.1-0.1-0.1-0.2-0.4-0.4-0.8-0.9 0 0 0-0.1-0.6-0.5-1.1-1 0-0.2 0-0.2-1-1-2-2-0.3-0.3-0.6-0.6-0.3-0.4-0.7-0.7-0.3-0.3-0.6-0.7-0.3-0.3-0.7-0.6-0.3-0.3-0.6-0.6c-0.2-0.3-0.5-0.5-0.7-0.7-0.2-0.3-0.5-0.3-0.7-0.6q-0.3-0.3-0.6-0.5c-0.2-0.2-0.2-0.5-0.5-0.5q-0.3-0.3-0.6-0.5c-0.1-0.1-0.1-0.1-0.1-0.1-0.3 0.3-0.6 0.6-0.9 0.9q0 0 0 0.1-0.4 0.4-0.8 0.7 0 0.1 0 0.2-0.4 0.4-0.9 0.9 0 0.1 0 0.1c-0.3 0.4-0.6 0.6-0.8 1-0.2 0.3-0.5 0.5-0.7 0.8-0.2 0.3-0.5 0.5-0.7 0.8q0 0-0.1 0c0 0.1 0 0.1 0 0.1z"/>
				</g>
			</g>
			<g id="Clip-Path" clip-path="url(#cp2)">
				<g id="Layer">
					<path id="Layer" fill-rule="evenodd" class="s1" d="m132.1 16.4q1.6 0 3.2 0 0.1 0.1 0.2 0.2 1.6 0 3.3 0 0.1 0.1 0.1 0.1 1 0 2 0 0.1 0.1 0.1 0.2 0.9 0 1.7 0 0 0 0.1 0.1c0.4 0 0.8 0 1.3 0q0 0.1 0.1 0.2 0.5 0 1.1 0c0 0 0 0.1 0.1 0.1q0.5 0 0.9 0c0.1 0.1 0.1 0.1 0.2 0.2q0.4 0 0.9 0 0.1 0.1 0.1 0.1 0.4 0 0.8 0 0 0.1 0.1 0.2 0.4 0 0.8 0 0 0 0.1 0.1c0.2 0 0.4 0 0.6 0 0.1 0.1 0.1 0.1 0.2 0.2 0.2 0 0.5 0 0.7 0 0.1 0 0.1 0.1 0.2 0.1q0.2 0 0.4 0c0.1 0.1 0.1 0.1 0.2 0.2q0.3 0 0.6 0 0.1 0.1 0.1 0.1 0.3 0 0.6 0 0.1 0.1 0.2 0.2 0.2 0 0.4 0 0.1 0.1 0.2 0.1 0.2 0 0.4 0 0.1 0.1 0.2 0.2 0.2 0 0.4 0 0.1 0 0.2 0.1c0.1 0 0.3 0 0.4 0q0.1 0.1 0.2 0.2 0.2 0 0.4 0 0.1 0 0.2 0.1 0.2 0 0.4 0 0.1 0.1 0.2 0.2 0.2 0 0.5 0 0 0 0.1 0.1c0.1 0 0.2 0 0.3 0.1 0.1 0 0.2 0.1 0.3 0.1 0.2 0 0.4 0.2 0.6 0.1 0.2 0 0.4 0.3 0.6 0.2 0 0 0.1 0.1 0.2 0.1q0.1 0 0.3 0 0 0.1 0.1 0.2 0.2 0 0.3 0 0.1 0 0.1 0.1c0.1 0.1 0.3-0.1 0.4 0.1 0.1 0.1 0.3 0 0.4 0.1 0.2 0.2 0.5 0.1 0.7 0.3 0.2-0.1 0.4 0.2 0.7 0.1 0.1 0.2 0.2 0.2 0.4 0.2 0.1 0.2 0.3 0.1 0.5 0.2 0.1 0 0.3 0.2 0.4 0.2 0.2 0 0.4 0.1 0.5 0.2 0.2-0.1 0.3 0.1 0.5 0.1 0.1 0 0.2 0.2 0.4 0.2 0.2-0.1 0.3 0.2 0.4 0.1 0.1 0.2 0.3 0.2 0.4 0.2 0.1 0 0.2 0.1 0.3 0.1 0.1 0 0.2 0.2 0.4 0.2 0.2-0.1 0.3 0.2 0.4 0.1 0.1 0.2 0.3 0.2 0.5 0.3 0.3 0 0.5 0.2 0.8 0.3q0.4 0.3 0.8 0.4 0.4 0.2 0.8 0.3c0.2 0.2 0.5 0.3 0.7 0.4q0.4 0.2 0.8 0.4c0.2 0.1 0.4 0.2 0.7 0.3q0.3 0.2 0.7 0.4c0.3 0.1 0.5 0.3 0.7 0.4 0.3 0 0.3 0.3 0.6 0.3 0.2 0.2 0.4 0.2 0.7 0.3q0.3 0.2 0.5 0.3c0.2 0.1 0.3 0.3 0.5 0.3 0.2 0.2 0.5 0.2 0.7 0.4 0.2 0.2 0.4 0.3 0.6 0.3 0.2 0.1 0.2 0.4 0.5 0.4 0.1 0.1 0.4 0.1 0.5 0.3 0.1 0.1 0.3 0.2 0.5 0.3q0 0.1 0.1 0.1c0.1 0 0.2 0.1 0.3 0.1 0.2 0.1 0.2 0.2 0.4 0.3 0.1 0.1 0.2 0.1 0.3 0.2 0.1 0.1 0.3 0.2 0.5 0.4 0.1 0.1 0.4 0.1 0.5 0.3 0.2 0 0.3 0.2 0.5 0.3 0.2 0 0.3 0.3 0.5 0.3 0.2 0.1 0.2 0.3 0.4 0.3 0.3 0 0.3 0.3 0.5 0.4 0.2 0 0.3 0.2 0.5 0.3 0.1 0.1 0.2 0.1 0.3 0.2 0.1 0 0.2 0.2 0.2 0.2 0.2 0 0.2 0.1 0.3 0.1 0.1 0.2 0.2 0.4 0.5 0.4 0.1 0.1 0.2 0.3 0.3 0.3 0.3 0.1 0.4 0.4 0.7 0.5 0.2 0.1 0.3 0.3 0.5 0.4 0.4 0.2 0.5 0.5 0.8 0.7 0.4 0.1 0.5 0.4 0.8 0.6q0.1 0 0.1 0c0.3 0.2 0.5 0.5 0.8 0.6 0.2 0.2 0.4 0.5 0.7 0.7 0.3 0.1 0.5 0.4 0.7 0.6q0 0.1 0 0.3 0 0 0 0.1c-0.3 0.3-0.5 0.4-0.7 0.8-0.2 0.2-0.5 0.4-0.7 0.7-0.2 0.4-0.5 0.6-0.8 1-0.2 0.1-0.2 0.4-0.4 0.5-0.2 0.1-0.3 0.2-0.4 0.4-0.2 0.4-0.5 0.6-0.8 0.9-0.1 0.2-0.2 0.4-0.3 0.5q-0.3 0.3-0.5 0.5 0 0.1 0 0.2-0.4 0.3-0.8 0.7 0 0.1 0 0.1-0.4 0.5-0.9 0.9 0 0.1 0 0.2-0.3 0.3-0.6 0.6c-0.1 0.2-0.2 0.4-0.3 0.5-0.2 0.2-0.4 0.3-0.5 0.5-0.2 0.3-0.4 0.6-0.7 0.8-0.2 0.2-0.2 0.4-0.4 0.6-0.1 0.1-0.3 0.2-0.4 0.4-0.2 0.4-0.5 0.6-0.8 0.9-0.2 0.2-0.2 0.5-0.4 0.6-0.2 0.1-0.4 0.3-0.5 0.5-0.2 0.4-0.6 0.6-0.8 0.9q0 0.1 0 0.2-0.4 0.3-0.7 0.7 0 0.1 0 0.2-0.5 0.4-1 0.9 0 0 0 0.1c-0.1 0.2-0.3 0.4-0.5 0.6-0.2 0.2-0.2 0.4-0.4 0.5-0.2 0.2-0.4 0.3-0.5 0.5-0.1 0.3-0.4 0.6-0.6 0.8-0.2 0.2-0.3 0.5-0.5 0.6-0.2 0.2-0.4 0.4-0.5 0.6-0.2 0.3-0.5 0.5-0.7 0.8-0.2 0.2-0.2 0.4-0.4 0.5-0.2 0.2-0.4 0.3-0.5 0.5-0.1 0.3-0.4 0.5-0.6 0.7-0.1 0.2-0.2 0.5-0.4 0.6-0.2 0.2-0.3 0.4-0.5 0.5q0 0.1 0 0.2-0.5 0.4-0.9 0.9 0 0.1 0 0.1c-0.2 0.2-0.4 0.5-0.6 0.6-0.2 0.2-0.2 0.4-0.4 0.6-0.2 0.1-0.4 0.2-0.5 0.4-0.1 0.4-0.4 0.6-0.6 0.8-0.2 0.2-0.3 0.5-0.5 0.7-0.2 0.1-0.4 0.3-0.5 0.5-0.2 0.3-0.5 0.6-0.7 0.8-0.2 0.2-0.2 0.4-0.4 0.5-0.2 0.2-0.4 0.3-0.4 0.5-0.2 0.3-0.4 0.5-0.7 0.7-0.1 0.2-0.2 0.5-0.4 0.6-0.2 0.2-0.3 0.4-0.5 0.6q0 0 0 0.1-0.5 0.5-0.9 0.9 0 0.1 0 0.2-0.3 0.3-0.6 0.5c-0.2 0.2-0.2 0.4-0.4 0.6-0.1 0.1-0.3 0.3-0.4 0.5-0.2 0.3-0.5 0.5-0.7 0.8-0.2 0.1-0.2 0.4-0.4 0.5-0.2 0.1-0.3 0.3-0.4 0.4-0.2 0.4-0.5 0.7-0.8 1-0.2 0.2-0.2 0.4-0.4 0.6-0.2 0.1-0.4 0.3-0.5 0.4-0.2 0.4-0.4 0.6-0.6 0.8-0.2 0.1-0.2 0.4-0.4 0.6-0.2 0.1-0.4 0.3-0.6 0.5q0 0.1 0 0.1c-0.2 0.2-0.3 0.4-0.5 0.6-0.2 0.1-0.3 0.4-0.5 0.6-0.2 0.2-0.4 0.4-0.6 0.6-0.1 0.3-0.4 0.5-0.6 0.8-0.2 0.1-0.2 0.3-0.4 0.5-0.1 0.2-0.4 0.3-0.5 0.5-0.1 0.3-0.4 0.5-0.7 0.8-0.1 0.1-0.1 0.3-0.2 0.4q-0.2 0.2-0.3 0.3c-0.2 0.2-0.3 0.3-0.4 0.4-0.2 0.4-0.4 0.6-0.7 0.9-0.2 0.1-0.2 0.4-0.4 0.5-0.2 0.1-0.3 0.3-0.5 0.5-0.1 0.4-0.5 0.6-0.8 1q0 0 0 0.1-0.4 0.4-0.9 0.9 0 0 0 0.1-0.3 0.4-0.7 0.8 0 0 0 0.1-0.3 0.3-0.6 0.6c-0.1 0.2-0.2 0.3-0.4 0.5-0.1 0.2-0.3 0.3-0.4 0.5-0.2 0.4-0.6 0.6-0.8 0.9-0.2 0.2-0.3 0.5-0.5 0.7-0.2 0.1-0.5 0.3-0.5 0.6q0 0-0.1 0c-0.2 0.3-0.5 0.5-0.6 0.8-0.1 0.2-0.4 0.4-0.6 0.6-0.1 0.2-0.2 0.5-0.4 0.6-0.2 0.2-0.3 0.4-0.5 0.5 0 0.1 0 0.1 0 0.2q-0.2 0.2-0.5 0.4c-0.1 0.1-0.3 0.3-0.4 0.4-0.1 0.2-0.2 0.4-0.4 0.5q-0.2 0.3-0.4 0.5c0 0 0 0.1 0 0.1q-0.3 0.3-0.6 0.6c-0.1 0.1-0.1 0.4-0.3 0.5-0.2 0.2-0.4 0.3-0.5 0.5-0.2 0.3-0.4 0.6-0.7 0.8-0.1 0.2-0.2 0.5-0.4 0.6-0.2 0.2-0.4 0.3-0.6 0.6-0.1 0.3-0.4 0.5-0.7 0.8-0.1 0.2-0.1 0.4-0.3 0.5-0.2 0.2-0.4 0.3-0.5 0.5-0.1 0.3-0.4 0.5-0.6 0.7-0.2 0.2-0.2 0.5-0.4 0.6q-0.3 0.3-0.6 0.5c0 0.1 0 0.1 0 0.2-0.2 0.3-0.6 0.6-0.9 1q0 0 0 0c-0.2 0.2-0.3 0.5-0.5 0.6-0.2 0.2-0.2 0.5-0.5 0.5q0 0 0 0 0-44.8 0-89.6 0 0 0-0.1zm49.1 28.3c0.1-0.1 0.3-0.3 0.5-0.5 0.2-0.1 0.2-0.4 0.4-0.6 0.2-0.2 0.4-0.3 0.6-0.6 0.1-0.3 0.4-0.5 0.6-0.7q0.1 0 0.1-0.1c0-0.3 0.3-0.4 0.5-0.6 0.2-0.2 0.3-0.4 0.4-0.6 0.3-0.3 0.7-0.6 0.9-1 0-0.2 0.3-0.3 0.4-0.4 0.2-0.2 0.2-0.4 0.4-0.6 0.2-0.2 0.4-0.4 0.5-0.5q0.1-0.2 0.1-0.3c0.2-0.1 0.4-0.2 0.5-0.5-0.3-0.2-0.5-0.5-0.8-0.6-0.2-0.1-0.4-0.4-0.6-0.6-0.3-0.1-0.5-0.3-0.7-0.5-0.1 0-0.1 0-0.2 0-0.1-0.1-0.2-0.3-0.3-0.4-0.1-0.1-0.3-0.1-0.4-0.2q-0.2-0.2-0.4-0.4c-0.1-0.1-0.3-0.1-0.4-0.3 0-0.1-0.2-0.1-0.3-0.2q-0.2-0.2-0.4-0.3c-0.3 0-0.3-0.3-0.5-0.4 0 0-0.1-0.1-0.2-0.1-0.1 0-0.2-0.1-0.3-0.2 0-0.1-0.2-0.1-0.3-0.2-0.3-0.2-0.6-0.3-0.8-0.6-0.2 0-0.3-0.1-0.4-0.2-0.1-0.2-0.3-0.1-0.4-0.3-0.1-0.2-0.3-0.1-0.3-0.2-0.2-0.3-0.6-0.3-0.7-0.5-0.4-0.1-0.6-0.4-0.8-0.5-0.2-0.1-0.3-0.2-0.4-0.3-0.2 0.1-0.3-0.2-0.5-0.2-0.1-0.1-0.2-0.2-0.3-0.2-0.2-0.1-0.3-0.2-0.4-0.3-0.2 0-0.3-0.3-0.5-0.2-0.1-0.1-0.2-0.2-0.3-0.3-0.1-0.1-0.3-0.1-0.5-0.2-0.1-0.1-0.2-0.1-0.3-0.2-0.1-0.2-0.3-0.2-0.4-0.3q-0.4-0.1-0.7-0.3c-0.1-0.1-0.3 0-0.3-0.2-0.1-0.1-0.3-0.1-0.4-0.2-0.1-0.1-0.3-0.1-0.4-0.2-0.3-0.1-0.6-0.3-1-0.5q-0.4-0.2-0.9-0.5-0.5-0.2-1-0.5-0.5-0.2-0.9-0.4c-0.3-0.2-0.7-0.4-1-0.5-0.3 0-0.5-0.2-0.7-0.3-0.2-0.1-0.4-0.2-0.7-0.2-0.1-0.1-0.3-0.3-0.4-0.3-0.2 0-0.2-0.2-0.4-0.2-0.2 0.1-0.3-0.1-0.5-0.1 0 0-0.1-0.1-0.2-0.2-0.1 0-0.3 0-0.4-0.1-0.1-0.1-0.3-0.2-0.4-0.1-0.2 0-0.3-0.2-0.4-0.2-0.2 0-0.2-0.2-0.4-0.2-0.2 0.1-0.3-0.2-0.4-0.1-0.2 0.1-0.3-0.2-0.5-0.2-0.2 0.1-0.3-0.1-0.4-0.1-0.2 0-0.3-0.2-0.4-0.2-0.2 0.1-0.2-0.2-0.4-0.1-0.2 0-0.3-0.2-0.4-0.2-0.2 0.1-0.3 0-0.4-0.1-0.1-0.1-0.3 0-0.4-0.1-0.3 0-0.4-0.2-0.7-0.2-0.1 0-0.2-0.1-0.3-0.2q-0.2 0-0.4 0-0.1 0-0.1-0.1-0.2 0-0.3 0-0.1-0.1-0.2-0.2-0.2 0-0.3 0-0.1-0.1-0.2-0.1-0.2 0-0.4 0c-0.1-0.3-0.5-0.1-0.6-0.3q-0.2 0-0.4 0-0.1-0.1-0.2-0.2-0.2 0-0.4 0-0.1 0-0.2-0.1-0.2 0-0.5 0 0-0.1-0.1-0.2-0.2 0-0.5 0 0-0.1-0.1-0.1-0.3 0-0.5 0-0.1-0.1-0.1-0.2-0.2 0-0.4 0c-0.1 0-0.2-0.1-0.3-0.1-0.2 0-0.3 0-0.4 0 0-0.1-0.1-0.1-0.1-0.2q-0.3 0-0.6 0-0.1-0.1-0.2-0.1-0.3 0-0.6 0 0-0.1-0.1-0.2-0.3 0-0.6 0-0.1 0-0.2-0.1c-0.1 0-0.4 0-0.6 0 0-0.1-0.1-0.1-0.1-0.2q-0.4 0-0.8 0c0 0-0.1-0.1-0.1-0.1q-0.4 0-0.8 0-0.1-0.1-0.1-0.2c-0.3 0-0.7 0.1-1 0q0-0.1-0.1-0.1-0.4 0-0.9 0-0.1-0.1-0.1-0.2-0.6 0-1.1 0-0.1 0-0.1-0.1-0.6 0-1.1 0c0-0.1-0.1-0.1-0.2-0.2-0.4 0-1 0-1.5 0q0 0-0.1-0.1-0.9 0-1.8 0-0.1-0.1-0.2-0.2-1.5 0-3.1 0 0 0-0.1 0 0-0.1-0.1-0.1-0.8 0-1.6 0-0.1 0-0.2 0 0 0 0 0 0 41.2 0 82.3c0 0 0 0 0 0.1 0.2-0.2 0.5-0.4 0.6-0.7q0.2-0.4 0.5-0.6c0.3-0.2 0.3-0.5 0.6-0.7 0.2-0.2 0.4-0.4 0.5-0.7 0.2-0.3 0.7-0.5 0.8-0.9 0.1-0.2 0.3-0.3 0.4-0.4 0.1-0.2 0.3-0.2 0.3-0.4 0.1-0.2 0.3-0.3 0.4-0.5 0.2-0.2 0.4-0.4 0.6-0.7 0-0.1 0.3-0.3 0.4-0.4 0.2-0.2 0.2-0.4 0.4-0.6 0.2-0.2 0.5-0.4 0.7-0.8 0.1-0.2 0.3-0.3 0.5-0.5 0.1-0.1 0.2-0.3 0.3-0.5 0.3-0.3 0.7-0.5 0.9-0.9 0-0.2 0.2-0.4 0.4-0.5 0.2-0.2 0.2-0.4 0.4-0.6q0.3-0.2 0.6-0.5 0-0.1 0-0.2 0.4-0.4 0.7-0.7 0-0.1 0-0.2 0.5-0.4 0.9-0.9 0-0.1 0-0.1c0.3-0.4 0.7-0.6 0.9-1 0.1-0.2 0.2-0.3 0.4-0.5 0.2-0.1 0.2-0.3 0.4-0.5 0.2-0.2 0.5-0.5 0.7-0.8 0.1-0.2 0.3-0.3 0.4-0.5 0.2-0.2 0.3-0.4 0.4-0.5 0.3-0.3 0.6-0.6 0.8-1 0.1-0.2 0.3-0.3 0.5-0.4 0.2-0.2 0.2-0.4 0.4-0.6q0.3-0.2 0.6-0.5 0-0.1 0-0.2c0.2-0.3 0.6-0.5 0.8-1 0-0.1 0.2-0.2 0.3-0.3 0.1-0.2 0.3-0.3 0.4-0.5 0-0.1 0.2-0.2 0.3-0.4 0.2-0.2 0.5-0.4 0.6-0.7 0.1-0.2 0.3-0.3 0.5-0.5 0.2-0.1 0.2-0.3 0.3-0.5 0.3-0.3 0.6-0.5 0.8-0.8 0-0.2 0.2-0.3 0.4-0.5 0.2-0.1 0.2-0.3 0.3-0.5 0.3-0.3 0.6-0.5 0.8-0.8 0.1-0.3 0.3-0.4 0.5-0.6 0.2-0.2 0.3-0.5 0.5-0.7 0.2-0.1 0.4-0.3 0.5-0.5q0-0.1 0-0.1 0.4-0.4 0.8-0.8 0-0.1 0-0.1c0.2-0.4 0.7-0.5 0.8-1 0.2-0.2 0.3-0.4 0.6-0.6 0.2-0.1 0.3-0.4 0.5-0.6 0.2-0.2 0.5-0.4 0.5-0.7q0.4-0.3 0.7-0.7 0 0 0 0c0.1-0.3 0.3-0.5 0.5-0.6 0.2-0.2 0.3-0.5 0.5-0.7 0.3-0.3 0.6-0.5 0.8-0.9 0.1-0.2 0.3-0.3 0.5-0.5 0.1-0.2 0.2-0.4 0.3-0.5 0.2-0.2 0.4-0.4 0.6-0.6q0-0.1 0-0.2 0.4-0.3 0.8-0.7 0-0.1 0-0.1c0.2-0.4 0.6-0.6 0.8-1 0.2-0.2 0.3-0.4 0.5-0.6 0.3-0.2 0.4-0.5 0.6-0.7 0.2-0.1 0.4-0.3 0.5-0.6 0.1-0.2 0.3-0.4 0.5-0.5 0.2-0.1 0.2-0.4 0.4-0.5 0.2-0.3 0.5-0.5 0.7-0.9 0.1-0.2 0.3-0.4 0.5-0.5 0.2-0.2 0.3-0.5 0.5-0.6 0.2-0.3 0.5-0.5 0.6-0.8 0.1-0.2 0.3-0.4 0.5-0.5 0.2-0.1 0.2-0.4 0.3-0.5q0.4-0.3 0.6-0.6 0-0.1 0-0.2 0.3-0.2 0.5-0.4c0.2-0.2 0.3-0.4 0.4-0.6 0.2-0.2 0.5-0.5 0.8-0.8q0 0 0-0.1c0.3-0.3 0.6-0.6 0.8-1 0.1-0.2 0.3-0.3 0.5-0.4 0.2-0.2 0.2-0.4 0.3-0.6 0.3-0.2 0.6-0.4 0.7-0.8 0.1-0.2 0.4-0.3 0.5-0.5 0.1-0.1 0.2-0.3 0.4-0.5 0.2-0.3 0.6-0.5 0.8-0.9 0.1-0.2 0.3-0.4 0.5-0.5 0.1-0.2 0.1-0.4 0.3-0.6q0.3-0.2 0.6-0.5 0-0.1 0-0.2 0.4-0.4 0.8-0.7 0-0.1 0-0.2 0.4-0.4 0.9-0.9 0-0.1 0-0.2z"/>
				</g>
			</g>
		</g>
	</g>
</svg>